<svg version="1.1" id="Layer_1" xmlns="http://www.w3.org/2000/svg" x="0" y="0" viewBox="0 0 118.66 154.3" xml:space="preserve"><style>.st0,.st4,.st5,.st6{fill-rule:evenodd;clip-rule:evenodd;fill:#fff}.st4,.st5,.st6{fill:#e6e6e6}.st5,.st6{fill:#d5d5db}.st6{fill:#662d91}.st9{opacity:.3}.st11,.st12{fill-rule:evenodd;clip-rule:evenodd;fill:#f9bb0e}.st12{fill:#bb8c0b}</style><path class="st0" d="M61.07 55.42c-1.74-2.69-5.35-3.45-8.02-1.69l-17.54 11.5-15.5-5.63c-2.74-1-5.81.45-6.81 3.21s.43 5.84 3.17 6.83l19.11 6.94c1.62.59 3.36.32 4.71-.57.18-.09.36-.19.53-.31l18.63-12.22c2.69-1.74 3.45-5.38 1.72-8.06z"/><path d="M53.15 53.89c2.58-1.69 6.07-.96 7.75 1.63 1.68 2.59.94 6.1-1.65 7.8L40.62 75.54c-.17.11-.34.21-.51.3h-.01l-.01.01c-1.3.85-2.97 1.11-4.53.55l-19.11-6.94c-2.64-.96-4.02-3.92-3.05-6.58.96-2.66 3.91-4.05 6.55-3.09l15.59 5.66 17.61-11.56zm8.09 1.42a5.983 5.983 0 0 0-8.3-1.75L35.48 65l-15.4-5.59c-2.85-1.03-6.03.47-7.06 3.33-1.04 2.87.44 6.06 3.29 7.09l19.11 6.94c1.68.61 3.48.33 4.88-.58.18-.09.36-.2.54-.31l18.63-12.22c2.77-1.82 3.56-5.57 1.77-8.35z" fill-rule="evenodd" clip-rule="evenodd" fill="#d2d8d9"/><g fill-rule="evenodd" clip-rule="evenodd"><path d="M92.65 91.47l-18.98 2.77c-4.43.65-8.57-2.48-9.21-6.95l-5.72-40.15c-.64-4.47 2.46-8.66 6.89-9.3l18.98-2.77c4.43-.65 8.57 2.48 9.21 6.95l5.72 40.15c.63 4.47-2.47 8.66-6.89 9.3z" fill="#bfbfbf"/><path d="M99.53 82.44L93.8 42.33c-.64-4.47-4.78-7.59-9.22-6.95l-19 2.77c-2.81.41-5.08 2.24-6.21 4.67.57-.22 1.16-.39 1.78-.48l19-2.77c4.43-.65 8.58 2.48 9.22 6.95l5.73 40.11c.23 1.63-.04 3.23-.69 4.63 3.45-1.36 5.67-4.99 5.12-8.82z" fill="#f2f2f2"/></g><path class="st4" d="M73.72 94.32c-4.46.65-8.64-2.48-9.29-6.95l-5.78-40.11a8.16 8.16 0 0 1 .69-4.63c-3.47 1.35-5.7 4.97-5.15 8.81l5.78 40.11c.64 4.47 4.82 7.59 9.29 6.95l19.14-2.76c2.83-.41 5.12-2.24 6.25-4.67-.57.22-1.17.39-1.8.48l-19.13 2.77z"/><path class="st0" d="M73.49 113.91c-.05-.02-.11-.03-.16-.05l.11.18c.02-.04.03-.08.05-.13zm26.76 40.31c-5.74.64-7.25-2.56-8.01-4.97-.86-2.71-.15-8.21-.15-8.21s-1.42-.15-3.51-.52c-.38.89-.3.54-.6 1.41-1.3 2.42-3 4.42-8.71 4.24-5.71-.18-5.32-6.12-5.98-11.06-1.81-.88-2.76-3.16-2.76-3.16s-4.9.05-11.11-3.84c-5.54-3.47-4.27-15.87-1.9-23.7-.01-.14 1.37-3.03.39-5.58-7.53-15.9-7.14-39.84-2.88-52.79 0 0 8.07-1.55 20.15-1.63 12.08-.07 8.5 14.69 19.47 32.71 7.84 12.89 9.62 21.54 6.09 29.54-2.01 4.57-7.42 14.52-7.42 14.52s4.05 1.15 7.08 2.07c3.03.92 2.76 3.16 2.76 3.16l1.62.46c6.26 2.04 5.18 4.06 5.8 10.24 1.05 12.55-4.59 16.47-10.33 17.11z"/><path class="st5" d="M81.9 46.85c-1.57-1.69-3.65-2.61-6.71-2.59-6.05.04-11.09.44-14.62.84-1.77.2-3.15.4-4.1.54-.47.07-.84.13-1.08.18-.12.02-.22.04-.28.05l-.07.01h-.03l.03.15-.03-.15-.09.02-.03.08c-2.14 6.5-3.3 15.74-2.99 25.34.31 9.6 2.1 19.58 5.87 27.56.48 1.24.38 2.57.16 3.61-.11.52-.25.97-.36 1.3-.06.16-.1.3-.14.39-.01.02-.02.05-.02.07-.01.02-.01.04-.02.05-.01.02-.01.03-.01.05 0 0 0 .01-.01.03-1.19 3.92-2.1 8.99-2.02 13.51.04 2.27.33 4.4.96 6.2.63 1.79 1.61 3.25 3.03 4.15l.06-.1.01-.01m.01.01l-.06.1c3.12 1.95 5.91 2.92 7.93 3.4 1.01.24 1.82.35 2.38.41.28.03.5.04.65.05.05 0 .1 0 .13.01 0 0 0 .01.01.01.03.07.08.16.14.28.12.23.3.55.53.9.46.67 1.14 1.46 2.04 1.93.09.7.16 1.42.23 2.14.05.52.1 1.05.16 1.57.15 1.26.34 2.48.69 3.56.35 1.08.87 2.02 1.68 2.7.81.68 1.89 1.1 3.34 1.15 2.87.09 4.76-.37 6.09-1.17 1.34-.8 2.1-1.93 2.76-3.15l.01-.01v-.01c.15-.43.2-.56.26-.68.01-.02.02-.05.04-.08.05-.1.12-.24.25-.53 1 .17 1.84.3 2.43.38.31.04.55.07.72.09.04 0 .07.01.1.01 0 .03-.01.06-.01.09-.02.16-.04.38-.07.66-.05.56-.12 1.33-.15 2.19-.07 1.71-.03 3.79.4 5.17.38 1.21.96 2.65 2.18 3.7 1.23 1.06 3.08 1.7 5.98 1.38 2.9-.32 5.78-1.48 7.81-4.15 2.03-2.67 3.18-6.83 2.66-13.12-.1-1.01-.16-1.91-.21-2.72-.03-.42-.05-.82-.08-1.19-.08-1.09-.2-2-.51-2.79-.62-1.6-1.97-2.63-5.11-3.66h-.01l-1.5-.43c0-.07 0-.16-.01-.27-.02-.24-.09-.56-.25-.92-.33-.72-1.05-1.54-2.61-2.01-1.52-.46-3.29-.98-4.68-1.38-.7-.2-1.3-.37-1.72-.5l-.5-.14.15-.27.64-1.19c.54-1 1.28-2.39 2.08-3.92 1.6-3.06 3.46-6.69 4.47-8.98 3.56-8.07 1.75-16.78-6.1-29.68-4.39-7.21-6.44-13.9-8.11-19.33-.41-1.34-.8-2.6-1.19-3.78-.99-2.97-2.03-5.4-3.59-7.08m11.45 74.3l-.13-.07.06-.11.18-.32.64-1.19c.54-1 1.28-2.39 2.08-3.92 1.6-3.06 3.46-6.69 4.46-8.96 3.49-7.93 1.75-16.53-6.08-29.4-4.41-7.25-6.48-13.98-8.14-19.41-.41-1.34-.8-2.59-1.19-3.76-.99-2.97-2.01-5.34-3.52-6.97-1.5-1.62-3.5-2.52-6.48-2.5-6.06.03-11.09.43-14.61.83-1.76.2-3.15.4-4.09.54-.47.07-.83.13-1.08.18-.12.02-.21.04-.28.05h-.01c-2.11 6.45-3.26 15.62-2.95 25.16.31 9.58 2.09 19.51 5.85 27.44v.01c.51 1.32.4 2.71.18 3.79-.11.54-.26 1-.37 1.33-.05.14-.09.25-.12.34-.01.02-.01.04-.02.06-.02.05-.03.08-.04.11 0 .01 0 .01-.01.02v.01l-.01.03c-1.18 3.9-2.09 8.94-2.01 13.43.04 2.25.32 4.35.94 6.1.62 1.75 1.56 3.15 2.91 3.99 3.09 1.93 5.85 2.89 7.84 3.36.99.24 1.79.35 2.34.4.28.03.49.04.63.05H70.62l.04.09v.01l.01.02c.01.02.02.04.03.07.03.06.07.15.13.26.11.22.29.53.51.87.46.67 1.13 1.44 2 1.86l.07.04.01.08c.1.73.17 1.48.25 2.24.05.52.1 1.05.16 1.56.15 1.25.34 2.45.68 3.5.34 1.05.84 1.93 1.59 2.57.75.63 1.76 1.03 3.16 1.07 2.84.09 4.66-.36 5.93-1.12 1.26-.76 2-1.83 2.64-3.03.15-.43.2-.57.27-.71.01-.03.03-.05.04-.08.06-.12.13-.27.29-.63l.05-.11.12.02a64.471 64.471 0 0 0 3.25.48c.08.01.15.02.19.02l.05.01h.01l.15.02-.02.15v.01l-.01.05c-.01.04-.01.1-.02.18-.02.15-.04.38-.07.66-.05.56-.11 1.33-.15 2.18-.07 1.71-.03 3.74.39 5.07.38 1.2.94 2.57 2.09 3.56 1.15.99 2.92 1.62 5.76 1.31 2.84-.32 5.64-1.44 7.61-4.03 1.97-2.59 3.12-6.66 2.6-12.91-.1-1.02-.16-1.93-.21-2.74-.03-.42-.05-.81-.08-1.18-.08-1.09-.2-1.96-.49-2.71-.56-1.47-1.8-2.46-4.92-3.48l-1.74-.5.02-.13v-.01-.07c0-.06 0-.14-.01-.25-.02-.21-.08-.51-.22-.82-.29-.64-.95-1.4-2.42-1.85-1.51-.46-3.29-.98-4.68-1.38-.7-.2-1.3-.37-1.72-.5l-.68-.19-.18-.05.09-.17.15.07zM51.57 62.47S38.89 73.05 35.26 72.58c-3.63-.47-19.52-6.72-19.52-6.72l-1.83 1.79c.61.91 1.5 1.64 2.6 2.04l19.27 6.97c1.64.59 3.38.33 4.74-.55.18-.09.36-.19.53-.31l10.35-6.68.17-6.65z"/><path class="st6" d="M53.38 51.45c.1-.34.15-.71-.22-.81-.55-.15-1.56.46-1.72 1.52-.09.55-.71 3.86-.85 10.12-.13 6.26.49 8.55.57 8.89.09.34.35.48.51.49.16.01.39.01.38-.45-.02-.46-.08-7.73-.06-8.58.03-.86 1.04-10.03 1.39-11.18z"/><path class="st0" d="M100.25 153.91c-5.71.63-7.21-2.56-7.97-4.96-.85-2.7-.14-8.17-.14-8.17s-1.41-.15-3.5-.52c-.38.88-.3.54-.6 1.4-1.3 2.41-2.99 4.39-8.67 4.21-5.69-.19-5.29-6.1-5.94-11.02-1.8-.88-2.74-3.15-2.74-3.15s-4.88.04-11.05-3.84c-5.51-3.47-4.23-15.81-1.85-23.59-.01-.13 1.37-3.01.4-5.56-7.47-15.84-7.05-39.67-2.79-52.56 0 0 8.04-1.54 20.06-1.59 12.03-.05 8.44 14.64 19.33 32.59 7.79 12.84 9.54 21.46 6.02 29.42-2.01 4.54-7.41 14.45-7.41 14.45s4.03 1.15 7.05 2.07c3.02.92 2.74 3.15 2.74 3.15l1.61.46c6.23 2.04 5.15 4.05 5.76 10.2 1.02 12.48-4.6 16.38-10.31 17.01z"/><path class="st5" d="M93.32 121.1c13.58-21.57 11.59-27.12 1.43-44.06-7.94-13.24-8.62-25.85-13.06-30.23l-4.97 4.49c8.73 26.41 30.24 50.16 16.6 69.8z"/><path class="st4" d="M79.44 43.32l-.81-2.74c-.62-2.32-7.14-2.55-14.57-.5-7.43 2.04-12.95 5.58-12.33 7.9l.81 2.74c.62 2.32 7.21 3.66 14.64 1.62 7.42-2.04 12.87-6.7 12.26-9.02z"/><path d="M73.13 45.58l1.77 3.29s-1.08.69.57-.38c2.09-1.36 4.34-3.49 3.97-5.15-.79-2.57-.7-2.29-.7-2.29l-5.61 4.53z" fill-rule="evenodd" clip-rule="evenodd" fill="#adadad"/><path class="st0" d="M84.6 28.02C82.95 41.64 70.57 51.35 56.96 49.7c-13.62-1.65-23.32-14.02-21.67-27.64C36.93 8.44 49.3-1.27 62.92.38 76.54 2.03 86.25 14.41 84.6 28.02z"/><path class="st5" d="M62.95.18C49.22-1.48 36.75 8.3 35.08 22.03c-1.66 13.73 8.12 26.2 21.85 27.86 13.73 1.66 26.2-8.12 27.87-21.85C86.46 14.32 76.68 1.84 62.95.18zm-27.47 21.9C37.11 8.57 49.39-1.05 62.9.58 76.41 2.22 86.03 14.49 84.4 28c-1.63 13.51-13.91 23.14-27.42 21.5-13.51-1.63-23.14-13.91-21.5-27.42z"/><path class="st5" d="M58.81 1.23c-6.87.52-12.81 4.01-16.65 9.11 3.17-2.1 6.9-3.44 10.96-3.75 12.67-.96 23.72 8.55 24.68 21.23a22.91 22.91 0 0 1-4.57 15.58c6.73-4.46 10.91-12.32 10.26-20.94C82.53 9.78 71.48.27 58.81 1.23z"/><path class="st4" d="M43.92 44.09s9.79 1.77 15.42-1.39c5.64-3.16 10.29-9.34 8.38-16.86l1.01-.21.66 4.41c.66 4.42-2.13 12.58-9.71 15.5-7.57 2.93-15.76-1.45-15.76-1.45z"/><path d="M68.06 27.06c1.49 7.5-4.47 15.02-13.3 16.81-8.83 1.79-17.2-2.84-18.69-10.34-1.49-7.5 4.47-15.02 13.3-16.81 8.84-1.78 17.2 2.85 18.69 10.34z" fill-rule="evenodd" clip-rule="evenodd" fill="#1d1f33"/><g class="st9"><path d="M48.5 23.83c.16-.29-.11-.84.24-1.05.35-.21.79-.93.79-.93s.19-.19.54-.24c.35-.05.66-.2.79-.28.14-.07 1.58-.9 3.16-.55.5-.19.57-.27.98-.12.41.16.71.21.98.39.27.18.51.58.71.72.2.14 1.43.8 2.03 2.65.6 1.85.29 3.64-.66 5.03-.05.49-.07.92-.63 1.39-.56.47-1.45.83-2.47.83-1 .18-1.44.12-1.87.15-.43.02-.86.11-.86.11s-.53-.28-.85-.42c-.31-.14-.77-.25-.89-.41s-.01-.12-.12-.23c-.1-.11-1.09-.71-1.68-1.77-.27-.1-.6-.47-.62-.64-.02-.18.13-.4.13-.4s-.36-1.34-.3-1.92c.05-.58.23-1.64.6-2.31z" fill-rule="evenodd" clip-rule="evenodd" fill="#f9cb4c"/><path class="st11" d="M51.76 28.15c.09.43-.16.85-.57.93-.41.09-.81-.19-.9-.62-.09-.43.16-.85.57-.93.41-.09.81.19.9.62z"/><path class="st12" d="M51.22 29.31c-.48.1-.97-.23-1.08-.74a.945.945 0 0 1 0-.41.96.96 0 0 0-.04.56c.11.51.59.84 1.08.74.35-.08.61-.36.68-.71-.11.28-.34.5-.64.56z"/><path class="st12" d="M50.86 27.53c-.24.05-.43.22-.52.43.1-.13.24-.22.41-.25.41-.09.81.19.9.62.04.18.02.35-.05.5.15-.18.21-.43.16-.68-.09-.43-.49-.71-.9-.62z"/><path class="st11" d="M56.69 23.86c.22.12.31.37.21.57-.1.2-.37.27-.58.15-.22-.12-.31-.37-.21-.57.1-.2.37-.26.58-.15z"/><path class="st12" d="M57.01 24.5c-.12.24-.44.32-.7.18a.862.862 0 0 1-.18-.14c.05.09.13.16.23.22.26.14.57.06.7-.18.09-.17.06-.38-.07-.53.08.13.1.31.02.45z"/><path class="st12" d="M56.11 24.01c-.06.12-.05.25.01.37a.387.387 0 0 1 .03-.26c.1-.2.37-.27.58-.15.09.05.16.12.2.2a.487.487 0 0 0-.24-.31c-.21-.11-.48-.05-.58.15z"/><path class="st11" d="M54.25 25.85c.13.34-.04.71-.38.84a.655.655 0 0 1-.84-.38c-.13-.34.04-.71.38-.84s.72.04.84.38z"/><path class="st12" d="M53.92 26.87c-.4.15-.85-.06-1-.46a.76.76 0 0 1-.05-.33c-.04.15-.03.31.03.46.15.4.6.61 1 .46a.78.78 0 0 0 .5-.67c-.06.24-.23.45-.48.54z"/><path class="st12" d="M53.42 25.47c-.2.07-.34.24-.39.42.07-.12.18-.21.32-.26.34-.13.71.05.84.38.05.14.05.28.01.42a.65.65 0 0 0-.78-.96z"/><path class="st11" d="M50.53 24.73c.01.23-.19.43-.44.44-.25.01-.46-.17-.47-.4-.01-.23.19-.43.44-.44.26-.02.47.16.47.4z"/><path class="st12" d="M50.09 25.28c-.3.01-.55-.21-.56-.48 0-.08.01-.15.04-.21-.06.08-.09.18-.08.29.01.28.26.49.56.48.22-.01.4-.13.48-.31a.54.54 0 0 1-.44.23z"/><path class="st12" d="M50.07 24.32c-.15.01-.27.08-.35.18.07-.06.17-.09.27-.1.25-.01.46.17.47.4 0 .1-.03.18-.08.26.11-.08.17-.2.17-.34a.454.454 0 0 0-.48-.4z"/><path class="st11" d="M55.91 28.77c.3.49.15 1.12-.33 1.41-.48.29-1.1.13-1.4-.36-.3-.49-.15-1.12.33-1.41.48-.29 1.11-.13 1.4.36z"/><path class="st12" d="M55.71 30.45c-.57.34-1.31.15-1.66-.43-.1-.16-.15-.33-.17-.5-.01.24.05.49.18.71.35.58 1.1.78 1.66.43.41-.25.62-.72.56-1.18-.02.39-.22.76-.57.97z"/><path class="st12" d="M54.52 28.41c-.28.17-.44.46-.47.77.08-.2.21-.38.41-.5.48-.29 1.1-.13 1.4.36.12.2.17.43.15.64.11-.29.09-.62-.08-.91-.31-.49-.94-.65-1.41-.36z"/><path class="st11" d="M54.4 22.63c.09.57-.33 1.12-.95 1.22-.62.1-1.19-.28-1.29-.85-.09-.57.33-1.12.95-1.22.62-.11 1.19.28 1.29.85z"/><path class="st12" d="M53.46 24.15c-.74.12-1.42-.34-1.53-1.02-.03-.19-.01-.37.04-.54-.12.22-.16.48-.12.74.11.68.8 1.14 1.53 1.02.54-.09.95-.45 1.09-.91-.19.36-.55.63-1.01.71z"/><path class="st12" d="M53.11 21.77c-.36.06-.66.27-.82.56.17-.16.39-.28.64-.32.62-.1 1.19.28 1.29.85.04.23-.01.46-.13.66.24-.23.36-.56.31-.9-.1-.56-.67-.95-1.29-.85z"/></g><path class="st0" d="M60.85 19.54c3.21 1.79 5.33 4.6 5.98 7.9.65 3.3-.25 6.72-2.54 9.64-2.33 2.97-5.8 5.06-9.78 5.87-3.98.81-7.97.26-11.24-1.57-3.21-1.79-5.33-4.6-5.98-7.9-1.35-6.89 4.17-13.85 12.31-15.51 1.45-.3 2.89-.41 4.31-.35 2.49.1 4.86.75 6.94 1.92zm-5.72 25.57c4.53-.91 8.49-3.28 11.17-6.65 2.72-3.43 3.78-7.5 3-11.45-.78-3.95-3.32-7.29-7.14-9.4-3.76-2.08-8.32-2.72-12.85-1.8-9.42 1.9-15.77 10.02-14.16 18.1.78 3.95 3.32 7.29 7.14 9.4 2.4 1.33 5.13 2.07 7.97 2.19 1.59.07 3.23-.06 4.87-.39z"/><path class="st5" d="M49.34 16.01c4.48-.91 9-.27 12.71 1.78 3.77 2.09 6.27 5.38 7.04 9.26l.2-.04-.2.04c.77 3.89-.27 7.89-2.96 11.28-2.64 3.34-6.56 5.67-11.05 6.58-1.62.33-3.24.45-4.83.38-2.81-.12-5.51-.85-7.88-2.17-3.77-2.09-6.27-5.38-7.04-9.26-1.57-7.93 4.68-15.97 14.01-17.85zm5.79 29.1l.04.2c4.57-.92 8.58-3.31 11.28-6.72 2.75-3.47 3.83-7.6 3.04-11.61-.8-4.01-3.37-7.4-7.24-9.53-3.8-2.1-8.41-2.75-12.98-1.82-9.49 1.92-15.95 10.12-14.32 18.33.8 4.01 3.37 7.4 7.24 9.53l.09-.17-.09.17c2.43 1.34 5.19 2.09 8.05 2.21 1.62.07 3.28-.06 4.93-.39l-.04-.2zm-1.2-27.69c-1.43-.06-2.9.05-4.36.35l.04.2-.04-.2c-8.22 1.68-13.85 8.72-12.47 15.75l.19-.04-.19.04c.66 3.36 2.82 6.21 6.07 8.03 3.31 1.85 7.35 2.41 11.37 1.59 4.02-.82 7.54-2.93 9.89-5.95 2.31-2.96 3.23-6.44 2.58-9.8-.66-3.36-2.82-6.21-6.07-8.03-2.1-1.18-4.51-1.83-7.01-1.94zm6.92 2.12l-.1.17c3.16 1.77 5.24 4.52 5.88 7.76.63 3.24-.25 6.6-2.5 9.48-2.3 2.93-5.72 4.99-9.66 5.8-3.94.8-7.88.25-11.1-1.55-3.16-1.77-5.24-4.52-5.88-7.76-1.32-6.75 4.09-13.63 12.16-15.28 1.43-.29 2.86-.41 4.26-.35 2.45.11 4.79.75 6.84 1.89l.1-.16z"/><g class="st9"><path class="st0" d="M56.4 37.48c.01.17-.12.32-.29.33-.17.01-.32-.12-.33-.29s.12-.32.29-.33c.17-.01.32.12.33.29zM54.76 39.63c.01.17-.12.32-.29.33s-.32-.12-.33-.29c-.01-.17.12-.32.29-.33.17-.01.32.12.33.29zM61.04 19.87c.01.09-.11.16-.29.16-.17 0-.33-.06-.34-.15-.01-.09.11-.16.29-.16.18-.01.33.06.34.15zM66.5 26.4c0 .13-.05.24-.11.25-.07.01-.12-.09-.12-.22s.05-.24.11-.25c.07 0 .12.09.12.22zM63.17 32.35c.01.17-.12.32-.29.33-.17.01-.32-.12-.33-.29s.12-.32.29-.33a.3.3 0 0 1 .33.29zM46.81 22.36c.01.15-.1.28-.26.29-.15.01-.28-.1-.29-.26-.01-.15.1-.28.26-.29.15-.01.28.11.29.26zM49.87 34.91c.01.08-.1.14-.25.14s-.28-.06-.3-.13c-.01-.08.1-.14.25-.14.16 0 .29.06.3.13zM45.77 35.22c.01.15-.1.28-.26.29-.15.01-.28-.1-.29-.26-.01-.15.1-.28.26-.29.15 0 .28.11.29.26zM50.71 38.38c0 .06-.02.12-.06.13-.03.01-.06-.04-.06-.11 0-.06.02-.12.06-.13.03 0 .06.05.06.11zM59.33 34.46s-.05 0-.12.01c-.06 0-.12.01-.12.01s.05 0 .12-.01c.07-.01.12-.01.12-.01zM62.05 37.87c.01.11-.07.2-.18.21-.11.01-.2-.07-.21-.18-.01-.11.08-.2.18-.21.11-.01.2.07.21.18zM68.24 31.08c.01.26-.12.49-.3.51-.17.02-.32-.17-.33-.43-.01-.26.12-.49.3-.51.17-.03.32.17.33.43zM64.84 29.22c.01.15-.1.28-.26.29-.15.01-.28-.1-.29-.26-.01-.15.1-.28.26-.29.15-.01.28.11.29.26zM62.49 33.93s-.07 0-.16.01-.16.01-.16.01.07 0 .16-.01.16-.01.16-.01zM62.71 26.98c.01.17-.12.32-.29.33a.312.312 0 0 1-.33-.29c-.01-.17.12-.32.29-.33.17-.01.32.12.33.29zM62.84 22.9c.01.17-.12.32-.29.33a.312.312 0 0 1-.33-.29c-.01-.17.12-.32.29-.33.16-.02.31.12.33.29zM65.45 19.69c.01.09-.11.16-.29.16-.17 0-.32-.06-.34-.15s.11-.16.29-.16.33.07.34.15zM47.46 31.59c0-.01-.01-.03-.03-.02-.01 0-.02.01-.02.03s.01.03.03.02c.01 0 .03-.01.02-.03zM45.39 27.55c.01.09-.06.16-.15.17-.09.01-.16-.06-.17-.15-.01-.09.06-.16.15-.17.09 0 .16.07.17.15zM44.38 29.61c0-.01-.01-.03-.01-.02-.01 0-.01.01-.01.03 0 .01.01.03.01.02 0-.01.01-.02.01-.03zM42.84 28.49a.235.235 0 1 1-.47.03.235.235 0 1 1 .47-.03zM42.77 30.86c0-.04-.04-.08-.08-.07-.04 0-.08.04-.07.08 0 .04.04.08.08.07.04 0 .07-.04.07-.08zM46.11 34.72c0 .03-.04.05-.1.05-.06 0-.11-.02-.11-.05 0-.03.04-.05.1-.05.05 0 .1.02.11.05zM46.03 37.11c.01.14-.1.27-.24.28-.14.01-.27-.1-.28-.24-.01-.14.1-.27.24-.28.14-.02.27.09.28.24zM48.24 37.06c.01.07-.05.13-.12.14a.14.14 0 0 1-.14-.12c0-.07.05-.13.12-.14.07-.01.13.05.14.12zM53.31 35.62c0 .06-.04.11-.1.11-.06 0-.11-.04-.11-.1 0-.06.04-.11.1-.11.06 0 .11.04.11.1zM49.32 32.42c.01.1-.07.19-.17.2-.1.01-.19-.07-.2-.17-.01-.1.07-.19.17-.2.11-.01.2.07.2.17zM58.65 35.79c0 .06-.04.11-.1.11-.06 0-.11-.04-.11-.1 0-.06.04-.11.1-.11.06 0 .11.04.11.1zM59.18 39.1c.01.14-.1.27-.24.28-.14.01-.27-.1-.28-.24-.01-.14.1-.27.24-.28.14-.02.27.09.28.24zM53.87 37.88c.01.08-.05.15-.13.15a.132.132 0 0 1-.15-.13c-.01-.08.05-.15.13-.15.07-.01.14.05.15.13zM65.63 24.22a.291.291 0 1 1-.31-.27c.16-.01.29.11.31.27zM57.3 19.05c0 .04-.03.08-.07.08-.04 0-.08-.03-.08-.07 0-.04.03-.08.07-.08.04 0 .07.03.08.07zM66.27 33.9c0 .1-.04.19-.09.2-.05.01-.09-.07-.1-.17 0-.1.04-.19.09-.2.05-.01.09.07.1.17zM62.02 28.99c0 .06-.04.12-.11.13a.13.13 0 0 1-.13-.11c0-.06.04-.12.11-.13.07-.01.12.04.13.11zM68.94 28.84c.01.03-.04.06-.11.06-.06 0-.12-.02-.13-.06-.01-.03.04-.06.11-.06s.13.03.13.06zM62.46 34.93c.01.03-.04.06-.11.06-.06 0-.12-.02-.13-.06 0-.03.04-.06.11-.06.06 0 .12.02.13.06zM61.56 23.63c0 .06-.04.12-.11.13-.06 0-.12-.04-.13-.11 0-.07.04-.12.11-.13.07-.01.12.04.13.11zM61.42 17.99c.01.09-.06.16-.15.17-.09.01-.16-.06-.17-.15-.01-.09.06-.16.15-.17.09 0 .16.07.17.15z"/></g><path d="M39.24 35.04c2.73 5.59 11.01 7.69 18.48 4.68.86-.35 1.67-.75 2.42-1.19-6.85 1.85-13.85-.35-16.32-5.41-2.42-4.95.32-10.98 6.16-14.38-.72.2-1.45.44-2.16.72-7.47 3.02-11.32 9.99-8.58 15.58z" fill-rule="evenodd" clip-rule="evenodd" fill="#fff" fill-opacity=".2"/><path class="st0" d="M17.78 59.83c-.42-2.19-.56-1.56-1.54-2.69-.69-.8-.57-.81-1.01-1.27-1.66-1.74-3.39-2.08-5.49-2.77-1.43-.47-3.6-.65-4.35-.83-.75-.18-2.98.35-2.77 2.53-.71.58-1.98 1.44-1.15 2.7-.52.33-1.34 1.64-.9 2.64-.26.27-.58.95-.08 1.71.36.54 1.28 1.12 2.27 1.65 1.95 1.04 2.33.94 2.33.94s4.48 2.66 5.52 2.71c1.03.05 2.97.34 4.22-1.36 2.27-2.04 2.95-5.96 2.95-5.96z"/><path class="st5" d="M17.99 59.83l-.01-.04c-.21-1.09-.35-1.53-.6-1.83-.1-.12-.22-.22-.34-.33a.435.435 0 0 0-.07-.06c-.15-.13-.34-.29-.57-.56-.34-.39-.48-.59-.59-.74 0-.01-.01-.01-.01-.02-.11-.15-.19-.28-.41-.51-1.45-1.53-2.98-2.01-4.69-2.54-.29-.09-.58-.18-.88-.28-.73-.24-1.65-.41-2.46-.53-.27-.04-.52-.08-.75-.11-.5-.07-.9-.13-1.15-.19-.22-.05-.53-.05-.86.01-.33.06-.7.19-1.03.39-.66.4-1.2 1.12-1.13 2.23-.02.02-.05.04-.08.06-.33.26-.76.6-1.04 1.01-.17.24-.29.52-.3.84-.01.27.05.55.2.83-.26.23-.54.61-.73 1.04-.01.01-.01.02-.01.04v-.03c-.1.19-.24.38-.3.62-.06.23-.08.47-.07.71.01.16.07.31.14.44-.11.19-.2.45-.2.74 0-.01-.01-.01-.01-.02 0 .18-.04.36.01.56.04.2.16.37.27.54.24.32.52.58.81.81.59.47 1.22.85 1.87 1.19.58.3 1.3.65 2.15.62.02.01.03.02.05.03.13.07.3.18.52.3.44.25 1.03.59 1.66.92.63.34 1.29.68 1.86.93.29.13.55.24.78.32.22.08.43.13.59.14.09 0 .19.01.29.02 1.07.07 2.88.19 4.08-1.45 1.16-1.06 1.91-2.58 2.37-3.82.23-.63.39-1.19.49-1.59.05-.2.09-.37.11-.48.01-.06.02-.1.03-.13l.01-.03v-.01l-.2-.04.2.03v-.03zM2.58 55.1c.03-.02.05-.04.08-.06.16.51.47.81.75 1.11.63.6 1.3 1.08 1.98 1.53.66.43 1.47.97 2.48.95.07 0 .13-.02.2-.03-.1.3-.23.58-.42.76-.25.25-.55.3-.89.27-.7-.07-1.4-.46-2.16-.8-.75-.35-1.49-.68-2.18-1.08-.33-.21-.68-.43-.85-.72-.08-.13-.13-.3-.14-.48.03-.18.1-.36.21-.53.23-.36.6-.66.94-.92zm-1.56 5.97c.77.54 1.57.91 2.39 1.25.78.32 1.71.72 2.76.61l.16-.03c-.11.29-.24.56-.42.73-.21.2-.42.24-.67.22-.25-.02-.54-.12-.83-.25-.15-.06-.29-.14-.44-.21l-.48-.24-1.91-.92c-.31-.16-.63-.31-.9-.49-.02-.01-.03-.03-.05-.04-.25-.42-.23-.79-.12-1.07.16.17.33.31.51.44zm16.56-1.23c-.01.03-.01.07-.03.12-.02.11-.06.27-.11.46-.1.39-.25.94-.48 1.55-.45 1.22-1.18 2.68-2.28 3.67l-.02.01-.01.02c-1.07 1.46-2.66 1.36-3.75 1.3-.11-.01-.21-.01-.3-.02-.1 0-.26-.04-.48-.12-.21-.07-.47-.18-.75-.31-.56-.25-1.21-.59-1.84-.92-.62-.33-1.21-.67-1.65-.92-.06-.04-.12-.07-.17-.1.09-.04.18-.08.27-.14.2-.15.33-.35.41-.54.13-.36.11-.71 0-1.03.18-.04.36-.1.53-.2.24-.15.44-.36.55-.59.22-.48.19-.97.04-1.38-.09.43-.25.83-.5 1.08-.25.25-.56.3-.91.28a4.24 4.24 0 0 1-1.1-.28c-.36-.14-.76-.32-1.16-.49-.8-.34-1.62-.64-2.36-.98-.36-.18-.71-.37-.82-.59l-.03-.09c-.02-.32.05-.65.19-.96.17-.37.39-.67.58-.85.15.24.34.44.53.62.67.63 1.43 1.06 2.21 1.43.76.34 1.61.74 2.62.65.25-.03.51-.1.76-.24.24-.14.44-.37.57-.61.12-.26.18-.52.18-.78 2.08 3.57 6.2 3.95 7.75 2.14-1.61.7-3.73-.31-5.1-1.58 0 0-.7-.24-2.5-.96.07-.03.14-.05.21-.09.23-.15.42-.35.54-.58.23-.45.27-.92.19-1.36-.16.41-.35.79-.62 1.03-.25.25-.54.29-.84.24-.3-.05-.63-.21-.95-.39-.31-.19-.63-.4-.98-.64-.68-.45-1.39-.86-2.05-1.27-.31-.21-.66-.44-.81-.67-.12-.25-.17-.6-.18-.95.16-.45.46-.78.81-1 .29-.18.61-.29.9-.34.29-.06.54-.05.69-.02.27.06.71.13 1.22.2.23.03.47.07.72.11.82.13 1.7.29 2.4.52.31.1.61.2.9.29 1.71.54 3.13.99 4.51 2.43.2.21.27.32.37.46 0 .01.01.01.01.02.11.16.26.37.61.78.25.29.45.47.62.61.03.02.05.04.08.06.12.1.21.17.28.27.19.23.32.56.53 1.64z"/><path class="st0" d="M14.75 55.39c-.52-.36-.45-.97-.95-2.46-.7-2.12-.74-2.44-.76-4.8-.02-2.36-2.48-.83-2.88-.13-.4.7-.68 2.67-.55 3.09.53 1.66.59 2.12.59 2.12"/><path class="st5" d="M14.45 54.51c-.03-.11-.07-.25-.11-.4-.08-.33-.19-.75-.36-1.26-.35-1.06-.53-1.66-.63-2.28-.1-.62-.11-1.27-.13-2.46-.01-.63-.17-1.05-.48-1.27-.3-.22-.68-.22-1.04-.12s-.73.29-1.03.51c-.3.21-.55.46-.68.68-.07.13-.14.29-.2.47-.17.4-.37.97-.42 1.44-.04.36-.03.63.01.92v.15c0 .1.02.2.04.28l.21.66c.1.38.21.84.35 1.47l1.66.69c-.35-.45-.84-1.54-.98-1.79-.79-1.49-.74-2.63-.7-2.99.03-.15.06-.31.1-.45.08-.28.16-.52.25-.67.07-.13.27-.34.55-.54.27-.19.6-.37.9-.45.31-.08.57-.06.75.07.18.13.32.4.33.96.01 1.18.03 1.86.13 2.52.1.66.3 1.28.64 2.34.17.5.26.89.35 1.21.04.16.08.3.11.43.11.4.24.69.56.91l.22-.36c-.2-.11-.3-.3-.4-.67z"/><path class="st0" d="M89.19 53.2c2.97 4.86 2.67 10.49-.66 12.58-4.37 2.74-8.86-.85-11.41-5.01-2.97-4.86-2.67-10.49.66-12.58s8.44.15 11.41 5.01z"/><path class="st6" d="M89.05 66.29c1.87-1.15 2.98-3.24 3.12-5.89.13-2.53-.64-5.29-2.19-7.77-1.55-2.48-3.69-4.4-6.03-5.41-2.44-1.06-4.82-1-6.69.15-3.76 2.32-4.18 8.44-.93 13.66 1.5 2.4 3.42 4.31 5.41 5.37 1.15.61 2.3.93 3.44.97 1.33.04 2.63-.32 3.87-1.08zM13.34 68.19a.835.835 0 0 1-.47-.32.806.806 0 0 1 .18-1.14c.6-.43 1.17-1.34 2.48-3.71 1.22-2.2 1.69-3.88 1.8-4.34.11-.44.56-.7 1.01-.59.45.11.72.56.61 1-.16.65-.68 2.42-1.96 4.73-1.36 2.45-2.05 3.6-2.96 4.24-.2.15-.46.19-.69.13z"/><path d="M81.8 48.48l.02.15h-.03l-.03-.01.04-.14zm3.1.33l.05-.14-.05.14zm20.22 7.61l-.05.14.05-.14zm.27.1l-.04.14h-.02l.06-.14zm3.61 3.69l-.14.04.14-.04zm5.57 19.88l.15-.04-.15.04zm-3.57 6.7l.04.14-.04-.14zm-6.49-3.68l-.14.04.14-.04zm-4.12-14.69l.05-.14.07.03.02.07-.14.04zm-11.21-4.21l-.11-.1.07-.07.09.04-.05.13zm-.94.77l-.08-.13.08.13zm-5.71.04l-.07.13.07-.13zm-4.83-4.74l.13-.08-.13.08zm.38-11.29l-.08-.13.08.13zm3.7-.66c1.04-.15 2.13-.06 3.17.34l-.11.28c-1-.37-2.03-.47-3.02-.32l-.04-.3zm3.17.34l20.22 7.61-.11.28-20.22-7.61.11-.28zm20.22 7.61c.09.03.18.07.27.11l-.12.28c-.08-.04-.17-.07-.26-.1l.11-.29zm.26.1c1.73.5 3.18 1.89 3.72 3.79l-.29.08c-.51-1.8-1.88-3.11-3.51-3.59l.08-.28zm3.71 3.79l5.57 19.88-.29.08-5.57-19.88.29-.08zm5.58 19.88c.82 2.93-.83 6.03-3.68 6.89l-.09-.29c2.68-.81 4.25-3.74 3.47-6.52l.3-.08zm-3.68 6.89c-2.85.86-5.85-.85-6.67-3.78l.29-.08c.78 2.78 3.61 4.38 6.3 3.57l.08.29zm-6.67-3.78l-4.12-14.69.29-.08 4.12 14.69-.29.08zm-4.03-14.6l-11.22-4.22.11-.28 11.22 4.22-.11.28zm-11.05-4.25c-.29.31-.61.58-.97.8l-.15-.26c.34-.2.64-.45.91-.74l.21.2zm-.98.79c-1.83 1.11-3.81 1.12-5.86.05l.14-.27c1.96 1.02 3.83 1 5.56-.04l.16.26zm-5.85.06c-1.78-.93-3.52-2.64-4.89-4.8l.25-.16c1.35 2.13 3.05 3.79 4.78 4.69l-.14.27zm-4.89-4.8c-1.41-2.23-2.08-4.62-2.01-6.7.07-2.08.88-3.85 2.45-4.8l.15.26c-1.45.87-2.23 2.54-2.3 4.55-.07 2.01.58 4.35 1.96 6.53l-.25.16zm.43-11.5c.79-.48 1.71-.7 2.7-.67l-.01.3c-.94-.03-1.8.18-2.54.62l-.15-.25zm2.7-.66c.37.01.75.06 1.13.14l-.06.29c-.37-.08-.73-.12-1.08-.13l.01-.3z" fill="#d2d8d9"/><path class="st4" d="M114.8 80.88c1.23.77 2.19 1.92 2.86 3.19.68 1.28 1.01 2.74.99 4.19-.05 1.44-.34 2.88-.99 4.16l-.22.49c-.09.16-.18.31-.27.46l-.57.9c-.19.32-.48.59-.75.81-.28.23-.58.44-.91.59.26-.25.47-.52.67-.8.2-.29.39-.54.48-.86l.37-.95.19-.47.14-.48c.09-.32.19-.64.29-.95l.19-.97c.08-.32.1-.65.14-.97.04-.32.08-.65.05-.97.04-1.3-.2-2.59-.66-3.83-.44-1.24-1.11-2.44-2-3.54z"/><path class="st0" d="M81.8 48.48c1.01-.15 2.08-.05 3.1.33l20.22 7.61c.09.03.18.07.27.11 1.68.49 3.09 1.84 3.61 3.69l5.57 19.88c.8 2.85-.81 5.87-3.57 6.7-2.77.83-5.68-.82-6.48-3.68l-4.12-14.69-11.22-4.22c-.28.3-.59.56-.94.77-1.79 1.08-3.71 1.09-5.71.05-1.75-.92-3.47-2.6-4.83-4.74-2.8-4.41-2.63-9.47.39-11.29.76-.46 1.65-.67 2.62-.64.35 0 .72.04 1.09.12z"/><path class="st0" d="M104.93 84.18c-.95 1.64-2.55 5.12-2.67 5.8s.21 2.75 1.92 2.12c1.71-.63 1.83-1.22 2.6-.6.78.61.52 2.47.28 3.74s.33 2.27 1.51 2.4c.19.02.46.01.78-.03.41.13.57.12 1.12.09.72-.05 1.11-.44 1.42-.66.31-.22.72-.13 1.08-.25.51-.17.67-.44.82-.57.28-.24.62-.2.87-.36.28-.18.51-.37.65-.56.93-1.25 3.1-3.63 2.65-8.45-.44-4.82-3.48-6.29-3.48-6.29l-9.55 3.62z"/><path class="st4" d="M115.37 90.05c.21.54.3 1.1.32 1.66.03.56-.02 1.12-.13 1.67-.12.55-.3 1.1-.59 1.61-.28.51-.69 1-1.24 1.27h-.01c-.01.01-.03 0-.04-.01-.01-.01 0-.02 0-.03.39-.39.66-.88.87-1.38.2-.5.34-1.03.45-1.56.22-1.06.31-2.14.31-3.23 0-.01.01-.03.03-.03.02 0 .03.01.03.03zM113.29 90.3c.26.62.4 1.27.46 1.93.07.66.04 1.33-.07 1.99-.12.66-.31 1.32-.66 1.92-.33.59-.88 1.15-1.53 1.31h-.01c-.01 0-.03-.01-.03-.02s0-.02.01-.03c.53-.33.92-.86 1.17-1.44.26-.58.41-1.2.51-1.83.22-1.26.22-2.55.09-3.82 0-.02.01-.03.02-.03.02-.01.03 0 .04.02zM111.16 90.86c.23.62.34 1.26.39 1.9.05.64.01 1.28-.09 1.92-.13.64-.3 1.29-.68 1.88-.19.3-.42.59-.74.81-.29.24-.73.34-1.09.31h-.01c-.02 0-.03-.02-.03-.03 0-.01.01-.02.02-.02.69-.12 1.13-.69 1.38-1.24.26-.57.41-1.18.51-1.8.22-1.23.27-2.48.26-3.73 0-.02.01-.03.03-.03.04.01.05.01.05.03zM102.58 91.17c.21.21.36.49.53.64.17.16.27.15.42.13.16-.03.36-.09.56-.19.21-.08.42-.2.64-.31.22-.1.44-.24.67-.34.24-.12.42-.21.75-.35.23-.09.44-.06.61.02.17.07.31.18.42.31.22.26.34.58.36.9l-.06.03c-.1-.26-.26-.49-.47-.65-.2-.15-.47-.25-.68-.14-.43.29-.88.59-1.35.84-.47.23-.96.47-1.5.43-.27-.02-.52-.22-.65-.48s-.2-.54-.31-.8l.06-.04z"/><path class="st5" d="M115.36 95.42c.92-1.25 3.04-3.65 2.61-8.5-.33-3.74-2.18-5.46-3-6.06a4.86 4.86 0 0 0-.16-.83l-5.64-19.66a5.318 5.318 0 0 0-3.49-3.6c-.19-.1-.39-.19-.6-.27l-20.04-7.69c-2.42-.93-5.07-.19-6.71 1.65.93-.49 2.26-.9 3.83-.57 3.16.66 22.42 8.68 22.42 8.68s2.17 1.42 3.31 4.81c1.14 3.39 4.68 18.33 4.68 18.33s4.17 2.31 4.66 5.79c.36 2.55-1.6 5.85-2.5 8.48.27-.18.49-.37.63-.56z"/><path class="st6" d="M104.83 84.34a.831.831 0 0 1-.71-.44c-.21-.4-.06-.89.35-1.1.67-.34 2.54-1.21 5.44-1.86.74-.17 1.36-.32 1.9-.45 1.75-.42 2.72-.65 3.84-.5.45.06.77.48.71.92a.82.82 0 0 1-.94.69c-.81-.11-1.61.08-3.21.47-.55.13-1.18.28-1.93.45-2.79.62-4.57 1.47-5.04 1.72-.13.08-.27.11-.41.1z"/><path class="st5" d="M95.62 94.43c.99 4.23-1.81 18.79-7.58 25.43-3.7 4.27-1.68 4.28 2.38 4.97 4.06.69 10.44 3.69 11.43 3.44.99-.25 1.42-1.93 1.42-1.93s.77-2.62-5.31-4.21c-4.6-1.21-4.64-1.03-4.64-1.03s4.31-7.07 6.12-10.79c1.81-3.71-3.82-15.88-3.82-15.88z"/><path class="st4" d="M79.08 146.13c.76-.05 1.52-.18 2.21-.48.69-.29 1.29-.76 1.75-1.33.92-1.16 1.33-2.67 1.73-4.17.08-.31.39-.49.69-.41.3.08.48.4.4.71-.01.02-.01.05-.02.07-.29.74-.59 1.48-.97 2.2-.37.72-.83 1.42-1.41 1.99-.58.58-1.3 1-2.06 1.21-.78.22-1.56.26-2.32.21z"/><path class="st5" d="M110.59 137.13c-.62-6.17.46-8.18-5.77-10.22l-1.61-.46-1.4 1.92s.86.54 2.96 2.7 2.83 11.32-.96 17.3c-3.11 4.91-5.79 5.64-7.37 5.59 1.01.32 2.26.44 3.85.26 5.72-.63 11.33-4.56 10.3-17.09z"/><path class="st4" d="M92.12 141.68c1.8.3 3.56.02 5-.76 1.44-.81 2.56-2.1 3.4-3.6.87-1.49 1.48-3.18 2.05-4.89.55-1.73 1-3.51 1.53-5.32.15 1.88.05 3.77-.29 5.65-.33 1.87-.89 3.74-1.88 5.43-.95 1.69-2.43 3.24-4.29 3.94-1.87.7-3.95.52-5.52-.45z"/><path class="st6" d="M102.66 124.24c.25.12.46.34.62.57.16.24.27.49.37.75.2.51.29 1.04.38 1.57.13 1.05.16 2.1.04 3.15-.19 2.14-.88 4.14-1.88 6.04-.53.93-1.16 1.81-1.87 2.63-.38.39-.77.77-1.18 1.13-.41.36-.86.69-1.34.97-.94.58-2.01.99-3.14 1.13-.57.05-1.15.04-1.7-.11-.27-.08-.54-.18-.78-.32a3.19 3.19 0 0 1-.64-.51l-.01-.01a.091.091 0 0 1 0-.12c.03-.03.07-.03.1-.01.84.48 1.88.46 2.79.18.93-.26 1.79-.74 2.57-1.33 1.56-1.18 2.78-2.76 3.73-4.46.95-1.71 1.67-3.56 2.07-5.47.2-.96.32-1.93.36-2.91.02-.49.01-.98-.06-1.46-.07-.47-.19-.97-.53-1.28-.03-.03-.04-.09-.01-.12s.07-.04.1-.02l.01.01z"/><g><path class="st5" d="M91.83 140.87c-4.2-1.57-8.48-2.88-12.6-4.5-2.04-.83-4.07-1.71-5.81-2.94-.87-.61-1.67-1.29-2.32-2.08-.54-.65-.84-1.7-1.05-2.72-.42-2.09-.52-4.3-.57-6.5-.06-2.21.01-4.42.06-6.65.14-4.44.42-8.9.6-13.37-.88 4.39-1.52 8.82-1.91 13.29-.21 2.23-.31 4.48-.34 6.74.01 2.26.08 4.52.52 6.82.12.57.27 1.15.48 1.73.21.57.5 1.18.94 1.7.79.92 1.7 1.71 2.69 2.34 1.98 1.27 4.1 2.14 6.24 2.85 4.31 1.43 8.68 2.39 13.07 3.29z"/><path class="st5" d="M78.32 100.49c-1.27.41-2.51.72-3.78 1.01-1.25.3-2.52.55-3.77.73-.31.05-.62.07-.93.09-.32.02-.57.02-.91-.02-.65-.06-1.3-.11-1.93-.19-1.28-.12-2.53-.42-3.81-.8 1.11.72 2.38 1.24 3.68 1.55.65.15 1.3.28 1.95.39.3.05.71.11 1.04.11.35.01.69-.01 1.03-.05.68-.06 1.34-.18 1.99-.34.65-.15 1.29-.36 1.92-.57.63-.23 1.24-.49 1.84-.8.58-.31 1.17-.65 1.68-1.11z"/></g></svg>