<svg version="1.1" id="Layer_1" xmlns="http://www.w3.org/2000/svg" x="0" y="0" viewBox="0 0 109 57" xml:space="preserve"><style>.st0{fill:#d5d5db}.st1{fill:#fff}</style><path class="st0" d="M104.7 55.7c1.9-.4 3.1-2.1 2.8-3.8-.4-1.7-2.2-2.6-4.1-2.2-1.9.4-3.1 2.1-2.8 3.8.4 1.7 2.3 2.7 4.1 2.2z"/><path class="st1" d="M104.4 55.2c1.6-.4 2.7-1.8 2.4-3.3-.3-1.5-1.9-2.3-3.6-2-1.6.4-2.7 1.8-2.4 3.3.4 1.5 2 2.4 3.6 2z"/><g><path class="st0" d="M98 40.9c-1.2 5.9-6.4 10.4-12.6 10.4-3.7 0-7.1-1.6-9.5-4.2-1 5-8.1 8.8-16.8 8.9-8.1 0-14.9-3.4-16.5-7.9-2.8 2.1-8 3.7-13.9 3.7-8.4 0-15.4-3-16.1-6.8C5.7 45 0 39.2 0 32.1 0 25 5.6 19.3 12.5 19.3c.8 0 1.5.1 2.3.2.6-7 6.4-12.5 13.3-12.5 1.4 0 2.8.2 4 .6C34.7 3.2 39.4.2 44.8.2c4.1 0 7.7 1.7 10.4 4.4C59 2 62.5 0 68 0c4.6 0 9.8 1.2 14 5.3 0 0 1.3-.5 2.3-.6 7.5-.7 12.5 5.6 11 11h.3c7.3 0 13.4 5.7 13.4 12.7-.1 6.2-4.8 11.4-11 12.5z"/><path class="st1" d="M96.3 40.5c-1.1 5.7-6.3 10-12.4 10-3.7 0-6.7-1.8-9.1-4.2-.9 4.7-8.1 8.6-16.6 8.7-8 0-14.6-3.3-16.1-7.6-2.7 2.1-7.8 3.5-13.6 3.5-8.3 0-15-2.8-15.8-6.5C5.9 44.4.4 38.9.4 32c0-6.8 5.5-12.4 12.3-12.4.8 0 1.5.1 2.3.2.6-6.8 6.2-12.1 13-12.1 1.4 0 2.7.2 3.9.6C34.5 4 39 1.1 44.3 1.1c3.9 0 7.6 1.6 10.2 4.3C58.3 2.9 61.6 1 66.9 1c4.5 0 9.5 1.1 13.6 5.1 0 0 1.3-.5 2.3-.6C90.1 4.9 95 11 93.5 16.2h.3c7.2 0 13 5.5 13 12.3.1 5.9-4.5 10.9-10.5 12z"/></g></svg>