<?xml version="1.0" encoding="utf-8"?>
<!-- Generator: Adobe Illustrator 16.0.0, SVG Export Plug-In . SVG Version: 6.00 Build 0)  -->
<!DOCTYPE svg PUBLIC "-//W3C//DTD SVG 1.1//EN" "http://www.w3.org/Graphics/SVG/1.1/DTD/svg11.dtd">
<svg version="1.1" id="Layer_1" xmlns="http://www.w3.org/2000/svg" xmlns:xlink="http://www.w3.org/1999/xlink" x="0px" y="0px"
	 width="400px" height="212.778px" viewBox="0 0 400 212.778" enable-background="new 0 0 400 212.778" xml:space="preserve">
<path fill="#D6D6D6" d="M400,176.698H241.725c22.428-14.408,37.365-39.479,37.365-68.061c0-7.854-1.182-15.563-3.388-23.007
	c10.061-11.61,19.1-22.682,26.653-32.766c27.122-36.202,25.54-45.907,21.128-50.319c-3.068-3.059-12.308-12.239-76.116,41.805
	c-13.989-10.763-31.179-16.725-49.289-16.725h-2.667l-12.558,22.358l31.548,5.525l-3.706,7.799l-24.392-1.144l-14.399,13.196
	L158.826,63.19l-6.696-0.533l3.565-24.077l-9.148,7.548c-18.731,15.462-29.479,38.245-29.479,62.51
	c0,18.114,5.958,35.3,16.72,49.285c-5.835,6.892-10.886,13.104-15.325,18.775L0,176.684v8.351l82.424,0.073l-14.213,11.209
	l18.083,2.907l-19.295,7.239l-4.07,6.314l41.08-15.321l-24.465-3.93l4.463-3.342l8.276-5.142h48.525l4.449,12.162h12.691
	l12.375,13.926l22.592-5.247l3.829-5.55l-24.812,5.741l-11.938-13.424H148.37l-2.671-7.604h24.482l17.555,11.069l32.651-2.316
	l24.884,3.388l5.074-3.937l-29.808-4.028l-31.716,2.244l-9.632-6.42H400V176.698z M260.838,44.984
	c-1.253,2.001-2.867,4.357-4.841,7.057c-0.542-0.557-1.099-1.104-1.654-1.646C256.571,48.516,258.746,46.707,260.838,44.984z
	 M126.176,108.642c0-17.067,5.99-33.309,16.751-46.141l-1.249,8.47l13.247,1.053l16.925,15.749l17.81-16.319l26.662,1.249
	l11.446-24.108l-30.669-5.365l3.61-6.437c19.022,0.688,36.69,8.82,49.659,22.627c-10.457,13.229-26.707,31.604-48.31,53.205
	c-21.602,21.603-39.977,37.854-53.2,48.31C134.412,147.374,126.176,128.667,126.176,108.642z M134.412,171.41
	c1.718-2.093,3.533-4.262,5.41-6.491c0.539,0.561,1.081,1.112,1.642,1.66C138.77,168.546,136.413,170.161,134.412,171.41z
	 M172.164,176.711h-29.251c3.537-2.415,7.699-5.503,12.695-9.482c15.042-11.982,33.828-29.086,52.895-48.149
	c19.068-19.063,36.166-37.853,48.15-52.895C271.779,47.2,274.7,39.706,272.698,35.48c28.335-22.008,40.976-26.653,44.212-26.334
	c1.444,9.304-31.243,57.043-96.277,122.069C203.065,148.787,186.792,163.925,172.164,176.711z M185.899,176.703
	c13.352-11.976,27.241-25.113,41.18-39.052c14.806-14.806,28.764-29.579,41.317-43.688c0.999,4.805,1.563,9.704,1.563,14.679
	c0,31.602-20.526,58.446-48.92,68.061H185.899z"/>
</svg>
