<svg version="1.1" id="Layer_1" xmlns="http://www.w3.org/2000/svg" x="0" y="0" viewBox="0 0 121.57 118" xml:space="preserve"><style>.st0{fill:#f5b810}.st1{fill:#fff}</style><path class="st0" d="M120.63 40.97c-.53 0-3.15-.16-3.15-3.43 0-.39-.33-.71-.65-.71h-.01a.622.622 0 0 0-.49.14c-.15.14-.25.33-.25.54 0 3.33-2.83 3.43-3.15 3.43h-.03c-.4 0-.72.33-.72.74 0 .39.33.71.72.71.32 0 3.15.1 3.15 3.43 0 .39.33.71.72.71.39 0 .72-.33.72-.71 0-3.33 2.83-3.43 3.24-3.43.38-.05.65-.34.65-.71-.03-.37-.36-.71-.75-.71zm-2.48.72c-.46.28-.95.71-1.35 1.34a4.22 4.22 0 0 0-1.36-1.33c.46-.28.95-.71 1.35-1.34.34.53.79.98 1.36 1.33zM23.4 112.43c-.53 0-3.15-.16-3.15-3.43 0-.39-.33-.71-.65-.71h-.01a.633.633 0 0 0-.49.14c-.15.14-.25.33-.25.54 0 3.33-2.83 3.43-3.15 3.43h-.03a.73.73 0 1 0 0 1.46c.32 0 3.15.1 3.15 3.43 0 .39.33.71.72.71s.72-.32.72-.71c0-3.33 2.83-3.43 3.23-3.43.38-.05.65-.34.65-.72a.76.76 0 0 0-.74-.71zm-2.48.71c-.46.28-.95.71-1.35 1.34a4.22 4.22 0 0 0-1.36-1.33c.46-.28.95-.71 1.35-1.34.34.54.79.99 1.36 1.33zM5.37 17.09c0 .48.41.89.88.89.48 0 .89-.41.89-.89 0-4.94 4.21-5.08 4.69-5.08h.09c.47-.06.8-.43.8-.88 0-.48-.41-.88-.88-.88-.48 0-4.69-.14-4.69-5.08 0-.48-.4-.88-.83-.88h-.01a.7.7 0 0 0-.6.16c-.19.16-.31.41-.31.66 0 4.94-4.21 5.08-4.69 5.08H.67c-.48 0-.88.42-.88.92 0 .48.41.88.88.88.48.01 4.7.16 4.7 5.1zm-1.33-5.96c.76-.43 1.6-1.1 2.24-2.21.52.91 1.27 1.65 2.25 2.2-.76.43-1.6 1.1-2.24 2.21-.51-.92-1.27-1.65-2.25-2.2z"/><path class="st1" d="M86.79 51.74c-8.45 0-16.33 4.51-20.65 11.79l-9.27-6.2v-9.8c12.66-.54 22.9-11.13 22.9-23.75C79.76 10.66 69.05 0 55.89 0 42.73 0 32.01 10.66 32.01 23.76c0 12.63 10.24 23.22 22.9 23.75v9.8l-9.36 6.21c-4.23-7.28-12.1-11.79-20.65-11.79C11.74 51.74 1.02 62.4 1.02 75.5c0 13.11 10.71 23.77 23.88 23.77 13.17 0 23.87-10.66 23.87-23.77 0-3.61-.76-7.01-2.26-10.1l9.38-6.22 9.29 6.22c-1.48 3.06-2.26 6.55-2.26 10.1 0 13.11 10.71 23.77 23.87 23.77s23.88-10.66 23.88-23.77c-.01-13.1-10.73-23.76-23.88-23.76zm21.82 23.76c0 11.98-9.8 21.74-21.84 21.74S64.94 87.49 64.94 75.5c0-11.98 9.8-21.73 21.83-21.73s21.84 9.75 21.84 21.73zM77.63 23.76c0 11.98-9.8 21.73-21.83 21.73s-21.84-9.74-21.84-21.73c0-11.98 9.8-21.73 21.84-21.73 12.04.01 21.83 9.76 21.83 21.73zM46.64 75.5c0 11.98-9.8 21.74-21.83 21.74S2.98 87.48 2.98 75.5c0-11.98 9.8-21.73 21.83-21.73s21.83 9.75 21.83 21.73z"/><path class="st1" d="M9.25 52.87c.15.22.38.38.65.44l.17.01c.53 0 .97-.41.97-.83 1.91-11.84 8.25-22.21 17.85-29.17.42-.28.55-.92.27-1.47-.28-.42-.93-.55-1.48-.26C17.62 28.96 11.02 39.8 9.1 52.08c-.07.27-.02.55.15.79zM100.79 52.52c.12.48.51.8.96.8l.17-.01c.56-.14.93-.7.8-1.19-1.83-12.31-8.43-23.16-18.58-30.53l-.01-.01c-.41-.27-1.07-.25-1.47.27-.27.42-.25 1.07.26 1.46 9.71 7.05 16.05 17.41 17.87 29.21zM73.07 98.44c-10.84 4.99-23.01 5.5-34.3 1.42-.47-.12-1 .09-1.27.51l-.05.11c-.12.47.09.99.58 1.3 5.37 1.94 10.81 2.91 16.2 2.91 6.77 0 13.39-1.47 19.69-4.38.47-.24.68-.73.52-1.36-.29-.54-.86-.76-1.37-.51z"/><path class="st0" d="M106.2 29.89c.94 0 1.71-.76 1.71-1.7s-.76-1.7-1.71-1.7c-.94 0-1.71.76-1.71 1.7s.77 1.7 1.71 1.7zM2.61 32.61c.94 0 1.71-.76 1.71-1.7s-.76-1.7-1.71-1.7c-.94 0-1.71.76-1.71 1.7.01.94.77 1.7 1.71 1.7z"/><path class="st1" d="M65.39 31.72v-.09c-.27-.81-.45-1.54-.73-2.26-.64-1.99-2.45-3.17-4.73-2.98h-.82V24.4c.55-.54 1.09-1.27 1.36-2.17.64-.18 1-1.09 1-2.17 0-.81-.27-1.54-.64-1.9.09-.45.09-.9.18-1.45.18-2.71-.64-3.17-2.09-3.53h-.27c-1-.36-2.09-.45-2.82-.45s-1.82.09-2.82.45l-.27.09c-1.36.45-2.18.9-2.09 3.53 0 .45.09.9.18 1.45-.36.36-.64 1.09-.64 1.9 0 1.09.45 1.9 1 2.17.36.9.82 1.63 1.36 2.17v1.99h-.82c-2.27-.18-4.09.99-4.73 2.89-.27.72-.45 1.45-.73 2.26V32.08l.09.09.09.09.09.09.09.09h17.99s.09 0 .09-.09c0 0 .09 0 .09-.09l.09-.09.09-.09v-.09-.18c.41 0 .41-.09.41-.09zM52.48 21.5c-.09-.18-.18-.36-.36-.45-.09 0-.18-.09-.27-.09-.09-.18-.18-.45-.18-.81 0-.45.09-.81.18-.9.27-.09.36-.36.45-.63v-.27c-.09-.54-.09-1.09-.18-1.54-.09-1.81.09-1.9 1.09-2.17l.27-.09c.73-.18 1.54-.36 2.36-.36.91 0 1.73.09 2.36.36l.27.09c1 .27 1.18.36 1.09 2.17 0 .54-.09 1.09-.18 1.54v.36c0 .27.18.45.45.54.09.09.18.45.18.9 0 .36-.09.72-.18.81-.09 0-.18 0-.27.09-.18.09-.27.27-.36.45-.55 1.81-1.91 2.98-3.45 2.98-1.36.01-2.72-1.17-3.27-2.98zm-4.09 8.23c.45-1.36 1.73-2.08 3.36-1.99.45 0 .91.09 1.36.09.18 0 .27 0 .36-.09.36 0 .64-.36.64-.63v-1.63c.55.27 1.18.45 1.82.45.64 0 1.27-.18 1.82-.45v1.63c0 .27.18.54.55.63.09.09.27.09.45.09.45 0 .91 0 1.36-.09 1.64-.09 2.91.63 3.36 1.99.18.45.27.9.45 1.36h-15.9c.1-.45.28-.91.37-1.36zM97.19 83.28v-.09c-.27-.81-.45-1.54-.73-2.26-.64-1.99-2.45-3.17-4.73-2.98h-.82v-1.99c.55-.54 1.09-1.27 1.36-2.17.64-.18 1-1.09 1-2.17 0-.81-.27-1.54-.64-1.9.09-.45.09-.9.18-1.45.18-2.71-.64-3.17-2.09-3.53h-.27c-1-.36-2.09-.45-2.82-.45s-1.82.09-2.82.45l-.27.09c-1.36.45-2.18.9-2.09 3.53 0 .45.09.9.18 1.45-.36.36-.64 1.09-.64 1.9 0 1.09.45 1.9 1 2.17.36.9.82 1.63 1.36 2.17v1.99h-.82c-2.27-.18-4.09.99-4.73 2.89-.27.72-.45 1.45-.73 2.26V83.64l.09.09.09.09.09.09.13.09h17.99s.09 0 .09-.09c0 0 .09 0 .09-.09l.09-.09.09-.09v-.09-.18c.37 0 .37-.09.37-.09zm-12.9-10.22c-.09-.18-.18-.36-.36-.45-.09 0-.18-.09-.27-.09-.09-.18-.18-.45-.18-.81 0-.45.09-.81.18-.9.27-.09.36-.36.45-.63v-.27c-.09-.54-.09-1.09-.18-1.54-.09-1.81.09-1.9 1.09-2.17l.27-.09c.73-.18 1.54-.36 2.36-.36.91 0 1.73.09 2.36.36l.27.09c1 .27 1.18.36 1.09 2.17 0 .54-.09 1.09-.18 1.54v.36c0 .27.18.45.45.54.09.09.18.45.18.9 0 .36-.09.72-.18.81-.09 0-.18 0-.27.09-.18.09-.27.27-.36.45-.55 1.81-1.91 2.98-3.45 2.98-1.37 0-2.73-1.17-3.27-2.98zm-4.09 8.23c.45-1.36 1.73-2.08 3.36-1.99.45 0 .91.09 1.36.09.18 0 .27 0 .36-.09.36 0 .64-.36.64-.63v-1.63c.55.27 1.18.45 1.82.45.64 0 1.27-.18 1.82-.45v1.63c0 .27.18.54.55.63.09.09.27.09.45.09.45 0 .91 0 1.36-.09 1.64-.09 2.91.63 3.36 1.99.18.45.27.9.45 1.36h-15.9c.09-.46.28-.91.37-1.36zM34.49 83.28v-.09c-.27-.81-.45-1.54-.73-2.26-.64-1.99-2.45-3.17-4.73-2.98h-.82v-1.99c.55-.54 1.09-1.27 1.36-2.17.64-.18 1-1.09 1-2.17 0-.81-.27-1.54-.64-1.9.09-.45.09-.9.18-1.45.18-2.71-.64-3.17-2.09-3.53h-.27c-1-.36-2.09-.45-2.82-.45s-1.82.09-2.82.45l-.27.09c-1.36.45-2.18.9-2.09 3.53 0 .45.09.9.18 1.45-.36.36-.64 1.09-.64 1.9 0 1.09.45 1.9 1 2.17.36.9.82 1.63 1.36 2.17v1.99h-.82c-2.27-.18-4.09.99-4.73 2.89-.27.72-.45 1.45-.73 2.26V83.64l.09.09.09.09.09.09.13.09h17.99s.09 0 .09-.09c0 0 .09 0 .09-.09l.09-.09.09-.09v-.09-.18c.37 0 .37-.09.37-.09zm-12.9-10.22c-.09-.18-.18-.36-.36-.45-.09 0-.18-.09-.27-.09-.09-.18-.18-.45-.18-.81 0-.45.09-.81.18-.9.27-.09.36-.36.45-.63v-.27c-.09-.54-.09-1.09-.18-1.54-.09-1.81.09-1.9 1.09-2.17l.27-.09c.73-.18 1.54-.36 2.36-.36.91 0 1.73.09 2.36.36l.27.09c1 .27 1.18.36 1.09 2.17 0 .54-.09 1.09-.18 1.54v.36c0 .27.18.45.45.54.09.09.18.45.18.9 0 .36-.09.72-.18.81-.09 0-.18 0-.27.09-.18.09-.27.27-.36.45-.55 1.81-1.91 2.98-3.45 2.98-1.37 0-2.73-1.17-3.27-2.98zm-4.09 8.23c.45-1.36 1.73-2.08 3.36-1.99.45 0 .91.09 1.36.09.18 0 .27 0 .36-.09.36 0 .64-.36.64-.63v-1.63c.55.27 1.18.45 1.82.45.64 0 1.27-.18 1.82-.45v1.63c0 .27.18.54.55.63.09.09.27.09.45.09.45 0 .91 0 1.36-.09 1.64-.09 2.91.63 3.36 1.99.18.45.27.9.45 1.36h-15.9c.09-.46.28-.91.37-1.36z"/></svg>