<svg version="1.1" id="Layer_1" xmlns="http://www.w3.org/2000/svg" x="0" y="0" viewBox="0 0 155.05 110" xml:space="preserve"><style>.st0{fill:#fff}.st1{fill:#f5b810}</style><path class="st0" d="M153.86 101.36l-14.24-16.82c-.99-1.17-2.51-1.69-4.07-1.41l-3.01-3.57c3.92-4.55 5.47-10.51 4.27-16.38l13.24-13.21c.51-.51.8-1.22.8-1.92 0-.65-.25-1.25-.8-1.92-.5-.48-1.16-.76-1.87-.76-.71 0-1.38.27-1.87.76l-11.52 11.51c-.59-1-1.26-2.07-2.12-3.01-.78-.85-1.82-1.94-2.99-2.79-1.16-.84-2.16-1.45-3.1-1.89V15.3c0-3.29-2.68-5.98-5.98-5.98H53.19c-3.3 0-5.98 2.68-5.98 5.98v88.53c0 3.29 2.68 5.97 5.98 5.97h55.73c.15 0 .27-.12.39-.24l16.82-16.82c.24-.24.33-.58.24-.89v-.01c.09-.12.09-.25.09-.34v-7.36l.34-.17c.44-.21.88-.43 1.29-.68l3.01 3.65c-.14.32-.23.67-.31.99l-.05.21c-.09 1.04.26 2.13.99 3.07l14.24 16.9c.98 1.17 2.45 1.87 3.94 1.87 1.21 0 2.39-.41 3.35-1.18 1.04-.85 1.67-2.11 1.77-3.54.1-1.53-.27-2.82-1.17-3.9zm-30.48-8.37l-13.94 13.92V92.99h13.94zm30.03 11.96c-.19.93-.64 1.75-1.29 2.3-.73.54-1.57.83-2.47.83-.99-.09-1.79-.51-2.28-1.18l-.12-.18 5.22-4.39.11.15c.55.74.83 1.58.83 2.47zm-28.77-55.58c-6.49-2.37-13.7-1.06-18.88 3.44-3.88 3.29-6.17 7.88-6.45 12.9-.38 5 1.23 9.88 4.53 13.77a18.99 18.99 0 0 0 14.36 6.54c2.27 0 4.49-.4 6.45-1.17v6.41h-16.03c-.45 0-.91.34-.91.91v15.99H53.19c-2.34 0-4.26-1.9-4.26-4.25V32.54h75.71v16.83zM105.1 78.42c-2.98-3.44-4.46-7.88-4.17-12.51.28-4.45 2.36-8.62 5.87-11.74 3.21-2.76 7.26-4.16 11.31-4.16 3.64 0 7.27 1.12 10.31 3.4.93.65 1.88 1.5 2.74 2.46.98 1.19 1.64 2.16 2.13 3.12l-13.2 13.19-7.92-7.83c-1.02-1.02-2.73-1.02-3.75 0-.51.51-.8 1.22-.8 1.92 0 .71.29 1.41.8 1.92l10.99 10.98c.12.12.34.24.58.24.25 0 .47-.12.58-.24l14.61-14.5c.83 5.76-1.38 11.64-5.84 15.45-.21.22-.44.38-.71.58l-.22.17c-7.16 5.39-17.4 4.31-23.31-2.45zm43.57-29.6L120.1 77.26l-10.41-10.4c-.33-.33-.33-.99 0-1.32.15-.15.4-.25.66-.25s.51.09.66.25l8.51 8.5c.34.34.92.34 1.26 0l26.57-26.55c.33-.33.99-.33 1.32 0 .15.15.25.39.25.66.01.28-.1.51-.25.67zm2.58 52.32l-5.22 4.39-13.1-15.45c-.8-1.06-.64-2.61.37-3.52l1.52-1.24c.44-.34.98-.54 1.54-.54.76 0 1.37.3 1.89.9l13 15.46zm-19.98-20.31l2.58 3.02-1.61 1.35-.18.18-2.58-3.01 1.79-1.54zM48.93 30.71V15.3c0-2.34 1.9-4.25 4.26-4.25h67.21c2.34 0 4.24 1.9 4.24 4.25v15.42H48.93v-.01zM42.82 26.38a.56.56 0 0 0-.12-.27l-3.82-8.67c-.11-.26-.35-.43-.69-.45a.929.929 0 0 0-.92.44l-3.82 8.67c-.12.14-.12.37-.02.59v78.67c0 2.46 2 4.44 4.44 4.44h.58c2.46 0 4.44-2 4.44-4.44v-78.7l-.01-.07-.06-.21zm-7.38-.53l2.64-5.89 2.64 5.89h-5.28zm-.37 70.86V27.57h6.02v69.14h-6.02zm0 4.4v-2.67h6.02v2.67h-6.02zm6.02 1.72v2.53c0 1.5-1.22 2.72-2.72 2.72h-.58c-1.5 0-2.72-1.22-2.72-2.72v-2.53h6.02z"/><path class="st0" d="M38.08 65.67c-.45 0-.91.34-.91.91v3.83c0 .57.46.91.91.91s.91-.34.91-.91v-3.83c0-.44-.34-.91-.91-.91zM38.08 36.92c-.45 0-.91.34-.91.91v3.83c0 .57.46.91.91.91s.91-.34.91-.91v-3.83c0-.45-.34-.91-.91-.91zM38.08 46.57c-.45 0-.91.34-.91.91v3.81c0 .46.45.91.91.91.45 0 .91-.34.91-.91v-3.81c0-.45-.34-.91-.91-.91zM38.08 56.13c-.45 0-.91.34-.91.91v3.83c0 .57.46.91.91.91s.91-.34.91-.91v-3.83c0-.45-.34-.91-.91-.91zM38.08 75.32c-.45 0-.91.34-.91.91v3.83c0 .46.45.91.91.91.45 0 .91-.34.91-.91v-3.83c0-.44-.34-.91-.91-.91zM38.08 84.87c-.45 0-.91.34-.91.91v3.83c0 .57.46.91.91.91s.91-.34.91-.91v-3.83c0-.45-.34-.91-.91-.91zM65.99 42h51.05c.45 0 .91-.34.91-.91 0-.45-.34-.91-.91-.91H65.99c-.45 0-.91.34-.91.91s.46.91.91.91zM59.98 44.58c1.9 0 3.39-1.49 3.39-3.4s-1.49-3.4-3.39-3.4c-1.9 0-3.4 1.49-3.4 3.4-.01 1.91 1.49 3.4 3.4 3.4zm-1.67-3.4c0-.92.74-1.67 1.67-1.67.92 0 1.67.74 1.67 1.67 0 .87-.79 1.67-1.67 1.67-.93 0-1.67-.75-1.67-1.67zM65.99 54.79h34.12c.45 0 .91-.34.91-.91 0-.45-.34-.91-.91-.91H65.99c-.45 0-.91.34-.91.91 0 .46.45.91.91.91zM59.98 57.28c1.9 0 3.39-1.49 3.39-3.4 0-1.9-1.49-3.39-3.39-3.39-1.9 0-3.4 1.49-3.4 3.39-.01 1.9 1.49 3.4 3.4 3.4zm-1.67-3.4c0-.92.74-1.67 1.67-1.67.92 0 1.67.74 1.67 1.67s-.74 1.67-1.67 1.67c-.93 0-1.67-.75-1.67-1.67zM65.99 67.5H96.2c.45 0 .91-.34.91-.91 0-.45-.34-.91-.91-.91H65.99c-.45 0-.91.34-.91.91 0 .46.45.91.91.91zM59.98 69.98c1.9 0 3.39-1.49 3.39-3.4s-1.49-3.4-3.39-3.4c-1.9 0-3.4 1.49-3.4 3.4s1.49 3.4 3.4 3.4zm-1.67-3.39c0-.92.74-1.67 1.67-1.67.92 0 1.67.74 1.67 1.67s-.74 1.67-1.67 1.67c-.93-.01-1.67-.75-1.67-1.67zM65.99 80.21h34.12c.45 0 .91-.34.91-.91 0-.57-.36-.91-.91-.91H65.99c-.45 0-.91.34-.91.91 0 .56.46.91.91.91zM59.98 82.69c1.9 0 3.39-1.49 3.39-3.39 0-1.84-1.56-3.4-3.39-3.4-1.9 0-3.4 1.49-3.4 3.4-.01 1.9 1.49 3.39 3.4 3.39zm-1.67-3.31c0-.92.74-1.67 1.67-1.67.92 0 1.67.74 1.67 1.67 0 .87-.79 1.67-1.67 1.67a1.66 1.66 0 0 1-1.67-1.67zM65.99 92.99h38.14c.45 0 .91-.34.91-.94-.11-.43-.44-.87-.91-.87H65.99c-.45 0-.91.34-.91.91 0 .44.34.9.91.9zM59.98 95.49c1.9 0 3.39-1.49 3.39-3.4s-1.49-3.4-3.39-3.4c-1.9 0-3.4 1.49-3.4 3.4s1.49 3.4 3.4 3.4zm-1.67-3.4c0-.92.74-1.67 1.67-1.67.92 0 1.67.74 1.67 1.67 0 .87-.79 1.67-1.67 1.67-.93-.01-1.67-.75-1.67-1.67zM117.04 16.87H82.05c-.45 0-.91.34-.91.94.11.54.46.89.91.89h34.99c.45 0 .91-.34.91-.91 0-.46-.34-.92-.91-.92zM117.04 22.98H82.05c-.45 0-.91.34-.91.91 0 .57.46.91.91.91h34.99c.45 0 .91-.34.91-.91 0-.56-.34-.91-.91-.91zM68.67 18.3H64l-1.41-4.49a.87.87 0 0 0-.8-.58c-.35 0-.7.25-.82.58l-1.41 4.48H54.9c-.35 0-.7.25-.8.58-.06.18-.06.38 0 .54.06.19.19.33.35.39l3.63 2.69-1.41 4.48c-.06.18-.06.38 0 .54.06.19.19.33.35.39.14.12.35.12.46.12.2 0 .34 0 .47-.12l3.74-2.7 3.75 2.72c.17.11.34.17.51.17.18 0 .34-.06.51-.17.34-.22.46-.58.34-.93l-1.41-4.49 3.74-2.7c.33-.22.46-.57.34-.93a.835.835 0 0 0-.8-.57zm-5.12 4.11l.82 2.53-2.1-1.54c-.14-.14-.38-.14-.48-.14-.11 0-.34 0-.47.12l-2.21 1.57.82-2.54c.12-.35 0-.8-.35-.94l-2.1-1.54h2.61c.37 0 .7-.24.82-.58l.82-2.53.82 2.53c.11.33.45.58.8.58h2.71l-2.12 1.55c-.37.22-.5.58-.39.93z"/><path class="st1" d="M15.88 93.61c0 .4.3.72.71.78h.08c.44 0 4.24.13 4.24 4.63 0 .43.37.79.79.79.43 0 .79-.35.79-.79 0-4.5 3.82-4.63 4.24-4.63.43 0 .79-.35.79-.79 0-.45-.35-.83-.79-.83h-.04c-.44 0-4.24-.13-4.24-4.63 0-.22-.11-.45-.27-.59a.6.6 0 0 0-.52-.15h-.01c-.38 0-.73.35-.73.78 0 4.5-3.82 4.63-4.24 4.63-.44.01-.8.37-.8.8zm5.8-2.02a5.288 5.288 0 0 0 2.06 2.03c-.9.51-1.58 1.18-2.06 2.02a5.288 5.288 0 0 0-2.06-2.03c.89-.51 1.58-1.18 2.06-2.02zM145.82 12.42c.43 0 .79-.35.79-.79 0-4.5 3.82-4.63 4.24-4.63.43 0 .79-.35.79-.79 0-.45-.35-.83-.79-.83h-.04c-.44 0-4.24-.13-4.24-4.63 0-.22-.11-.45-.27-.59a.6.6 0 0 0-.52-.15h-.01c-.38 0-.73.35-.73.78 0 4.5-3.82 4.62-4.24 4.62-.43 0-.79.37-.79.79 0 .4.29.72.71.78h.08c.44 0 4.24.13 4.24 4.63-.01.46.34.81.78.81zm-2.1-6.2c.9-.51 1.58-1.18 2.06-2.02a5.288 5.288 0 0 0 2.06 2.03c-.9.51-1.58 1.18-2.06 2.02a5.418 5.418 0 0 0-2.06-2.03zM0 72.26c0 .52.37.92.91 1H1c.64 0 6.25.19 6.25 6.79 0 .54.46 1 1 1s1-.46 1-1c0-6.6 5.61-6.79 6.25-6.79.54 0 1-.46 1-1 0-.58-.45-1.06-1-1.06h-.06c-.64 0-6.25-.19-6.25-6.79 0-.28-.13-.57-.34-.76a.877.877 0 0 0-.65-.19c-.5 0-.95.46-.95 1 0 6.6-5.61 6.79-6.25 6.79-.54 0-1 .47-1 1.01zm8.2-3.18c.9 1.68 2.15 2.63 3.23 3.19-1.44.77-2.53 1.83-3.24 3.18a7.529 7.529 0 0 0-3.23-3.19c1.46-.77 2.55-1.83 3.24-3.18zM137.1 24.58c1.14 0 2.07-.93 2.07-2.07 0-1.14-.93-2.07-2.07-2.07-1.14 0-2.07.93-2.07 2.07 0 1.15.93 2.07 2.07 2.07z"/></svg>