<svg version="1.1" id="Layer_1" xmlns="http://www.w3.org/2000/svg" x="0" y="0" viewBox="0 0 148.06 110" xml:space="preserve"><style>.st0{fill:#f5b810}.st1{fill:#fff}</style><path class="st0" d="M10.61 6.98c0 .44.32.79.78.85h.09c.48 0 4.65.14 4.65 5.07 0 .47.4.87.87.87s.87-.39.87-.87c0-4.93 4.18-5.07 4.65-5.07.47 0 .87-.39.87-.87 0-.49-.39-.91-.87-.91h-.04c-.48 0-4.65-.14-4.65-5.07 0-.25-.12-.49-.3-.65-.17-.14-.38-.21-.57-.17h-.01c-.41 0-.8.39-.8.85 0 4.93-4.18 5.07-4.64 5.07-.5.04-.9.44-.9.9zm6.34-2.22a5.78 5.78 0 0 0 2.25 2.22c-.98.56-1.73 1.29-2.25 2.21a5.78 5.78 0 0 0-2.25-2.22c.98-.54 1.73-1.28 2.25-2.21zM141.68 104.64c.47 0 .87-.39.87-.87 0-4.93 4.18-5.07 4.65-5.07.47 0 .87-.39.87-.87 0-.49-.39-.91-.87-.91h-.04c-.48 0-4.65-.14-4.65-5.07 0-.25-.12-.49-.3-.65-.17-.14-.38-.21-.57-.17h-.01c-.41 0-.8.39-.8.85 0 4.93-4.18 5.06-4.65 5.06-.46 0-.87.4-.87.87 0 .44.32.79.78.85h.09c.48 0 4.65.14 4.65 5.07-.02.53.38.91.85.91zm-2.29-6.78c.98-.56 1.73-1.29 2.25-2.21a5.78 5.78 0 0 0 2.25 2.22c-.98.56-1.73 1.29-2.25 2.21-.65-1.11-1.5-1.8-2.25-2.22zM4.05 69.31c0 .57.4 1.01 1 1.1h.1c.7 0 6.84.21 6.84 7.44 0 .59.5 1.1 1.1 1.1.6 0 1.1-.5 1.1-1.1 0-7.23 6.15-7.44 6.84-7.44.6 0 1.1-.5 1.1-1.1 0-.63-.49-1.16-1.1-1.16h-.06c-.7 0-6.84-.21-6.84-7.44 0-.31-.14-.62-.38-.83a.91.91 0 0 0-.71-.21c-.54 0-1.04.5-1.04 1.1 0 7.23-6.15 7.44-6.84 7.44-.6 0-1.11.5-1.11 1.1zm8.99-3.49a8.188 8.188 0 0 0 3.53 3.49c-1.58.84-2.77 2-3.55 3.48a8.188 8.188 0 0 0-3.53-3.49c1.59-.83 2.78-2.01 3.55-3.48zM124.37 83.06c1.25 0 2.26-1.01 2.26-2.26s-1.01-2.26-2.26-2.26c-1.25 0-2.26 1.01-2.26 2.26s1.01 2.26 2.26 2.26zM2.26 19.34c1.25 0 2.26-1.01 2.26-2.26 0-1.25-1.01-2.26-2.26-2.26S0 15.82 0 17.07s1.01 2.27 2.26 2.27z"/><path class="st1" d="M58.86 10.36h13.72c.45 0 .93-.35.93-.93 0-.47-.35-.93-.93-.93H58.86c-.45 0-.93.35-.93.97.11.55.46.89.93.89zM82.23 10.36h2.32c.45 0 .93-.35.93-.93 0-.47-.35-.93-.93-.93h-2.32c-.47 0-.93.35-.93.93-.01.58.47.93.93.93zM76.82 10.36h2.32c.45 0 .93-.35.93-.93 0-.47-.35-.93-.93-.93h-2.32c-.47 0-.93.35-.93.93 0 .58.48.93.93.93zM62.53 104.49h18.54c1.16 0 2.17-.76 2.47-1.86.22-.87.08-1.67-.4-2.33-.31-.62-1.13-1.06-1.98-1.06H62.62c-.8 0-1.63.39-2.16 1.03-.48.67-.62 1.49-.41 2.35a2.542 2.542 0 0 0 2.48 1.87zm19.45-2.44c-.09.34-.41.57-.82.57H62.62c-.4 0-.72-.23-.82-.57-.08-.22 0-.54.17-.72.14-.21.35-.31.63-.31h18.54c.19 0 .44.13.66.34.23.2.27.4.18.69zM96.33 12.87c1.81 0 3.35-1.54 3.35-3.35s-1.54-3.35-3.35-3.35-3.35 1.54-3.35 3.35 1.54 3.35 3.35 3.35zm-1.58-3.44c0-.75.67-1.58 1.58-1.58.88 0 1.58.7 1.58 1.58 0 .87-.71 1.58-1.58 1.58-.88 0-1.58-.7-1.58-1.58zM35.67 43.42c.5.09.93.16 1.45.16.52 0 .96-.08 1.45-.16l.19-.04c.18 0 .35-.1.48-.26.16-.21.22-.47.16-.71-.12-.49-.6-.81-1.06-.7-.85.19-1.79.19-2.64 0-1.01-.22-1.79-.53-2.37-.94-.67-.41-1.26-1.03-1.79-1.88-.49-.79-.75-1.54-.84-2.44-.08-.76-.03-1.6.19-2.55.16-.72.56-1.55 1.13-2.35.63-.85 1.32-1.46 2.07-1.89 1-.56 1.82-.88 2.67-1.05.85-.19 1.79-.19 2.64 0 1.01.22 1.79.53 2.37.94.67.41 1.26 1.03 1.77 1.86l.04.08c.12.23.38.71.62 1.73.27 1 .1 2-.45 2.75-.34.45-.71.76-1.09.92-.44.18-.78.26-1.01.1-.39-.23-.6-1.19-.6-1.78 0-.06.01-.12.04-.18.03-.09.06-.22.06-.36.3-1.59.39-2.85.39-2.92 0-.48-.26-.81-.74-.93-.01 0-.05-.01-.1-.01-2.95-.44-5.27.41-6.51 2.41-.83 1.24-1.09 2.64-.7 3.7.19.88.79 1.63 1.54 1.94.41.21.83.31 1.23.31 1.15 0 2.56-.72 3.53-1.8.23.5.54.87.93 1.1.56.34 1.46.59 2.65.01.7-.3 1.31-.8 1.8-1.5.91-1.2 1.19-2.73.8-4.29-.26-.96-.53-1.62-.71-2.08l-.08-.18a7.517 7.517 0 0 0-2.26-2.37 7.4 7.4 0 0 0-3.05-1.18c-1.07-.19-2.17-.19-3.34 0-1.26.21-2.32.63-3.25 1.28a8.26 8.26 0 0 0-2.56 2.35c-.69.88-1.18 1.88-1.48 2.95-.32 1.16-.38 2.24-.19 3.25.09 1.05.47 2.13 1.09 3.16a7.554 7.554 0 0 0 5.31 3.56h.22zm3.97-10.94c-.09.53-.18 1.27-.26 1.97 0 .05 0 .22-.05.27l-.05.05v.09h-.04l-.05.09c-.04.08-.06.14-.09.19-.03.08-.04.12-.08.14l-.05.05v.06c0 .01-.04.08-.06.12-.04.05-.08.12-.12.19-.41.76-1.27 1.46-2.08 1.69-.4.12-.74.1-.98-.03-.31-.16-.49-.39-.69-.87-.19-.66.03-1.58.56-2.29.96-1.53 2.68-1.76 3.62-1.76h.43v.04z"/><path class="st1" d="M145.36 64.42l-9.37-41.18c0-.27-.14-.5-.38-.62l-.16-.01c-.02-.03-.09-.09-.21-.09h-.32l-27.52 6.13V12.24C107.41 5.5 101.92 0 95.17 0H48.62c-.49 0-.98 0-1.35.1-.19 0-.31 0-.52.09-.3.01-.57.1-.85.19-.22.01-.44.12-.62.21-.08.04-.18.06-.3.08-.13.03-.26.05-.39.12-.18.09-.35.17-.5.17l-.08.01c-.05.03-.1.05-.14.08-.12.08-.18.12-.27.12h-.06c-.48.19-.96.48-1.44.76-.08.01-.13.06-.14.09h-.05l-.04.03c-.16.1-.27.19-.4.3-.12.09-.23.18-.4.3-.03.01-.07.03-.11.05-.05.03-.12.06-.19.13-.09.09-.21.18-.32.28-.13.1-.25.19-.35.3l-.18.21c-.39.39-.79.89-1.16 1.35a.45.45 0 0 0-.1.14l-.14-.01v.17c-.03.03-.08.08-.09.16a12.057 12.057 0 0 0-1.94 6.62V22.9c-1.54.12-3.04.5-4.45 1.16-3.09 1.5-5.38 4.04-6.46 7.14-2.04 5.64.18 11.96 5.29 15.11-.04.48-.4 1.38-.75 2.25-.12.23-.12.49 0 .72.12.22.23.35.47.47l.06.01a.2.2 0 0 1 .08.03c.05.03.13.06.22.06.52 0 1.19-.38 2.5-1.18l.26-.16c.41-.25.97-.59 1.23-.69l.14.03c.45.08.85.14 1.31.16v49.76c0 6.74 5.49 12.24 12.24 12.24h47.62c.19 0 .31 0 .52-.1.1 0 .19-.03.28-.05.09-.03.17-.04.25-.04.12 0 .21-.03.3-.05.06-.03.12-.04.19-.04.23 0 .44-.1.63-.21.14-.05.27-.1.39-.14.12-.05.23-.09.4-.15.09-.04.16-.06.22-.09.08-.03.16-.05.26-.1.09-.04.16-.06.22-.09.08-.03.16-.05.26-.1.05-.03.1-.05.14-.08.1-.06.17-.1.27-.1h.07l.05-.05c.03-.03.08-.04.13-.05.09-.03.18-.06.23-.12.14-.09.27-.15.41-.23.14-.08.3-.16.48-.27.03-.03.05-.04.08-.05a.38.38 0 0 0 .16-.17c.08-.06.17-.13.27-.18.13-.08.26-.15.38-.27l.17-.17c.28-.19.48-.38.67-.65h.08l.05-.05c.15-.16.27-.3.4-.44.12-.14.23-.29.4-.45l.58-.87.03-.03v-.05c.03-.03.08-.08.09-.15.18-.29.38-.57.48-.87h.04l.05-.08c.13-.19.22-.4.32-.61.05-.12.1-.23.18-.38.65-1.4.98-3.01.98-4.8V73.94l37.21-8.46c.12 0 .19-.03.22-.09h.04l.05-.05c.01-.03.04-.04.05-.05a.36.36 0 0 0 .18-.3c.27-.04.3-.19.3-.25l-.05-.32zm-2.14-1.54l-25.59-14.32 17.07-23.13 8.52 37.45zm-52.74-6.99l12.9 6.88c.59.36 1.28.41 1.63.41 1.11 0 2.12-.5 2.83-1.42L116.55 50l25.49 14.2-68.42 15.55 16.86-23.86zm13.74 5.34l-39.5-21.04 68.3-15.55-26.59 36.05c-.51.69-1.38.9-2.21.54zM32.48 47.19c.41-1.51.03-2.08-.39-2.29-4.68-2.63-6.77-8.15-4.96-13.13.94-2.74 2.94-4.94 5.62-6.18 1.45-.67 3.07-1.05 4.57-1.05 1.33 0 2.55.22 3.71.67 2.74.94 4.94 2.94 6.18 5.61 1.22 2.61 1.35 5.47.38 8.28-1.8 5.01-7.12 7.99-12.38 6.95-.62-.12-1.23.19-2.61 1.09-.05.02-.08.04-.12.05zm5.68.81c4.89-.35 9.3-3.67 11-8.3 1.16-3.09.98-6.53-.49-9.69-1.5-3.09-4.04-5.38-7.14-6.45-1.35-.45-2.39-.66-3.36-.69v-7.01h67.48v13.22l-43.68 9.91c-.14 0-.22.04-.25.14-.05.03-.08.08-.1.14l-.21.21v.78l9.37 41.18c0 .13.01.18.1.26v.03c0 .16.1.22.17.26.03.01.05.04.08.05l.05.05v.1h.69l33.9-7.68v18.75H38.16V48zm50.69 7.15L71.98 79.02l-8.53-37.43 25.4 13.56zM39.88 6.27l.09.06c.38-.57.76-1.05 1.14-1.42l.19-.19.58-.58.19-.19c.17-.17.43-.35.61-.44.09-.01.14-.06.14-.09h.05l.04-.04c.22-.17.48-.3.76-.44.19-.1.39-.19.58-.31l.03-.04c.03-.03.08-.04.13-.05.08-.03.17-.05.23-.12.08-.04.16-.05.25-.08.1-.03.21-.05.32-.1.08-.04.17-.06.26-.09s.19-.05.3-.09c.1 0 .18-.03.26-.05.06-.03.12-.04.19-.04l.05-.01c.26-.09.44-.09.72-.09.1 0 .3 0 .44-.1.17 0 .34-.03.52-.04.21-.03.43-.05.67-.05h46.64c5.77 0 10.45 4.69 10.45 10.46V14H38.16v-1.86c0-2.02.62-4.02 1.81-5.79l-.09-.08zm65.75 88.75v2.73c0 1.67-.4 3.29-1.24 4.95l-.07.01-.04.1c-.09.25-.26.43-.44.61l-.12.12c-.18.27-.36.45-.54.63l-.04.04c-.18.27-.36.45-.66.75l-.85.85c-.1.05-.19.13-.28.19-.09.07-.18.14-.27.18l-.04.03c-.03.03-.05.04-.08.05a.32.32 0 0 0-.15.17c-.13.1-.28.18-.44.25-.05.03-.12.05-.15.08l-.04.03c-.03.03-.08.04-.13.05-.09.03-.18.06-.26.14-.03.03-.08.04-.13.05-.08.03-.17.05-.23.12-.08.04-.14.05-.19.08-.08.03-.14.05-.23.09-.05.01-.1.03-.14.05-.06.03-.12.05-.19.05l-.91.28c-.06 0-.14.03-.22.05-.04.01-.12.04-.14.04-.12 0-.21.03-.3.05-.06.03-.12.04-.19.04-.12 0-.21.03-.3.05-.06.03-.12.04-.19.04H48.46v.19c-5.69-.09-10.3-4.75-10.3-10.45V95h67.48v.02z"/></svg>