<svg xmlns="http://www.w3.org/2000/svg" viewBox="0 0 15.7 15.61"><path d="M15.03 7.13h-1.31a5.816 5.816 0 0 0-1.25-3.04l.84-.84c.25-.25.25-.64 0-.89s-.64-.25-.89 0l-.83.83c-.87-.7-1.94-1.17-3.11-1.3V.64c0-.38-.25-.64-.64-.64-.38 0-.64.25-.64.64v1.24c-1.19.11-2.26.59-3.13 1.3l-.82-.82-.06-.06c-.25-.25-.64-.19-.89.06s-.19.64.06.89l.82.82c-.69.86-1.15 1.9-1.29 3.06H.64c-.38 0-.64.25-.64.64s.25.64.64.64h1.24c.11 1.21.59 2.3 1.31 3.18l-.83.83c-.25.25-.25.64 0 .89.13.13.25.19.45.19.13.06.32-.06.45-.19l.84-.84a6.06 6.06 0 0 0 3.1 1.26v1.24c0 .38.25.64.64.64.38 0 .64-.25.64-.64v-1.25c1.17-.13 2.24-.6 3.11-1.32l.91.91c.13.13.25.19.45.19s.32-.06.45-.19c.25-.25.25-.64 0-.89l-.92-.92a6.04 6.04 0 0 0 1.27-3.09h1.31c.32 0 .64-.25.64-.64s-.29-.64-.67-.64z" fill="#f9cb4c"/></svg>