<svg xmlns="http://www.w3.org/2000/svg" viewBox="0 0 50 50"><path d="M50 24.97C50 11.15 38.79 0 24.97 0S0 11.21 0 25.03 11.21 50 25.03 50c5.5 0 10.8-1.81 15.07-5.11.59.44 1.33.72 2.13.72 1.97 0 3.57-1.59 3.57-3.57 0-.82-.29-1.57-.76-2.18A24.9 24.9 0 0 0 50 24.97zm-7.77 19.36c-1.27 0-2.29-1.02-2.29-2.29s1.02-2.29 2.29-2.29 2.29 1.08 2.29 2.29c0 1.27-1.02 2.29-2.29 2.29zm1.86-5.32c-.54-.33-1.17-.53-1.86-.53a3.566 3.566 0 0 0-3.01 5.48c-4.05 3.11-9.06 4.77-14.19 4.77-13.12 0-23.76-10.57-23.76-23.69S11.91 1.28 24.96 1.28c13.12 0 23.76 10.64 23.76 23.76.01 4.99-1.64 9.92-4.63 13.97z" fill="#fff"/></svg>