<svg xmlns="http://www.w3.org/2000/svg" viewBox="0 0 30.97 30.9"><path d="M7.46 2.24a3.566 3.566 0 1 0-5.11 4.97A15.645 15.645 0 0 0 0 15.42c0 8.6 6.94 15.54 15.48 15.48 2.99 0 5.99-.83 8.53-2.48 7.13-4.71 9.11-14.33 4.39-21.47-4.6-6.97-13.86-9-20.94-4.71zm-2.56.18c1.27.06 2.29 1.08 2.29 2.29C7.19 5.98 6.17 7 4.9 7S2.61 5.98 2.61 4.71 3.63 2.42 4.9 2.42zm10.57 27.14c-7.83 0-14.2-6.37-14.2-14.2 0-2.59.77-5.17 2.14-7.41.46.21.96.34 1.49.34 1.97 0 3.57-1.59 3.57-3.57 0-.5-.1-.98-.29-1.41 2.22-1.32 4.7-2.03 7.29-2.03 7.83 0 14.2 6.24 14.2 14.08.01 7.83-6.36 14.2-14.2 14.2z" fill="#fff"/></svg>