<svg version="1.1" id="Layer_1" xmlns="http://www.w3.org/2000/svg" x="0" y="0" viewBox="0 0 151 99" xml:space="preserve"><style>.st0{fill:#f5b810}.st1{fill:#fff}</style><path class="st0" d="M9.66 48.18c-.42 0-3.82-.11-3.82-4.12 0-.42-.32-.74-.64-.74-.21 0-.32 0-.42.11-.11.11-.21.32-.21.53 0 4.01-3.4 4.12-3.82 4.12-.43-.01-.75.31-.75.73s.32.74.74.74 3.82.11 3.82 4.12c0 .42.32.74.74.74s.74-.32.74-.74c0-4.01 3.4-4.12 3.82-4.12h.11c.42 0 .64-.32.64-.74-.21-.31-.53-.63-.95-.63zM7 48.81c-.64.42-1.27.95-1.8 1.9a4.932 4.932 0 0 0-1.8-1.8c.64-.32 1.27-.95 1.8-1.8.42.65.95 1.28 1.8 1.7zM30.35 6.23c.42 0 3.82.11 3.82 4.12 0 .42.32.74.74.74s.74-.32.74-.74c0-4.01 3.4-4.12 3.82-4.12h.11c.42-.11.64-.32.64-.74s-.32-.74-.74-.74-3.82-.11-3.82-4.12c-.11-.31-.43-.63-.75-.63-.21 0-.32 0-.42.11-.11.11-.21.32-.21.53 0 4.01-3.4 4.12-3.82 4.12-.42 0-.74.32-.74.74-.11.42.2.73.63.73zM33 5.6c.64-.32 1.27-.95 1.8-1.8.42.74 1.06 1.37 1.8 1.8-.53.32-1.17.85-1.7 1.8A4.366 4.366 0 0 0 33 5.6zM149.94 72.48c-.53 0-5.62-.21-5.62-6.02 0-.53-.42-.85-.85-.85-.21 0-.42 0-.53.21-.21.21-.32.42-.32.63 0 5.92-4.99 6.02-5.62 6.02-.53 0-.85.42-.85.95s.42.85.85.85c.53 0 5.62.21 5.62 6.02 0 .53.43.85.85.85.53 0 .96-.42.96-.85 0-5.92 4.99-6.02 5.62-6.02h.11c.53-.11.85-.42.85-.85-.12-.52-.54-.94-1.07-.94zm-3.5.85c-.96.53-2.12 1.37-2.87 2.85-.64-1.16-1.59-2.11-2.87-2.85.96-.53 2.12-1.37 2.87-2.85.53 1.26 1.59 2.21 2.87 2.85z"/><path class="st1" d="M21.97 86.32H123.1c.53 0 1.17-.42 1.17-1.06v-54.2c0-3.28-2.65-5.81-5.94-5.81h-3.61v-.11-.21l1.8-.21c.53 0 .96-.53.96-1.06v-2.22c0-.53-.42-.95-.96-.95l-1.8-.21c-.32-1.37-.74-2.43-1.49-3.49l1.17-1.48c.32-.42.21-1.06-.11-1.37l-1.59-1.58c-.43-.42-.96-.42-1.38-.11l-1.49 1.16c-1.06-.63-2.23-1.16-3.5-1.48l-.21-1.8c0-.53-.53-1.06-1.06-1.06h-2.23c-.53 0-.95.42-.95.95l-.21 1.8c-1.38.32-2.44.74-3.5 1.48l-1.7-1.27c-.42-.32-1.06-.21-1.38.11l-1.59 1.58c-.42.42-.42.95-.11 1.37l1.17 1.48c-.64 1.06-1.17 2.22-1.49 3.49l-1.8.21c-.53 0-1.06.53-1.06 1.06v2.22c0 .53.42.95.96.95l1.8.21c0 .11 0 .11.11.21H79.8c-.11-.21-.32-.42-.42-.63l2.44-2.96c.32-.42.21-1.06-.11-1.37l-2.87-2.85c-.42-.21-.96-.32-1.49 0l-2.97 2.43c-2.12-1.37-4.56-2.43-7-2.85l-.42-3.8c0-.53-.53-1.06-.96-1.06h-4.03c-.53 0-.96.42-.96.95l-.42 3.8c-2.44.42-4.88 1.48-7 2.85l-2.97-2.32c-.42-.32-1.06-.21-1.38.11l-2.86 2.85c-.42.42-.42.95-.11 1.37l2.55 2.96-.42.63H26.74c-3.29 0-5.84 2.64-5.84 5.81v54.1c0 .75.43 1.38 1.07 1.38zm4.77-58.96h20.59c-.64 1.37-1.06 2.75-1.27 4.12l-3.82.42c-.53 0-1.06.53-1.06 1.06v4.01c0 .53.42.95.96.95l3.82.42c.42 2.43 1.49 4.86 2.87 6.97l-2.44 2.96c-.32.42-.21 1.06.11 1.37l2.87 2.85c.42.42.96.42 1.38.11l2.97-2.43c2.12 1.37 4.56 2.43 7 2.85l.42 3.8c0 .53.53.95.96.95h4.03c.53 0 .96-.42.96-.95l.42-3.8c2.44-.42 4.88-1.48 7-2.85l2.97 2.43c.42.32 1.06.21 1.38-.11l2.87-2.85c.42-.42.42-.95.11-1.37l-2.33-3.06c1.38-2.11 2.44-4.54 2.87-6.97l3.82-.42c.53 0 1.06-.53 1.06-1.06v-4.01c0-.53-.42-.95-.96-.95l-3.82-.42c-.32-1.37-.74-2.75-1.27-4.12h13.16c.21.42.32.74.64 1.06l-1.17 1.48c-.32.42-.21 1.06.11 1.37l1.59 1.58c.42.42.96.42 1.38.11l1.49-1.16c1.06.63 2.23 1.16 3.5 1.48l.21 1.8c0 .53.53.95 1.06.95h2.23c.53 0 1.06-.42.95-.95l.21-1.8c1.38-.32 2.44-.74 3.5-1.48l1.49 1.16c.42.32 1.06.21 1.38-.11l1.59-1.58c.42-.42.42-.95.11-1.37l-1.17-1.48c.21-.32.32-.63.53-.95 0-.11.11-.11.11-.21h4.35c2.12 0 3.71 1.69 3.71 3.7V84H23.03V31.06c0-2 1.69-3.7 3.71-3.7zm24.3-3.48l-2.33-2.85 1.49-1.48 2.87 2.32c.42.32.96.32 1.27 0 2.12-1.58 4.78-2.64 7.43-3.06.53 0 .95-.42.85-.95l.42-3.7h2.12l.42 3.7c0 .42.42.85.85.95 2.76.42 5.41 1.48 7.53 3.17.42.32.95.32 1.27 0l2.86-2.32 1.49 1.48-2.23 2.75c-.32.42-.32.95 0 1.27 1.59 2.11 2.65 4.75 3.08 7.4 0 .53.42.85.96.85l3.71.42v2.11l-3.61.42c-.42 0-.85.42-.96.85-.42 2.75-1.49 5.39-3.18 7.5-.32.42-.32.95 0 1.27l2.33 2.85-1.49 1.48-2.97-2.32c-.42-.32-.96-.32-1.27 0-2.12 1.58-4.78 2.64-7.43 3.06-.53 0-.96.42-.85.95l-.42 3.49h-2.12l-.42-3.7c0-.42-.42-.85-.85-.95-2.76-.42-5.41-1.48-7.53-3.17-.42-.32-.96-.32-1.27 0l-2.87 2.32-1.49-1.37 2.33-2.85c.32-.42.32-.95 0-1.27-1.59-2.11-2.65-4.75-3.08-7.4 0-.53-.42-.85-.96-.85l-3.71-.42v-1.9l3.71-.42c.42 0 .85-.42.96-.85.42-2.75 1.49-5.39 3.18-7.5.23-.44.23-1.07-.09-1.28zm44.36-2.43c.21-1.37.85-2.85 1.7-4.01.32-.42.32-.95 0-1.27l-1.06-1.27.21-.21 1.27 1.06c.42.32.96.32 1.27 0 1.06-.85 2.44-1.37 3.93-1.58.53 0 .95-.42.85-.95l.21-1.69h.43l.21 1.58c0 .42.42.85.85.95 1.38.21 2.86.85 4.03 1.69.43.32.96.32 1.27 0l1.27-1.06.21.21-1.05 1.26c-.32.42-.32.95 0 1.27.85 1.06 1.38 2.43 1.59 3.91 0 .53.42.85.96.85l1.7.21v.42l-1.7.21c-.43 0-.85.42-.96.85-.21 1.37-.85 2.85-1.7 4.01-.32.42-.32.95 0 1.27l1.06 1.27-.21.21-1.27-1.06c-.42-.32-.96-.32-1.27 0-1.06.85-2.44 1.37-3.93 1.58-.53 0-.96.42-.85.95l-.21 1.69h-.43l-.21-1.58c0-.42-.42-.85-.85-.95-1.38-.21-2.86-.85-4.03-1.69-.42-.32-.96-.32-1.27 0l-1.27 1.06-.32-.21 1.06-1.27c.32-.42.32-.95 0-1.27-.85-1.06-1.38-2.43-1.59-3.91 0-.53-.42-.85-.96-.85l-1.59-.21v-.42l1.7-.21c.31 0 .73-.42.95-.84z"/><path class="st1" d="M64.2 47.54c7 0 12.73-5.71 12.73-12.68S71.2 22.18 64.2 22.18s-12.63 5.71-12.63 12.68c0 6.98 5.62 12.68 12.63 12.68zM53.69 34.87c0-5.81 4.78-10.57 10.51-10.57 5.73 0 10.61 4.75 10.61 10.57S70.03 45.43 64.2 45.43c-5.84 0-10.51-4.75-10.51-10.56zM103.99 29.27c3.71 0 6.79-2.96 6.79-6.66 0-3.8-2.97-6.66-6.79-6.66-3.71 0-6.69 2.96-6.69 6.66.01 3.7 2.87 6.66 6.69 6.66zm-4.45-6.76c0-1.16.42-2.22 1.17-3.06.85-.95 2.12-1.37 3.29-1.37 2.44 0 4.56 2.01 4.56 4.54 0 2.54-2.02 4.54-4.56 4.54-2.56-.01-4.46-2.12-4.46-4.65zM101.76 74.38c.11.42.53.74.96.74.42 0 .85-.21.95-.53l1.49-3.06 8.6 8.56c.11.11.43.32.74.32s.53-.11.74-.32l4.03-4.01c.42-.42.42-1.16 0-1.58l-8.6-8.56 2.65-1.27c.42-.11.64-.53.64-.95v-.32c0-.42-.32-.85-.74-.95L96.35 55.9c-.42-.11-.85 0-1.17.32a1.2 1.2 0 0 0-.32 1.16l6.9 17zm6.58-9.72c-.32.21-.53.53-.53.85 0 .21 0 .63.32.95l8.81 8.77-2.44 2.43-8.81-8.77c-.11-.11-.43-.32-.74-.32h-.11c-.32 0-.53.21-.85.53l-1.17 2.32-4.99-12.68 12.73 4.86-2.22 1.06zM133.17 88.96H11.78c-.64 0-1.17.32-1.38.85-.21.53-.21 1.16 0 1.58l1.17 2.01c2.02 3.38 5.94 5.6 9.97 5.6H123.3c4.14 0 7.85-2.11 10.08-5.6l1.17-2.01c.32-.63.32-1.16 0-1.58-.21-.53-.85-.85-1.38-.85zm-9.86 8.03H21.54c-3.4 0-6.47-1.8-8.28-4.65l-.74-1.27h119.7l-.74 1.27a9.491 9.491 0 0 1-8.17 4.65z"/><path class="st0" d="M137.1 48.71c1.05 0 1.91-.85 1.91-1.9 0-1.05-.86-1.9-1.91-1.9-1.06 0-1.91.85-1.91 1.9 0 1.05.85 1.9 1.91 1.9zM5.52 17.01c1.05 0 1.91-.85 1.91-1.9 0-1.05-.86-1.9-1.91-1.9-1.05 0-1.91.85-1.91 1.9 0 1.05.85 1.9 1.91 1.9z"/></svg>