<svg version="1.1" id="Layer_1" xmlns="http://www.w3.org/2000/svg" x="0" y="0" viewBox="0 0 150 99" xml:space="preserve"><style>.st0{fill:#fff}.st1{fill:#f5b810}</style><path class="st0" d="M134.92 88.53H9.94c-.66 0-1.2.33-1.42.87-.22.55-.22 1.2 0 1.64l1.2 2.18C11.8 96.71 15.84 99 19.99 99h104.77c4.26 0 8.09-2.18 10.38-5.78l1.2-2.07c.33-.65.33-1.2 0-1.64-.21-.65-.87-.98-1.42-.98zm-10.16 8.29H19.99c-3.5 0-6.66-1.85-8.52-4.8l-.76-1.31h123.23l-.76 1.31a9.773 9.773 0 0 1-8.42 4.8zM62.06 77.74l.44.44c.11.11.22.22.44.22h.11c.11 0 .22.11.33.11.11 0 .22 0 .44-.11.11 0 .22-.11.33-.11h.11l3.82-4.25c.44-.44.33-1.2-.11-1.64-.22-.22-.55-.33-.87-.22-.33 0-.55.22-.76.44l-1.97 2.07V64.33c0-.55-.44-1.09-1.2-1.09-.55 0-1.09.44-1.09 1.09v10.36l-1.75-2.07c-.22-.33-.66-.44-.87-.44-.33 0-.55.11-.76.33-.44.44-.44 1.09-.11 1.53l3.47 3.7zM48.07 78.17c.11.11.22.22.44.22h.11c.11 0 .22.11.33.11.11 0 .22 0 .44-.11.11 0 .22-.11.33-.11h.11l3.82-4.25c.22-.22.33-.55.33-.87s-.22-.55-.44-.76c-.44-.44-1.09-.44-1.53 0l-1.86 2.07V64.11c0-.55-.44-1.09-1.2-1.09-.55 0-1.09.44-1.09 1.09v10.36L46.1 72.4c-.22-.33-.66-.44-.87-.44-.33 0-.55.11-.76.33-.44.44-.44 1.09-.11 1.53l3.71 4.35zM33.54 78.07c.11.11.22.22.44.22h.11c.11 0 .22.11.33.11.11 0 .22 0 .44-.11.11 0 .22-.11.33-.11h.11l3.82-4.25c.22-.22.33-.55.33-.87s-.22-.55-.44-.76a.84.84 0 0 0-.55-.22c-.33 0-.55.11-.76.33l-1.86 2.07V64.11c0-.55-.44-1.09-1.09-1.09-.55 0-1.2.44-1.2 1.09v10.36L31.8 72.4c-.22-.33-.66-.44-.87-.44-.33 0-.55.11-.76.33-.44.44-.44 1.09-.11 1.53l3.48 4.25zM34.41 30.09c.22.11.33.11.44.11l.11.11h17.7c.22 0 .33-.11.33-.22l.11-.11.22-.22V29c-.22-.76-.44-1.53-.66-2.18-.66-2.18-2.73-3.38-5.03-3.16h-.43v-1.2c.55-.55.98-1.2 1.31-1.96.76-.44 1.09-1.31 1.09-2.4 0-.76-.22-1.53-.55-1.96v-.55c0-.22.11-.44.11-.65.22-2.83-.76-3.38-2.29-3.93l-.22-.11c-1.2-.44-2.4-.44-2.95-.44-.66 0-1.86.11-2.95.44l-.33.11c-1.53.44-2.51.98-2.29 3.82 0 .22 0 .44.11.65v.55c-.33.55-.55 1.2-.55 1.96 0 1.2.44 2.07 1.2 2.4.33.87.76 1.53 1.2 1.96v1.2h-.33c-2.4-.22-4.37.98-5.13 3.16-.11.33-.22.76-.33 1.09-.11.33-.22.76-.33 1.09v.76l.44.44zm6.45-13.74v-.33c-.11-.55-.11-.98-.11-1.53-.11-1.42-.11-1.42.76-1.64l.33-.11a7.01 7.01 0 0 1 2.18-.33c.76 0 1.53.11 2.19.33l.44.11c.66.22.76.33.66 1.64 0 .44-.11.76-.11 1.2l-.11.44v.33c0 .33.22.65.55.87v.99c-.11 0-.22.11-.33.22-.22.11-.33.44-.44.65-.55 1.64-1.64 2.62-2.95 2.62s-2.4-.98-2.95-2.62l-.11-.22c-.22-.22-.33-.44-.55-.55v-.11c0-.11-.11-.22-.11-.44s0-.44.11-.55c.33-.31.55-.64.55-.97zm.87 9.38c.44-.11.76-.55.76-.98v-.87c.87.33 1.86.33 2.73 0v.87c0 .44.33.87.66.98.22.11.44.11.55.11.44 0 .87 0 1.31-.11 1.42-.11 2.51.55 2.73 1.64 0 .11.11.33.11.55 0 .11 0 .11.11.22H36.82c0-.11 0-.22.11-.22.11-.22.11-.44.11-.55.33-.98 1.42-1.64 2.73-1.53.44 0 .87 0 1.31.11.33-.11.54-.11.65-.22z"/><path class="st0" d="M20.43 85.81h104.12c.55 0 1.2-.44 1.2-1.09V28.78c0-3.38-2.73-6-6.12-6H69.37v-12.2c0-2.62-2.18-4.8-4.81-4.8H33.54c-2.62 0-4.81 2.18-4.81 4.8v12.1h-3.39c-3.39 0-6.01 2.73-6.01 6V84.5c.01.65.44 1.31 1.1 1.31zm4.92-60.84h3.39v26.49c0 2.62 2.18 4.8 4.81 4.8H64.8c2.62 0 4.81-2.18 4.81-4.8V24.97h50.04c2.19 0 3.82 1.74 3.82 3.82v54.84H21.52V28.78c0-2.07 1.75-3.81 3.83-3.81zm8.19-16.79H64.9c.55 0 .98.22 1.42.65.55.44.87 1.2.87 1.85v40.78c0 1.42-1.09 2.51-2.51 2.51H33.54c-1.42 0-2.51-1.09-2.51-2.51V10.58c.11-1.31 1.09-2.4 2.51-2.4z"/><path class="st0" d="M34.74 37.4c0 .55.44 1.09 1.2 1.09h26.55c.55 0 1.2-.44 1.09-1.2-.11-.65-.55-1.09-1.09-1.09H35.83c-.54.11-1.09.54-1.09 1.2zM53.42 43.61c.55 0 1.09-.44 1.09-1.2 0-.55-.44-1.09-1.09-1.09h-7.21c-.55 0-1.2.44-1.2 1.09 0 .55.44 1.2 1.2 1.2h7.21zM42.94 43.61c.55 0 1.09-.44 1.09-1.2 0-.55-.44-1.09-1.09-1.09h-.55c-.55 0-1.2.44-1.2 1.09 0 .55.44 1.2 1.2 1.2h.55zM57.25 43.61c.55 0 1.09-.44 1.09-1.2 0-.55-.44-1.09-1.09-1.09h-.55c-.55 0-1.2.44-1.2 1.09 0 .55.44 1.2 1.2 1.2h.55zM62.38 41.43h-1.86c-.55 0-1.2.44-1.2 1.09 0 .55.44 1.09 1.2 1.09h1.86c.55 0 1.2-.44 1.09-1.2-.11-.54-.54-.98-1.09-.98zM35.83 43.61h3.28c.55 0 1.09-.44 1.09-1.2 0-.55-.44-1.09-1.09-1.09h-3.28c-.55 0-1.2.44-1.2 1.09.11.77.66 1.2 1.2 1.2zM62.38 46.56H35.83c-.55 0-1.2.44-1.2 1.2 0 .55.44 1.09 1.2 1.09h26.55c.55 0 1.2-.44 1.09-1.2-.1-.66-.54-1.09-1.09-1.09zM101.49 73.49c.11.44.55.76.98.76.44 0 .87-.22.98-.55l1.53-3.16 8.85 8.83c.11.11.44.33.76.33.33 0 .55-.11.77-.33l4.15-4.14c.44-.44.44-1.2 0-1.64l-8.85-8.83 2.73-1.31c.44-.11.66-.55.66-.98v-.33c0-.44-.33-.87-.76-.98L95.92 54.4c-.44-.11-.87 0-1.2.33-.33.33-.44.76-.33 1.2l7.1 17.56zm6.78-10.03c-.33.22-.55.55-.55.87 0 .22 0 .65.33.98l9.07 9.05-2.51 2.51-9.07-9.05c-.11-.11-.44-.33-.76-.33h-.11c-.33 0-.55.22-.87.55l-1.2 2.4-5.13-13.08 13.11 5.02-2.31 1.08z"/><path class="st1" d="M10.05 43.5c.44 0 .66-.33.66-.76s-.33-.76-.76-.76c-.44 0-3.93-.11-3.93-4.25 0-.33-.33-.65-.66-.65-.22 0-.33 0-.44.11a.84.84 0 0 0-.22.55c0 4.14-3.5 4.25-3.93 4.25s-.77.31-.77.75.33.76.76.76 3.93.11 3.93 4.25c0 .44.33.76.76.76.44 0 .76-.33.76-.76-.2-4.14 3.29-4.25 3.84-4.25zm-2.84-.76c-.66.44-1.31.98-1.86 1.96a5.003 5.003 0 0 0-1.86-1.85c.66-.33 1.31-.98 1.86-1.85.44.65.99 1.3 1.86 1.74zM82.59 6.43c.44 0 3.93.11 3.93 4.25 0 .44.33.76.76.76.44 0 .76-.33.76-.76 0-4.14 3.5-4.25 3.93-4.25h.11c.44 0 .66-.33.66-.76 0-.44-.33-.76-.76-.76-.44 0-3.93-.11-3.93-4.25-.1-.33-.43-.66-.76-.66-.22 0-.33 0-.44.11a.84.84 0 0 0-.22.55c0 4.14-3.5 4.25-3.93 4.25-.44 0-.76.33-.76.76-.11.44.22.76.65.76zm2.73-.65c.66-.33 1.31-.98 1.86-1.85.44.76 1.09 1.42 1.86 1.85-.55.33-1.2.87-1.75 1.85a4.592 4.592 0 0 0-1.97-1.85zM148.91 64.98c-.55 0-5.79-.22-5.79-6.21 0-.55-.44-.87-.87-.87-.22 0-.44 0-.55.22-.22.22-.33.44-.33.65 0 6.11-5.13 6.21-5.79 6.21-.55 0-.87.44-.87.98 0 .55.44.87.87.87.55 0 5.79.22 5.79 6.21 0 .55.44.87.87.87.55 0 .98-.44.98-.87 0-6.11 5.13-6.21 5.79-6.21h.11c.55-.11.87-.44.87-.87-.1-.54-.54-.98-1.08-.98zm-3.61.87c-.98.55-2.18 1.42-2.95 2.94-.66-1.2-1.64-2.18-2.95-2.94.98-.55 2.18-1.42 2.95-2.94.55 1.31 1.64 2.29 2.95 2.94zM135.69 40.45c1.09 0 1.97-.88 1.97-1.96s-.88-1.96-1.97-1.96-1.97.88-1.97 1.96.88 1.96 1.97 1.96zM13.33 13.19c1.09 0 1.97-.88 1.97-1.96s-.88-1.96-1.97-1.96c-1.09 0-1.97.88-1.97 1.96s.88 1.96 1.97 1.96z"/></svg>