<svg version="1.1" id="Layer_1" xmlns="http://www.w3.org/2000/svg" x="0" y="0" viewBox="0 0 112 99" xml:space="preserve"><style>.st0{fill:#fff}.st1{fill:#f5b810}</style><path class="st0" d="M66.43 33.78H54.81c-1.16 0-2.33.32-3.49.74-.95-.32-1.8-1.06-2.22-1.91-.32-1.16-.11-2.44.63-3.39.53-.95 1.06-1.8 1.59-2.65 2.01-3.18 3.7-6.04 3.7-8.47 0-7.2-3.49-8.47-5.5-8.58-3.49-.21-3.7 2.86-3.81 4.55.11.85-.11 1.59-.53 2.33-1.06.95-2.11 1.91-3.28 2.75-3.38 2.44-6.55 5.29-9.2 8.58-2.33 3.18-4.86 6.14-7.72 8.79h-4.65v-2.44c0-.74-.63-1.38-1.37-1.38H1.42c-.74 0-1.37.64-1.37 1.38 0 .74.63 1.38 1.37 1.38H17.8v32.29H1.42c-.74 0-1.37.64-1.37 1.38s.63 1.38 1.37 1.38h17.66c.74 0 1.37-.64 1.37-1.38v-4.45c2.11-.11 6.87 0 9.41 2.96 2.33 2.65 7.93 3.39 15.33 3.39 2.22 0 4.65-.11 7.19-.21h.32c.85 0 1.8-.11 2.75-.11 1.9-.11 3.7-.21 5.29-.21 2.75-.11 4.97-2.44 4.86-5.29 0-1.16-.42-2.44-1.16-3.39a5.915 5.915 0 0 0 2.75-4.98c0-1.27-.32-2.44-1.06-3.39 2.01-.95 3.17-2.96 3.17-5.19 0-1.16-.32-2.33-.95-3.28 2.43-.64 4.12-2.86 4.12-5.29-.22-3.48-2.86-6.02-6.04-5.91zM46.14 65.12c.11 1.06.53 2.01 1.16 2.86-6.66.11-13.64-.21-15.54-2.44-3.28-3.81-8.77-4.02-11.42-3.92V38.86h4.97c2.33 0 9.62-9.74 9.73-9.85 2.54-3.07 5.5-5.72 8.67-8.05 1.27-.95 2.43-1.91 3.59-3.07a5.96 5.96 0 0 0 1.16-4.02c.11-2.01.21-2.01.95-2.01 2.43.11 2.96 3.28 2.96 5.93-.53 2.54-1.69 4.98-3.28 7.09-.53.85-1.06 1.8-1.69 2.75-1.16 1.69-1.48 3.81-.85 5.82.53 1.16 1.27 2.12 2.33 2.75-.74.95-1.06 2.22-.95 3.49.32 1.48 1.16 2.75 2.22 3.81-.42.21-.74.53-1.06.85-.95 1.06-1.37 2.54-1.27 3.92.32 1.48.95 2.75 2.01 3.81-.32.21-.53.42-.74.64-.95 1.16-1.48 2.65-1.27 4.13.21 1.16.74 2.33 1.37 3.28-.53.32-1.27.74-1.8 1.38-.94.96-1.36 2.34-1.25 3.61zm16.59.21c-.11 1.16-1.06 2.01-2.22 2.22-1.48 0-3.38.11-5.29.21-.85 0-1.9.11-2.85.11-1.8.11-3.28-1.16-3.59-2.96-.11-.53.11-1.16.42-1.59.74-.64 1.59-.95 2.54-.95h8.67c1.58.1 2.54 1.48 2.32 2.96zm-.52-5.82l-8.35.11h-.11c-2.54.21-3.07-3.07-3.07-3.07-.11-.74.11-1.38.53-2.01.63-.53 1.37-.85 2.22-.95.21 0 .42.11.63.11h.32l6.03-.11h1.69c1.16 0 2.22 1.38 2.22 2.96.21 1.47-.74 2.74-2.11 2.96zm4.22-11.12c-.21 1.27-1.16 2.33-2.54 2.54H53.53h-.32a3.774 3.774 0 0 1-2.64-3.07c-.11-.64.11-1.27.53-1.8.75-.64 1.7-1.06 2.75-1.06.21 0 .53.11.74.11h.42l7.2-.11h1.59c1.68.21 2.85 1.69 2.63 3.39zm.11-6.04H54.17h-.32c-1.48-.32-2.75-1.48-3.17-3.07-.11-.64.11-1.16.53-1.69.21-.21.53-.42.85-.64.85-.42 1.8-.64 2.75-.64h11.63c1.69-.11 3.07 1.27 3.17 2.96 0 1.71-1.38 3.08-3.07 3.08z"/><path class="st1" d="M94.87 53.68c-.42 0-3.81-.11-3.81-4.13 0-.42-.32-.74-.63-.74-.21 0-.32 0-.42.11s-.21.32-.21.53c0 4.02-3.38 4.13-3.81 4.13-.42 0-.74.32-.74.74s.32.74.74.74 3.81.11 3.81 4.13c0 .42.32.74.74.74s.74-.32.74-.74c0-4.02 3.38-4.13 3.81-4.13h.11c.42 0 .63-.32.63-.74-.22-.32-.53-.64-.96-.64zm-4.44 2.54a4.858 4.858 0 0 0-1.8-1.8c.63-.32 1.27-.95 1.8-1.8.42.74 1.06 1.38 1.8 1.8-.63.32-1.27.85-1.8 1.8zM14 6.35c.42 0 3.81.11 3.81 4.13 0 .42.32.74.74.74s.74-.32.74-.74c0-4.02 3.38-4.13 3.81-4.13h.11c.42 0 .63-.32.63-.74s-.32-.74-.74-.74-3.81-.11-3.81-4.13c0-.42-.32-.74-.63-.74-.21 0-.32 0-.42.11-.11.11-.21.32-.21.53 0 4.02-3.38 4.13-3.81 4.13-.42 0-.74.32-.74.74-.22.53.09.84.52.84zm4.54-2.54c.42.74 1.06 1.38 1.8 1.8-.63.42-1.27.95-1.8 1.91a4.858 4.858 0 0 0-1.8-1.8c.53-.43 1.27-.96 1.8-1.91zM110.94 40.98c-.53 0-5.6-.21-5.6-6.04 0-.53-.42-.85-.85-.85-.21 0-.42 0-.53.21-.21.21-.32.42-.32.64 0 5.93-4.97 6.04-5.6 6.04-.53 0-.85.42-.85.95s.42.85.85.85c.53 0 5.6.21 5.6 6.04 0 .53.42.85.85.85.53 0 .95-.42.95-.85 0-5.93 4.97-6.04 5.6-6.04h.11c.53-.11.85-.42.85-.85-.11-.53-.53-.95-1.06-.95zm-6.34 3.7c-.64-1.16-1.59-2.12-2.86-2.86.95-.53 2.12-1.38 2.86-2.86.63 1.16 1.59 2.12 2.85 2.86-.95.53-2.11 1.38-2.85 2.86zM80.18 24.56c1.05 0 1.9-.85 1.9-1.91 0-1.05-.85-1.91-1.9-1.91-1.05 0-1.9.85-1.9 1.91s.85 1.91 1.9 1.91zM5.12 17.15c1.05 0 1.9-.85 1.9-1.91s-.85-1.91-1.9-1.91c-1.05 0-1.9.85-1.9 1.91s.85 1.91 1.9 1.91z"/><path class="st0" d="M13.89 62.89v-8.47c0-.74-.63-1.38-1.37-1.38-.74 0-1.37.64-1.37 1.38v8.47c0 .74.63 1.38 1.37 1.38.74 0 1.37-.63 1.37-1.38zM13.89 99c-.21 0-.32 0-.53-.11l-4.33-2.44-4.44 2.33c-.32.22-.74.11-1.16-.1-.32-.21-.53-.63-.43-1.06l.85-4.87-3.59-3.49c-.21-.21-.32-.64-.21-1.06.11-.42.42-.64.85-.74l4.97-.74 2.22-4.45c.32-.74 1.59-.74 1.9 0l2.22 4.45 4.97.74c.42.11.74.32.85.74.11.42 0 .85-.32 1.06l-3.59 3.49.85 4.87c.11.42-.11.85-.42 1.06-.24.21-.45.32-.66.32zm-4.86-4.76c.21 0 .32 0 .53.11l2.96 1.59-.53-3.39c-.11-.32.11-.74.32-.95l2.43-2.33-3.38-.53c-.32 0-.63-.32-.85-.53l-1.48-3.07-1.48 3.06c-.11.32-.42.53-.85.53l-3.38.53 2.43 2.33c.21.21.32.64.32.95l-.53 3.39 2.96-1.59c.21 0 .32-.1.53-.1zM32.92 99c-.21 0-.32 0-.53-.11l-4.33-2.44-4.44 2.33c-.32.21-.74.11-1.16-.11-.32-.21-.53-.64-.42-1.06l.85-4.87-3.59-3.49c-.32-.32-.42-.74-.32-1.06.11-.42.42-.64.85-.74l4.97-.74 2.2-4.44c.32-.74 1.59-.74 1.9 0l2.22 4.45 4.97.74c.42.11.74.32.85.74.11.42 0 .85-.32 1.06l-3.59 3.49.85 4.87c.11.42-.11.85-.42 1.06-.12.21-.33.32-.54.32zm-4.86-4.76c.21 0 .32 0 .53.11l2.96 1.59-.53-3.39c-.11-.32.11-.74.32-.95l2.43-2.33-3.38-.53c-.32 0-.63-.32-.85-.53l-1.48-3.07-1.48 3.07c-.11.32-.42.53-.85.53l-3.38.53 2.43 2.33c.21.21.32.64.32.95l-.53 3.39 2.96-1.59c.21-.01.31-.11.53-.11zM51.95 99c-.21 0-.32 0-.53-.11l-4.33-2.44-4.44 2.33c-.32.21-.74.11-1.16-.11-.32-.21-.53-.64-.42-1.06l.85-4.87-3.59-3.49c-.33-.31-.44-.73-.33-1.05.11-.42.42-.64.85-.74l4.97-.74 2.22-4.45c.32-.74 1.59-.74 1.9 0l2.22 4.45 4.97.74c.42.11.74.32.85.74.11.42 0 .85-.32 1.06l-3.59 3.49.85 4.87c.11.42-.11.85-.42 1.06a.65.65 0 0 1-.55.32zm-4.86-4.76c.21 0 .32 0 .53.11l2.96 1.59-.53-3.39c-.11-.32.11-.74.32-.95l2.43-2.33-3.38-.53c-.32 0-.63-.32-.85-.53l-1.48-3.07-1.48 3.07c-.11.32-.42.53-.85.53l-3.38.53 2.43 2.33c.21.21.32.64.32.95l-.53 3.39 2.96-1.59c.21-.01.32-.11.53-.11zM70.98 99c-.21 0-.32 0-.53-.11l-4.33-2.44-4.44 2.33c-.32.21-.74.11-1.16-.11-.32-.21-.53-.64-.42-1.06l.85-4.87-3.59-3.49c-.32-.32-.42-.74-.32-1.06.11-.42.42-.64.85-.74l4.97-.74 2.22-4.45c.32-.74 1.59-.74 1.9 0l2.22 4.45 4.97.74c.42.11.74.32.85.74.11.42 0 .85-.32 1.06l-3.59 3.49.85 4.87c.11.42-.11.85-.42 1.06-.14.22-.35.33-.56.33zm-4.86-4.76c.21 0 .32 0 .53.11l2.96 1.59-.53-3.39c-.11-.32.11-.74.32-.95l2.43-2.33-3.38-.53c-.32 0-.63-.32-.85-.53l-1.48-3.07-1.48 3.07c-.11.32-.42.53-.85.53l-3.38.53 2.43 2.33c.21.21.32.64.32.95l-.53 3.39 2.96-1.59c.21-.01.32-.11.53-.11zM90.01 99c-.21 0-.32 0-.53-.11l-4.33-2.44-4.44 2.33c-.32.21-.74.11-1.16-.11-.32-.21-.53-.64-.42-1.06l.85-4.87-3.59-3.49c-.32-.32-.42-.74-.32-1.06.11-.42.42-.64.85-.74l4.97-.74 2.22-4.45c.32-.74 1.59-.74 1.9 0l2.22 4.45 4.97.74c.42.11.74.32.85.74.11.42 0 .85-.32 1.06l-3.59 3.49.85 4.87c.11.42-.11.85-.42 1.06-.14.22-.35.33-.56.33zm-4.86-4.76c.21 0 .32 0 .53.11l2.96 1.59-.53-3.39c-.11-.32.11-.74.32-.95l2.43-2.33-3.38-.53c-.32 0-.63-.32-.85-.53l-1.48-3.07-1.48 3.07c-.11.32-.42.53-.85.53l-3.38.53 2.43 2.33c.21.21.32.64.32.95l-.53 3.39 2.96-1.59c.21-.01.31-.11.53-.11z"/></svg>