<svg version="1.1" id="Layer_1" xmlns="http://www.w3.org/2000/svg" x="0" y="0" viewBox="0 0 133 99" xml:space="preserve"><style>.st0{fill:#fff}.st1{fill:#f5b810}</style><path class="st0" d="M89.51 15.2c.66.56 1.21 1.12 1.77 1.68.11.11.33.22.66.22s.44-.11.66-.22c.11-.11.11-.34.11-.56 0-.22 0-.56-.22-.67-.33-.22-.55-.56-.88-.78-.55-.56-1.1-1.01-1.66-1.45a.845.845 0 0 0-1.21 0c-.33.34-.22 1.01.11 1.34.22.1.44.32.66.44zM69.32 4.69c1.1.22 2.1.56 3.09.78h.22c.33 0 .77-.22.88-.67.11-.22 0-.45-.11-.67-.11-.22-.33-.34-.55-.45-1.1-.34-2.21-.56-3.2-.89-.22-.11-.44 0-.66.11-.22.11-.33.34-.44.67.1.57.32 1.01.77 1.12zM76.27 6.93c.99.45 1.99.89 2.98 1.34.11.11.33.11.44.11.33 0 .55-.22.77-.45v-.11c.22-.45 0-1.01-.33-1.23-.99-.56-2.1-1.01-3.09-1.45a.701.701 0 0 0-.66 0c-.22.11-.33.22-.44.45-.11.22-.11.45 0 .67 0 .44.11.56.33.67zM54.63 3.8h.22c1.1-.11 2.1-.11 3.09-.11.55 0 .88-.45.88-1.01s-.44-.89-.99-.89c-1.1 0-2.21.11-3.42.22-.55 0-.88.45-.88 1.01v.11c.33.44.66.67 1.1.67zM62.03 3.69c1.1.11 2.1.11 3.2.34h.11c.44 0 .88-.34.88-.78.11-.22 0-.56-.11-.67-.11-.23-.44-.34-.55-.34-.99-.11-2.1-.22-3.09-.34h-.22c-.44 0-.99.34-.99.89 0 .45.33.79.77.9zM82.89 10.28c.88.56 1.77 1.12 2.65 1.79.11.11.44.11.55.11.22 0 .66-.11.77-.34.11-.22.22-.56.11-.78-.11-.22-.22-.45-.33-.45-.88-.67-1.77-1.23-2.87-1.9-.22-.11-.44-.11-.66-.11-.22.11-.33.22-.44.45-.11.11-.11.34-.11.56 0 .33.11.56.33.67zM99.45 27.6c.22.34.44.78.66 1.12.11.34.44.56.88.56.11 0 .22 0 .44-.11s.33-.34.44-.56c.11-.22 0-.45-.11-.67-.44-.89-.99-1.9-1.65-3.02-.33-.45-.88-.56-1.32-.34-.22.11-.44.34-.44.56 0 .22 0 .45.22.67.22.67.55 1.23.88 1.79zM105.07 47.04c.11 1.12.11 2.23.11 3.35 0 .45.33 1.01.99 1.01.44 0 .99-.34.99-1.01 0-1.12 0-2.23-.11-3.46 0-.56-.44-.89-.99-.89-.66 0-.99.44-.99 1zM101.76 32.52c.44 1.12.88 2.12 1.1 3.13.11.34.44.56.88.56h.22c.55-.11.77-.67.66-1.23-.33-1.01-.77-2.12-1.1-3.13v-.11c-.22-.45-.77-.67-1.21-.45-.55.33-.77.78-.55 1.23zM104.64 38.55c-.44.11-.77.67-.66 1.12.22 1.12.44 2.12.66 3.24.11.45.44.67.88.67h.11c.44-.11.77-.67.66-1.12-.22-1.23-.44-2.46-.66-3.35 0-.22 0-.34-.11-.45-.22-.11-.55-.22-.88-.11zM96.13 22.46c.11.34.44.45.77.45.22 0 .33 0 .44-.11.33-.22.44-.78.22-1.34-.55-.78-1.21-1.56-1.77-2.23l-.33-.45c-.33-.34-.88-.45-1.32-.11-.33.34-.44.89-.11 1.34.78.77 1.44 1.55 2.1 2.45zM16.01 67.6c-.33-.78-.55-1.68-.88-2.46l-.22-.56c-.11-.45-.55-.78-1.1-.67-.22 0-.44.22-.55.45v.67c.33 1.01.66 2.01 1.21 3.24.11.34.44.56.88.56.11 0 .22 0 .44-.11s.33-.22.33-.45c.11-.11 0-.44-.11-.67zM14.35 38.33c.22-.89.44-1.68.77-2.57l.22-.56c.11-.45-.11-.89-.66-1.23-.44-.11-.88.11-1.21.56l-.99 3.35v.11c.1.56.32 1.01.76 1.01h.22c.45 0 .78-.23.89-.67zM12.69 41.34c-.66 0-.99.45-.99.78-.11 1.01-.33 2.23-.44 3.35 0 .45.33 1.01.88 1.01h.11c.44 0 .88-.34.88-.89.11-1.12.22-2.23.44-3.24.01-.34-.33-.89-.88-1.01zM17.77 71.51c-.11-.22-.33-.45-.55-.45-.22-.11-.44 0-.66 0-.22 0-.33.11-.44.34-.11.22-.11.56 0 .89.55 1.01 1.1 2.01 1.66 3.02.11.22.44.45.77.45.11 0 .33 0 .44-.11.22-.11.33-.34.44-.56.11-.22 0-.45-.11-.67-.56-.9-1-1.9-1.55-2.91zM16.67 27.6c-.55 1.01-.99 2.01-1.43 3.13-.11.11-.11.22-.11.45 0 .34.22.56.55.67h.22c.11 0 .11.11.22.11.33 0 .66-.22.88-.56.44-1.01.88-2.01 1.43-3.02.11-.22.11-.45.11-.67-.11-.22-.22-.45-.44-.56-.77-.11-1.21 0-1.43.45zM12.03 54.08c.55 0 .88-.45.88-1.01-.11-.89-.11-1.9-.11-2.79v-.56c0-.45-.33-1.01-.88-1.01-.44 0-.99.34-.99.89v.56c0 1.01 0 1.9.11 2.91.11.68.44 1.01.99 1.01zM19.54 25.25c.22 0 .66-.11.77-.34.55-.89 1.21-1.79 1.88-2.68.11-.11.22-.34.22-.56 0-.22-.11-.56-.33-.78-.33-.34-.99-.22-1.32.11-.66.89-1.32 1.79-1.88 2.79-.11.22-.22.45-.22.67 0 .22.22.45.44.67.11.12.33.12.44.12zM24.06 19.22c.22 0 .44-.11.66-.22l.11-.11c.77-.89 1.43-1.56 2.32-2.35.33-.34.33-1.01 0-1.34-.33-.34-.99-.34-1.32 0-.88.78-1.66 1.68-2.32 2.46a.62.62 0 0 0-.33.56c0 .22.11.56.22.78.22.11.44.22.66.22zM13.91 60.56c-.22-1.12-.44-2.23-.55-3.24-.11-.56-.55-.78-1.1-.67-.55.11-.77.56-.66 1.12v.34c.11 1.01.33 2.01.55 3.02.11.45.44.67.88.67h.33c.44-.34.66-.79.55-1.24zM23.4 80c-.55-.78-1.21-1.56-1.77-2.23-.22-.34-.77-.45-1.32-.22-.33.22-.44.78-.22 1.34.66.89 1.32 1.79 2.1 2.68.11.22.44.34.77.34.22 0 .33-.11.44-.11 0 0 .11 0 .11-.11h.11c.33-.34.44-.89.11-1.34L23.4 80zM26.38 83.36c-.33-.34-.99-.34-1.32 0-.33.34-.33 1.01 0 1.34.77.78 1.66 1.56 2.54 2.35h.11s.11 0 .11.11c.11.11.22.11.44.11s.44-.11.66-.34c.22-.22.22-.45.22-.67 0-.22-.11-.45-.33-.67-.89-.67-1.66-1.45-2.43-2.23zM48.12 95.87c-.88-.22-1.88-.56-3.2-.89-.22-.11-.44 0-.66.11-.22.11-.33.34-.44.56-.11.22 0 .45.11.67.11.22.33.34.55.45 1.1.34 2.1.67 3.31.89h.22c.44 0 .77-.34.88-.67.11-.22 0-.34-.11-.56-.11-.33-.33-.56-.66-.56zM89.4 85.48c-.77.67-1.66 1.34-2.54 2.12-.33.34-.44.89-.11 1.23.11.22.44.45.77.45.22 0 .33 0 .55-.22.88-.67 1.77-1.45 2.65-2.23.33-.34.33-.89.11-1.34-.43-.35-.98-.35-1.43-.01zM55.52 96.88c-1.1-.11-2.21-.22-3.2-.34-.22-.11-.44 0-.66.11-.22.11-.33.34-.44.56-.11.22 0 .45.11.67.11.22.33.34.55.45.99.11 2.1.22 3.09.34h.33c.44 0 .77-.34.88-.78 0-.22 0-.45-.11-.56 0-.23-.22-.34-.55-.45zM34.77 90.06c-.88-.56-1.77-1.12-2.76-1.9-.33-.22-.99-.22-1.32.22-.22.34-.22 1.01.22 1.34.88.67 1.77 1.34 2.76 1.9.11.11.33.11.44.11.44 0 .66-.22.77-.45.33-.44.22-.99-.11-1.22zM70.86 95.87c-.22-.11-.55-.22-.77-.11l.11.22-.11-.22c-.99.22-2.1.45-3.2.67-.44.11-.77.67-.66 1.12.11.45.44.67.88.67h.11c.88-.11 1.99-.34 3.31-.67.44-.11.77-.67.66-1.01 0-.22-.11-.45-.33-.67zM83.55 89.95c-.88.56-1.88 1.12-2.76 1.68-.22.11-.44.34-.44.56-.11.22 0 .45.11.67.11.34.44.45.88.45.11 0 .22 0 .44-.11.88-.45 1.88-1.01 2.87-1.68.22-.11.44-.34.44-.56 0-.22 0-.45-.22-.67-.32-.57-.88-.68-1.32-.34zM77.15 93.3c-1.1.45-2.21.89-3.09 1.23-.55.11-.77.67-.66 1.23.11.34.44.56.88.56h.22c1.21-.34 2.21-.78 3.2-1.23.22-.11.44-.34.44-.45.11-.22.11-.45 0-.67-.11-.56-.55-.78-.99-.67zM41.28 93.53c-.99-.45-1.99-.89-2.98-1.45-.44-.22-.99 0-1.21.34-.22.45 0 1.01.33 1.23.99.45 1.99 1.01 3.09 1.45h.11c.11 0 .11.11.22.11.33 0 .77-.22.88-.56.11-.45 0-.9-.44-1.12zM62.91 96.88c-1.1.11-2.21.22-3.31.22-.55 0-.88.45-.88 1.01s.44.89.99.89c1.1 0 2.1-.11 3.2-.11h.22c.55 0 .88-.45.88-1.01v-.11c-.32-.56-.77-.89-1.1-.89zM58.94 16.54c.44 0 .99-.34.99-1.01v-4.58c0-.45-.33-1.01-.99-1.01-.44 0-.99.34-.99 1.01v4.8c.22.45.55.79.99.79zM58.94 84.03c-.44 0-.99.34-.99 1.01v4.69c0 .45.33 1.01.99 1.01.44 0 .99-.34.99-1.01v-4.69c0-.68-.44-1.01-.99-1.01zM77.7 81.68c-.22-.11-.55-.11-.77.11-.22.11-.44.34-.44.56-.11.22 0 .45.11.67l1.1 1.79c.11.34.44.45.88.45.11 0 .33 0 .44-.11.22-.11.33-.34.44-.56.11-.22 0-.45-.11-.67l-1.1-1.79c-.22-.23-.33-.45-.55-.45zM24.94 31.4l1.77 1.12c.11.11.33.11.55.11.33 0 .55-.11.77-.45v-.11c.11-.34 0-.89-.44-1.23l-1.88-1.12c-.22-.11-.44-.11-.66-.11-.22.11-.44.22-.55.45-.11.22-.11.45-.11.67.22.45.33.56.55.67zM26.82 68.16l-1.77 1.12c-.22.11-.44.34-.44.56-.11.22 0 .45.11.67.11.34.44.45.88.45.11 0 .33 0 .44-.11l1.77-1.12c.22-.11.44-.34.44-.56.11-.22 0-.45-.11-.67-.44-.45-.99-.68-1.32-.34zM93.27 31.4c.22-.22.44-.78.22-1.12-.11-.22-.33-.45-.55-.45-.22-.11-.44 0-.66.11l-1.77 1.12c-.22.11-.44.34-.44.56-.11.22 0 .45.11.67.11.34.44.45.88.45.11 0 .33 0 .55-.11l1.66-1.23zM41.17 81.79c-.55-.22-.99-.11-1.21.34l-1.1 1.9c-.11.22-.11.45-.11.67.11.22.22.45.44.56.11.11.33.11.44.11.33 0 .55-.11.77-.45l1.1-1.9v-.11c.22-.45 0-.9-.33-1.12zM78.92 15.53c-.22-.11-.44-.11-.66-.11-.22.11-.44.22-.55.45l-1.1 1.9c-.22.45-.11 1.01.33 1.23h.44c.33 0 .55-.11.77-.45l1.1-1.79c.22-.45 0-1-.33-1.23zM25.72 50.39c0-.45-.33-1.01-.99-1.01h-4.64c-.44 0-.99.34-.99 1.01 0 .56.33 1.01.99 1.01h4.75c.43-.22.88-.56.88-1.01zM97.9 49.39h-4.64c-.44 0-.99.34-.99 1.01 0 .56.33 1.01.99 1.01h4.64c.44 0 .99-.34.99-1.01 0-.68-.55-1.01-.99-1.01zM77.04 40.11c.22-.11.44-.34.44-.56s0-.45-.22-.67c-.11-.22-.33-.34-.55-.45-.22 0-.44 0-.66.22l-14.57 9.16c-.77-.67-1.66-1.12-2.54-1.12-2.1 0-3.64 1.68-3.64 3.69 0 1.79 1.21 3.24 2.87 3.58v23.35c0 .45.33 1.01.99 1.01.44 0 .99-.34.99-1.01V53.97c1.66-.45 2.87-1.9 2.87-3.58 0-.34-.11-.78-.22-1.12l14.24-9.16zM60.93 50.39c0 1.01-.88 1.79-1.88 1.79-.99 0-1.88-.89-1.88-1.9 0-1.01.88-1.9 1.88-1.9.66 0 1.21.34 1.66 1.01.11.33.22.67.22 1z"/><path class="st0" d="M108.06 55.76l-2.21-.45-.44-2.23a1.12 1.12 0 0 0-.55-.67c-.33-.11-.66 0-.99.22l-2.54 2.57c.22-1.79.33-3.35.33-4.92-.11-23.69-19.21-43.02-42.6-43.02-2.43 0-4.75.22-6.73.56V4.58c0-1.34-1.1-2.46-2.43-2.46h-1.77V1.01c0-.45-.33-1.01-.99-1.01-.44 0-.99.34-.99 1.01v1.23h-4.53V1.01c0-.45-.33-1.01-.99-1.01-.44 0-.99.34-.99 1.01v1.23h-4.3V1.01c0-.56-.33-1.01-.99-1.01-.44 0-.99.34-.99 1.01v1.23h-1.99c-1.32 0-2.43 1.12-2.43 2.46v15.2c-7.95 7.93-12.36 18.77-12.36 30.5 0 23.69 19.09 43.02 42.49 43.02 10.26 0 20.2-3.8 27.92-10.62.77.22 1.66.34 2.54.34 1.55 0 2.98-.34 4.3-.89 1.1-.45 2.1-1.12 2.87-1.79.22-.22.55-.45.77-.67l.11-.22c.66-.67 1.21-1.34 1.77-2.23.11-.11.22-.34.33-.56.11-.22.22-.34.33-.56 0 0 .11-.11.11-.22.66-1.56.88-3.02.88-4.47 0-1.56-.33-3.02-.88-4.36-.22-.45-.77-.67-1.21-.45-.44.22-.66.78-.44 1.23.44 1.12.77 2.35.77 3.69 0 1.34-.22 2.57-.66 3.8l-.55 1.12c-.44.67-.88 1.34-1.32 1.9l-.22.22c-.11.11-.44.45-.66.56a7.9 7.9 0 0 1-2.54 1.45c-1.1.45-2.32.78-3.64.78-1.32 0-2.54-.22-3.75-.78-1.21-.45-2.21-1.23-3.2-2.23-.88-.89-1.43-1.9-1.99-3.13-.44-1.12-.77-2.35-.77-3.69 0-1.34.22-2.57.77-3.8.44-.89.88-1.68 1.43-2.46.11-.11.22-.22.33-.34s.22-.34.44-.45c.55-.56 1.21-1.12 1.88-1.34l.99-.45c.11 0 .11 0 .22-.11h.11c1.1-.45 2.32-.78 3.64-.78h.11c1.32 0 2.54.22 3.75.78.88.34 1.66.89 2.54 1.56l-2.65 2.68c-.33-.34-.77-.56-1.32-.78-.55-.22-1.1-.34-1.77-.45h-.55c-.44 0-.88.11-1.32.22-.22 0-.33.11-.44.11-.11 0-.33.11-.44.11-.77.34-1.43.78-1.88 1.12l-.11.11c-.33.34-.66.67-.77 1.01-.22.22-.33.67-.55 1.01-.44.78-.44 1.68-.44 2.35s.11 1.34.44 2.23c.33.78.77 1.45 1.21 1.9.55.56 1.32 1.12 1.88 1.34.77.34 1.55.45 2.21.45.88 0 1.55-.22 2.32-.45.33-.11.66-.34.88-.45h.11c.33-.22.66-.45.88-.67l.22-.22c.44-.45.88-1.01 1.1-1.79 0-.11.11-.34.11-.45.11-.11.11-.34.22-.56.11-.45.22-.89.22-1.34v-.45c0-.56-.44-.89-.99-.89s-.88.45-.88 1.01v.11c0 .34 0 .67-.11.89l-.22.78c-.11.45-.33.78-.88 1.23l-.11.11c-.11.11-.33.34-.66.45-.11.11-.22.11-.33.22-.11.11-.22.11-.33.22-.44.22-.88.34-1.55.34-.66 0-1.1-.11-1.55-.34-.44-.22-.88-.45-1.32-1.01-.33-.34-.66-.89-.88-1.34-.22-.45-.33-.89-.33-1.56s.11-1.12.33-1.56c.11-.22.22-.45.33-.67.11-.22.33-.45.66-.67.44-.34.77-.67 1.21-.78.11 0 .22-.11.33-.11.11 0 .22-.11.33-.11.33-.11.55-.11.88-.11h.33c.33 0 .66.11 1.21.34.33.11.55.22.77.45l-2.98 3.02c-.33.34-.33 1.01 0 1.34.11.11.33.22.66.22.22 0 .55-.11.66-.22L101 61.8l2.43.45h.11c.22 0 .44-.11.66-.22l4.53-4.58c.22-.22.33-.56.22-.89-.34-.47-.67-.69-.89-.8zm-1.99 1.45l-2.98 3.02-1.77-.34-.33-1.79 2.98-3.02.22 1.23c.11.34.33.56.66.67l1.22.23zM33.44 5.7c.11.56.44.89.88.89s.99-.34.99-1.01V4.02h4.53v1.79c.11.56.44.89.88.89s.99-.34.99-1.01V4.02h4.53v1.79c.11.56.44.89.88.89s.99-.34.99-1.01V4.02h1.66c.33 0 .66.34.66.67v22.46c0 .34-.33.67-.66.67H31.46c-.33 0-.66-.34-.66-.67V4.58c0-.34.33-.67.66-.67h1.99V5.7zm65.68 51.85v.34l.44 2.35-2.54 2.57c-.77-.78-1.77-1.45-3.09-2.01-1.43-.56-2.87-.89-4.41-.89-1.55 0-2.98.34-4.19.89-.11 0-.11 0-.22.11H85c-.44.22-.77.34-1.1.56-.77.45-1.55 1.01-2.21 1.68-.33.22-.66.67-.88 1.01-.77.89-1.32 1.9-1.66 2.79-.66 1.68-.88 3.02-.88 4.47 0 1.56.33 3.02.88 4.36.66 1.56 1.43 2.79 2.43 3.69 1.1 1.12 2.21 1.9 3.53 2.46a40.151 40.151 0 0 1-25.94 9.5c-22.41 0-40.62-18.44-40.62-41.12 0-10.39 3.86-20.34 10.71-27.93v4.58c0 1.34 1.1 2.46 2.43 2.46h18.1c1.32 0 2.43-1.12 2.43-2.46V9.72c2.1-.34 4.3-.56 6.73-.56 22.41 0 40.62 18.44 40.62 41.12 0 2.46-.22 4.8-.55 6.93.1.11.1.22.1.34z"/><path class="st0" d="M37.31 21.12c.88 0 1.66-.22 2.21-.78s.88-1.23.88-2.01c0-.56-.11-1.01-.44-1.34-.22-.22-.44-.45-.66-.67.22-.11.44-.34.55-.56.22-.34.44-.78.44-1.23 0-.89-.22-1.45-.77-2.01-.55-.45-1.21-.67-2.21-.67-.55 0-1.1.11-1.55.34-.44.22-.77.56-1.1.89-.22.45-.44.89-.44 1.34v.34h1.99v-.34c0-.22.11-.45.22-.67.22-.22.44-.22.77-.22s.55.11.77.22c.11.22.22.45.22.78 0 .34-.11.56-.33.78-.22.22-.44.22-.88.22h-1.1v1.68h1.1c.44 0 .77.11.99.34.22.22.33.45.33.78 0 .34-.11.67-.33.78-.22.22-.44.22-.88.22-.33 0-.66-.11-.77-.22-.22-.22-.33-.45-.33-.67v-.34h-1.77v.34c0 .78.33 1.45.88 1.9.55.55 1.32.78 2.21.78zM43.6 21.01h1.88v-9.05h-.44l-3.53 1.23v1.79l2.1-.67v6.7z"/><path class="st1" d="M132.01 62.57c-.44 0-3.97-.11-3.97-4.36 0-.45-.33-.78-.66-.78-.11 0-.33 0-.44.11-.11.11-.22.34-.22.56 0 4.25-3.53 4.36-3.97 4.36a.76.76 0 0 0-.77.78c0 .45.33.78.77.78s3.97.11 3.97 4.36c0 .45.33.78.77.78s.77-.34.77-.78c0-4.25 3.53-4.36 3.97-4.36h.11c.44 0 .66-.34.66-.78-.22-.33-.55-.67-.99-.67zm-2.76.79c-.66.34-1.33 1.01-1.88 1.9-.44-.78-1.1-1.45-1.88-1.9.66-.34 1.32-1.01 1.88-1.9a5.19 5.19 0 0 0 1.88 1.9zM12.14 12.63c0-4.25 3.53-4.36 3.97-4.36h.11c.44 0 .66-.34.66-.78 0-.45-.33-.78-.77-.78-.33 0-3.97-.11-3.97-4.36 0-.45-.33-.78-.66-.78-.11 0-.33 0-.44.11-.22.22-.33.45-.33.67 0 4.25-3.53 4.36-3.97 4.36a.76.76 0 0 0-.77.78c0 .45.33.78.77.78s3.97.11 3.97 4.36c0 .45.33.78.77.78s.66-.45.66-.78zm-.66-3.24c-.44-.78-1.1-1.45-1.88-1.9.55-.34 1.32-1.01 1.88-1.9.44.78 1.1 1.45 1.88 1.9-.56.33-1.33.89-1.88 1.9zM124.61 87.16c-.55 0-5.85-.22-5.85-6.37a.87.87 0 0 0-.88-.89c-.22 0-.44 0-.55.22-.22.22-.33.45-.33.67 0 6.26-5.19 6.37-5.85 6.37-.55 0-.88.45-.88 1.01s.44.89.88.89c.55 0 5.85.22 5.85 6.37 0 .56.44.89.88.89s.88-.45.88-.89c0-6.26 5.19-6.37 5.85-6.37h.11c.55-.11.88-.45.88-.89-.1-.57-.55-1.01-.99-1.01zm-3.75 1c-.99.56-2.21 1.45-2.98 3.02-.66-1.23-1.65-2.23-2.98-3.02.99-.56 2.21-1.45 2.98-3.02.66 1.23 1.66 2.24 2.98 3.02zM115.67 20.78a2 2 0 0 0 1.99-2.01 2 2 0 0 0-1.99-2.01 2 2 0 0 0-1.99 2.01c.01 1.11.89 2.01 1.99 2.01zM1.99 63.24a2 2 0 0 0 1.99-2.01 2 2 0 0 0-1.99-2.01A2 2 0 0 0 0 61.23a2 2 0 0 0 1.99 2.01z"/></svg>