<svg version="1.1" id="Layer_1" xmlns="http://www.w3.org/2000/svg" x="0" y="0" viewBox="0 0 137 99" xml:space="preserve"><style>.st0{fill:#fff}.st1{fill:#f5b810}</style><path class="st0" d="M65.72 8.01h2.2c.52 0 1.15-.41 1.15-1.13 0-.51-.42-1.03-1.15-1.03h-2.2c-.52 0-1.05.41-1.05 1.03-.1.62.32 1.13 1.05 1.13z"/><path class="st0" d="M106.18 38.72H87.42l-4.09-10.06c-.52-1.44-1.89-2.36-3.46-2.36h-4.19v-1.44-.21c.31-4.52 0-6.57-.21-7.6-.52-2.26-1.15-3.39-1.78-4.31-.1-.21-.21-.41-.42-.62-.31-.62-.42-1.64-.52-2.16.42-.62.52-1.13.52-1.85-.1-2.36-.21-4.72-.21-7.09 0-.51-.42-1.03-1.05-1.03-.52 0-1.15.41-1.15 1.03 0 2.26.1 4.62.21 7.19 0 .21-.1.41-.21.51H57.44l-.21-.1c-.1-.1-.1-.21-.1-.51.1-1.64.21-3.29.21-4.93 0-.51-.42-1.13-1.05-1.13-.52 0-1.05.41-1.05 1.03 0 1.64-.1 3.29-.21 4.93 0 .82.31 1.64.73 2.05l.1.1v1.03c0 1.13-.52 2.16-1.47 2.67-1.78 1.13-2.83 3.08-2.93 5.13v7.19h-4.09c-1.47 0-2.93.92-3.46 2.36L39.82 38.6H20.96c-1.78 0-3.25 1.44-3.25 3.18V95.8c0 1.75 1.47 3.18 3.25 3.18h85.22c1.78 0 3.25-1.44 3.25-3.18V42a3.25 3.25 0 0 0-3.25-3.28zM57.86 11.19v-.31h12.79v.1c.1.62.21 1.54.63 2.16.1.21.21.41.42.72l.21.31c.42.82 1.05 1.75 1.36 3.39.31 1.23.31 3.8.1 7.19v6.89c0 .41-.21.72-.31.82-.21.21-.52.31-.84.31-.63 0-1.05-.51-1.05-1.03v-6.88c0-.51-.42-1.03-1.15-1.03-.52 0-1.05.41-1.05 1.03v8.73c0 .41-.1.62-.31.82-.1.1-.42.31-.84.31-.63 0-1.15-.51-1.15-1.23v-7.5c0-.51-.42-1.03-1.05-1.03-.52 0-1.15.41-1.15 1.03v9.04c0 .41-.1.62-.31.82-.21.21-.52.31-.84.31-.63 0-1.05-.51-1.05-1.13v-9.24c0-.51-.42-1.03-1.15-1.03-.52 0-1.05.41-1.05 1.03v7.5c0 .41-.1.62-.31.82-.21.21-.52.31-.73.31-.63 0-1.15-.51-1.15-1.03v-11.3c0-.51-.42-1.03-1.05-1.03-.52 0-1.15.41-1.15 1.03v3.9h-1.99v-6.57c0-1.54.73-2.98 2.1-3.9 1.23-.94 2.07-2.58 2.07-4.33zm-8.8 21.06c0-.1.31-.51.84-.51h5.87v1.54c0 1.75 1.47 3.18 3.25 3.18.52 0 .94-.1 1.36-.31.42 1.23 1.68 2.05 3.04 2.05.84 0 1.68-.31 2.31-.92.31-.31.52-.62.63-.92.42.21.94.31 1.47.31.63 0 1.36-.21 1.89-.62 0 0 .1-.1.21-.1.1-.1.21-.1.21-.21l.21-.21c0-.1.1-.1.1-.21l.1-.1c.1-.1.1-.21.1-.21s0-.1.1-.1h.1l.1-.1c0-.1.1-.21.1-.21 1.15.41 2.62.21 3.56-.72.52-.51.84-1.33.94-2.05h1.57c.52 0 .94.31.94.51v6.47h-29v-6.56zm6.7-2.57h-5.87c-1.57 0-2.93 1.13-2.93 2.57v6.47h-5.14l3.88-9.45c.31-.62.94-1.03 1.57-1.03h8.49v1.44zm21.28 0h-1.57v-1.44h4.3c.73 0 1.36.41 1.68 1.03l3.77 9.45h-5.14v-6.47c-.1-1.44-1.47-2.57-3.04-2.57zM60.38 74.35V72.6h6.29v1.75h-6.29zm1.67 16.64V76.51h2.83v14.48c0 .82-.63 1.34-1.36 1.34-.73-.01-1.47-.62-1.47-1.34zm.11-20.33v-11.5h2.83v11.5h-2.83zM43.08 97.05L20.02 74.46l-.21-.21V50.42c5.56 10.89 21.49 18.59 40.15 19.41v.82h-.63c-.52 0-1.15.41-1.15 1.03v3.8c0 .51.42 1.03 1.15 1.03h.63v14.38c0 1.85 1.57 3.39 3.56 3.39s3.46-1.54 3.46-3.39V76.51h.73c.52 0 1.05-.41 1.05-1.03v-3.9c0-.51-.42-1.03-1.05-1.03h-.63v-.72c18.76-.82 34.7-8.63 40.25-19.41v24.34L84.59 97.05H43.08zm24-37.79h2.2c.52 0 1.05-.41 1.05-1.03 0-.51-.42-1.03-1.05-1.03H57.86c-.52 0-1.05.41-1.05 1.03 0 .51.42 1.03 1.05 1.03h2.2v8.63c-22.64-1.13-40.25-12.32-40.25-25.67V42c0-.72.63-1.23 1.15-1.23h85.22c.73 0 1.15.51 1.15 1.23v.21c0 13.35-17.61 24.65-40.25 25.67v-8.62zM40.04 97.05H20.96c-.52 0-1.15-.51-1.15-1.13V77.23l20.23 19.82zm67.3-19.41v18.28c0 .72-.53 1.13-1.15 1.13H87.52l19.82-19.41z"/><path class="st1" d="M21.17 22.28c.42 0 3.77.1 3.77 4.01 0 .41.31.72.73.72s.73-.31.73-.72c0-3.9 3.35-4.01 3.77-4.01h.1c.42 0 .63-.31.63-.72s-.31-.72-.73-.72-3.77-.1-3.77-4.01c0-.41-.31-.72-.63-.72-.21 0-.31 0-.42.1-.1.1-.21.31-.21.51 0 3.9-3.35 4.01-3.77 4.01s-.73.31-.73.72c-.1.53.22.83.53.83zm2.73-.61c.63-.31 1.26-.92 1.78-1.75a4.82 4.82 0 0 0 1.78 1.75c-.63.31-1.26.92-1.78 1.75-.42-.72-.94-1.34-1.78-1.75zM136.06 90.78c-.42 0-3.77-.1-3.77-4.01 0-.41-.32-.72-.63-.72-.21 0-.32 0-.42.1-.1.1-.21.31-.21.51 0 3.9-3.35 4.01-3.77 4.01-.42 0-.73.31-.73.72s.31.72.73.72 3.77.1 3.77 4.01c0 .41.31.72.73.72s.73-.31.73-.72c0-3.9 3.35-4.01 3.77-4.01h.1c.42 0 .63-.31.63-.72-.31-.3-.62-.61-.93-.61zm-2.62.72c-.63.31-1.26.92-1.78 1.75a4.897 4.897 0 0 0-1.78-1.75c.63-.31 1.26-.92 1.78-1.75.31.73.94 1.24 1.78 1.75zM13.63 32.25c-.52 0-5.56-.21-5.56-5.85 0-.51-.42-.82-.84-.82-.21 0-.42 0-.52.21-.21.21-.31.41-.31.62 0 5.75-4.93 5.85-5.56 5.85-.53-.01-.84.4-.84.91s.42.82.84.82c.52 0 5.56.21 5.56 5.85 0 .51.42.82.84.82.52 0 .94-.41.94-.82 0-5.75 4.93-5.85 5.56-5.85h.1c.52-.1.84-.41.84-.82-.11-.51-.53-.92-1.05-.92zm-3.46.92c-.94.51-2.1 1.33-2.83 2.77-.63-1.13-1.57-2.05-2.83-2.77.94-.51 2.1-1.34 2.83-2.77.52 1.13 1.46 2.05 2.83 2.77zM117.29 29.78c1.04 0 1.89-.83 1.89-1.85s-.85-1.85-1.89-1.85-1.89.83-1.89 1.85c.01 1.03.85 1.85 1.89 1.85zM6.18 71.89c1.04 0 1.89-.83 1.89-1.85s-.84-1.85-1.89-1.85c-1.04 0-1.89.83-1.89 1.85a1.88 1.88 0 0 0 1.89 1.85z"/></svg>