<svg id="Layer_1" xmlns="http://www.w3.org/2000/svg" viewBox="0 0 643 491"><style>.st1{fill:#f2f2f2}.st3{fill:#e6e6e6}.st4{fill:#fff}.st5{fill:#d5d5db}.st6{fill:#662d91}.st11{fill:#f9bb0e}.st12{fill:#bb8c0b}</style><path d="M553.67 26.08c21.64-10.44 53.91-16.05 89.27-15.65l.11-9.99c-36.22-.41-70.19 5.29-93.73 16.64-11.78 5.68-21.33 12.97-27.06 22.01-5.85 9.23-7.46 19.93-3.89 31.59 6.16 20.08 6.6 36.41 2.4 47.77-4.03 10.92-12.54 17.84-26.31 19.27-7.41.77-17.11.68-28.11.42-2.12-.05-4.29-.11-6.49-.17-9.06-.24-18.68-.5-28.03-.38-11.61.15-23.12.89-33.03 3.05-9.8 2.14-18.79 5.83-24.54 12.51-3.81 4.42-11.15 8.51-21.11 12.04-9.79 3.47-21.41 6.16-33.05 8.2-23.3 4.09-46.01 5.48-52.82 5.48v9.99c7.44 0 30.73-1.44 54.55-5.63 11.93-2.09 24.15-4.9 34.66-8.63 10.34-3.66 19.76-8.46 25.35-14.93 3.64-4.23 10.07-7.29 19.1-9.27 8.92-1.95 19.64-2.67 31.02-2.82 9.13-.12 18.5.13 27.54.37 2.22.06 4.43.12 6.6.17 10.91.26 21.24.38 29.38-.47 17.32-1.8 29.22-11.03 34.66-25.74 5.27-14.27 4.25-33.07-2.22-54.16-2.74-8.93-1.48-16.6 2.78-23.31 4.38-6.9 12.15-13.14 22.97-18.36z" fill="#85879b"/><path class="st1" d="M168.39 202.08c-6.77-6.33-17.48-5.95-23.79.85l-41.35 44.55-47.6-4.98c-8.43-.88-16.05 5.32-16.93 13.78-.88 8.46 5.3 16.1 13.73 16.98l58.7 6.14c4.99.52 9.68-1.45 12.87-4.88.44-.39.87-.8 1.28-1.24l43.93-47.34c6.32-6.78 5.93-17.53-.84-23.86"/><path d="M267.2 309.39l-55.04 9.76c-12.83 2.27-25.19-6.4-27.46-19.28l-20.36-115.65c-2.27-12.88 6.38-25.28 19.21-27.55l55.03-9.76c12.84-2.27 25.19 6.4 27.46 19.28l20.36 115.65c2.28 12.87-6.36 25.27-19.2 27.55" fill="#bfbfbf"/><path class="st3" d="M286.43 282.42l-20.36-115.65c-2.27-12.88-14.63-21.55-27.46-19.28l-55.03 9.76c-8.14 1.44-14.59 6.97-17.64 14.1 1.63-.7 3.34-1.24 5.15-1.56l55.03-9.76c12.84-2.27 25.19 6.4 27.46 19.28l20.36 115.65c.83 4.71.19 9.35-1.58 13.46 9.9-4.24 16.02-14.94 14.07-26"/><path class="st3" d="M212.18 319.73c-12.84 2.28-25.19-6.4-27.46-19.28L164.36 184.8c-.83-4.71-.18-9.35 1.57-13.46-9.9 4.24-16.02 14.93-14.07 26l20.36 115.65c2.27 12.88 14.63 21.56 27.46 19.28l55.04-9.76c8.14-1.44 14.59-6.97 17.64-14.1-1.62.7-3.34 1.24-5.15 1.56l-55.03 9.76z"/><path class="st4" d="M213.53 375.5c-.27-.07-.54-.16-.82-.23l.59.89c.08-.23.15-.44.23-.66zm81.14 114.54c-16.55 2.37-21.21-6.75-23.64-13.64-2.73-7.77-1.18-23.72-1.18-23.72s-4.12-.3-10.22-1.17c-1.02 2.6-.81 1.59-1.6 4.13-3.54 7.12-8.27 13.05-24.82 13.05s-15.96-17.2-18.32-31.43c-5.32-2.37-8.27-8.9-8.27-8.9s-14.19.59-32.51-10.08c-16.36-9.53-13.81-45.5-7.66-68.33-.04-.39 3.7-8.88.61-16.18-23.26-45.29-24.32-114.51-13.16-152.36 0 0 23.22-5.23 58.18-6.55 34.96-1.31 25.96 41.69 59.35 92.79 23.88 36.54 29.81 61.38 20.34 84.84-5.4 13.38-20.16 42.66-20.16 42.66s11.82 2.96 20.68 5.34c8.86 2.37 8.27 8.89 8.27 8.89l4.73 1.19c18.32 5.34 15.37 11.27 17.73 29.06 4.16 36.17-11.8 48.04-28.35 50.41z"/><path class="st5" d="M145.83 228.38s-28.08 38.69-38.56 39.9c-10.48 1.21-59.25-5.26-59.25-5.26l-3.87 6.33c2.34 2.12 5.33 3.56 8.69 3.91l58.7 6.14c4.99.52 9.68-1.45 12.87-4.88.44-.39.87-.8 1.28-1.24l20.8-22.41-.66-22.49z"/><path class="st6" d="M150.25 197.76c.28-.97.41-2.04-.76-2.3-1.71-.38-4.74 1.44-5.14 4.47-.21 1.58-1.81 11.05-1.61 28.91.2 17.86 2.32 24.32 2.62 25.28.3.96 1.11 1.35 1.61 1.35s1.21 0 1.11-1.31c-.1-1.31-1.01-22.02-1.01-24.46 0-2.43 2.22-28.64 3.18-31.94"/><path class="st5" d="M271.62 395.15c37.49-63.69 31.21-79.6.12-127.74-24.3-37.61-27.43-74.08-40.73-86.35l-14.03 13.45c27.79 75.7 92.48 142.52 54.64 200.64"/><path class="st3" d="M224.56 171.02l-2.62-7.82c-2.01-6.63-21.06-6.69-42.53-.12-21.48 6.56-37.26 17.26-35.25 23.89l2.62 7.82c2.01 6.63 21.38 9.9 42.85 3.34 21.48-6.57 36.94-20.48 34.93-27.11"/><path d="M206.62 178.1l5.39 9.42s-3.04 2.11 1.61-1.15c5.9-4.14 12.18-10.57 10.95-15.35-2.51-7.4-2.22-6.61-2.22-6.61l-15.73 13.69z" fill="#adadad"/><path class="st4" d="M237.23 126.58c-3.51 39.6-38.35 68.84-77.82 65.32-39.46-3.53-68.61-38.49-65.09-78.09 3.51-39.6 38.36-68.84 77.82-65.32 39.46 3.53 68.61 38.49 65.09 78.09"/><path class="st5" d="M160.6 51.78c-19.77 2.13-36.56 12.76-47.19 27.88a65.895 65.895 0 0 1 31.26-11.85c36.47-3.92 69.21 22.56 73.12 59.16 1.79 16.76-2.79 32.73-11.77 45.5 19-13.51 30.35-36.64 27.69-61.52-3.89-36.61-36.63-63.1-73.11-59.17"/><path class="st3" d="M121.44 176.84s28.73 4.28 44.9-5.5c16.16-9.77 29.17-28.29 22.9-50.1l2.92-.69 2.34 12.83c2.34 12.87-5.07 36.99-26.91 46.26-21.84 9.28-46.15-2.8-46.15-2.8"/><path d="M190.12 125.43c5.01 21.53-11.59 43.83-37.08 49.8-25.49 5.97-50.21-6.64-55.22-28.18-5.01-21.53 11.59-43.83 37.08-49.8 25.49-5.97 50.21 6.65 55.22 28.18" fill="#1d1f33"/><path class="st4" d="M168.73 103.91c9.57 4.88 16.05 12.78 18.25 22.25 2.2 9.47-.12 19.43-6.54 28.06-6.55 8.8-16.54 15.13-28.12 17.85-11.59 2.71-23.34 1.47-33.09-3.51-9.57-4.88-16.05-12.79-18.25-22.25-4.6-19.76 10.96-40.36 34.67-45.91 4.21-.99 8.45-1.45 12.6-1.4 7.25.09 14.27 1.74 20.48 4.91zm-14.95 74.47c13.07-3.06 24.37-10.26 31.82-20.28 7.58-10.18 10.3-22.05 7.66-33.41-2.64-11.36-10.32-20.79-21.61-26.55-11.11-5.67-24.42-7.1-37.48-4.04-27.18 6.37-44.89 30.45-39.48 53.68 2.64 11.36 10.32 20.79 21.61 26.55 7.09 3.62 15.09 5.51 23.34 5.61 4.66.06 9.42-.46 14.14-1.56z"/><g opacity=".3"><path d="M135.2 114.7c.77-.8.37-2.81 1.68-3.2 1.31-.39 3.38-2.34 3.38-2.34s.79-.47 1.96-.32c1.17.14 2.31-.1 2.81-.21.5-.12 5.9-1.56 10.72.93 1.78-.18 2.08-.4 3.26.45 1.18.85 2.13 1.31 2.83 2.11.71.8 1.15 2.31 1.69 2.93.54.62 3.95 3.82 4.31 10.33.35 6.51-2.19 12.05-6.46 15.72-.57 1.56-1.02 2.91-3.23 3.96-2.22 1.04-5.41 1.46-8.73.58-3.41-.29-4.77-.83-6.2-1.13-1.43-.29-2.89-.39-2.89-.39s-1.49-1.36-2.38-2.09c-.89-.74-2.27-1.47-2.52-2.08-.25-.6.06-.39-.18-.85-.24-.46-2.93-3.25-3.95-7.17-.78-.55-1.55-2.03-1.47-2.62.08-.59.75-1.19.75-1.19s-.03-4.65.66-6.47c.7-1.8 2.16-5.09 3.96-6.95" fill="#f9cb4c"/><path class="st11" d="M142.08 131.5c-.07 1.47-1.25 2.61-2.64 2.54-1.39-.07-2.46-1.31-2.4-2.78.07-1.47 1.25-2.6 2.64-2.54 1.39.07 2.47 1.31 2.4 2.78"/><path class="st12" d="M139.32 134.8c-1.66-.08-2.94-1.56-2.86-3.31.02-.48.14-.92.34-1.32-.36.5-.58 1.1-.61 1.77-.08 1.75 1.2 3.23 2.86 3.31 1.21.06 2.28-.65 2.81-1.71-.58.81-1.51 1.31-2.54 1.26"/><path class="st12" d="M139.68 128.72c-.82-.04-1.57.34-2.06.96.44-.32.97-.5 1.55-.47 1.39.07 2.46 1.31 2.39 2.78-.03.6-.24 1.15-.59 1.58.63-.46 1.06-1.21 1.1-2.07.08-1.47-1-2.71-2.39-2.78"/><path class="st11" d="M161.74 121.84c.61.56.69 1.47.18 2.02-.51.56-1.42.55-2.02-.01-.61-.56-.69-1.47-.18-2.02.51-.56 1.42-.55 2.02.01"/><path class="st12" d="M162.21 124.18c-.61.66-1.69.66-2.41-.01-.2-.18-.35-.39-.45-.62.09.33.28.64.55.9.73.67 1.81.68 2.41.01.44-.48.51-1.18.24-1.79.15.53.04 1.1-.34 1.51"/><path class="st12" d="M159.72 121.83c-.3.33-.39.78-.3 1.2.01-.3.12-.59.33-.81.51-.56 1.42-.55 2.03.01.25.23.41.52.48.82.02-.43-.15-.88-.51-1.21-.61-.56-1.52-.57-2.03-.01"/><path class="st11" d="M152.13 126.18c.12 1.2-.76 2.27-1.95 2.39a2.187 2.187 0 0 1-.44-4.35c1.2-.12 2.27.76 2.39 1.96"/><path class="st12" d="M150.17 129.21c-1.43.14-2.7-.91-2.84-2.34-.04-.39.01-.77.13-1.12-.25.45-.36.97-.31 1.52a2.602 2.602 0 0 0 2.84 2.34c1.04-.1 1.87-.81 2.19-1.74-.39.73-1.12 1.25-2.01 1.34"/><path class="st12" d="M149.74 124.22c-.71.07-1.3.47-1.64 1.04.34-.31.77-.53 1.26-.57a2.187 2.187 0 0 1 2.08 3.32c.48-.45.76-1.11.69-1.82a2.188 2.188 0 0 0-2.39-1.97"/><path class="st11" d="M141.03 119.36c-.17.76-.97 1.23-1.79 1.04-.82-.19-1.34-.95-1.17-1.71.17-.76.97-1.23 1.79-1.04.82.18 1.34.95 1.17 1.71"/><path class="st12" d="M139.11 120.78c-.97-.22-1.6-1.13-1.39-2.04.05-.25.17-.47.32-.65-.26.22-.44.51-.52.86-.21.9.42 1.82 1.39 2.04.71.16 1.41-.09 1.81-.59-.41.36-1.01.52-1.61.38"/><path class="st12" d="M139.86 117.64c-.48-.11-.96.01-1.3.28.29-.12.62-.15.95-.08.82.18 1.34.95 1.17 1.71-.07.31-.25.57-.49.76.41-.17.73-.52.83-.96.18-.75-.34-1.52-1.16-1.71"/><path class="st11" d="M155 137.07c.54 1.84-.48 3.76-2.26 4.28-1.79.53-3.68-.53-4.22-2.37-.54-1.84.48-3.76 2.26-4.29 1.79-.53 3.68.54 4.22 2.38"/><path class="st12" d="M152.92 142.34c-2.13.63-4.38-.64-5.02-2.83-.17-.6-.21-1.2-.13-1.78a4.17 4.17 0 0 0-.02 2.45c.64 2.19 2.89 3.46 5.02 2.83 1.55-.46 2.61-1.79 2.83-3.33-.4 1.25-1.36 2.27-2.68 2.66"/><path class="st12" d="M150.79 134.69a3.324 3.324 0 0 0-2.19 2.08c.42-.58 1.02-1.04 1.75-1.25 1.79-.53 3.68.54 4.22 2.37.22.76.18 1.52-.07 2.2.6-.84.83-1.95.51-3.03-.55-1.83-2.44-2.9-4.22-2.37"/><path class="st11" d="M155.35 115.87c-.19 1.93-2.03 3.33-4.12 3.13-2.09-.21-3.63-1.94-3.44-3.87.19-1.93 2.03-3.33 4.12-3.13 2.09.21 3.63 1.94 3.44 3.87"/><path class="st12" d="M151.02 119.99c-2.49-.24-4.33-2.31-4.1-4.61.06-.63.27-1.21.59-1.71-.57.62-.94 1.41-1.02 2.28-.22 2.3 1.61 4.36 4.1 4.61 1.81.18 3.47-.66 4.32-2.01-.92 1.01-2.35 1.59-3.89 1.44"/><path class="st12" d="M151.91 112c-1.23-.12-2.38.32-3.15 1.09.68-.38 1.49-.57 2.35-.49 2.09.21 3.63 1.94 3.44 3.87-.08.79-.44 1.49-.98 2.03.97-.55 1.66-1.5 1.77-2.64.2-1.92-1.34-3.66-3.43-3.86"/><path class="st4" d="M122.05 139.93c.05.56-.35 1.05-.9 1.11-.56.05-1.05-.35-1.1-.91-.06-.56.35-1.05.9-1.11.55-.05 1.05.36 1.1.91m34.43 16.28c.04.44-.28.84-.72.88a.807.807 0 0 1-.88-.72c-.04-.45.28-.84.72-.89.44-.04.83.28.88.73m-3.85 6.81c.04.44-.28.84-.72.89a.808.808 0 0 1-.88-.73c-.04-.44.28-.84.72-.88.44-.04.83.28.88.72m16.22-57.63c.04.44-.28.84-.72.89a.807.807 0 0 1-.88-.72c-.04-.44.28-.84.72-.89a.8.8 0 0 1 .88.72m16.62 18.46c.03.33-.21.63-.54.66a.605.605 0 0 1-.66-.54c-.03-.33.21-.63.54-.66.33-.03.62.21.66.54m-9.42 17.4c.04.44-.28.84-.72.88a.807.807 0 0 1-.88-.72c-.04-.44.28-.84.72-.89.44-.04.84.28.88.73m-48.46-27.17a.7.7 0 0 1-.63.77.707.707 0 0 1-.77-.64c-.04-.39.24-.73.63-.77.39-.03.74.25.77.64m10.43 35.74c.04.39-.24.74-.63.77a.706.706 0 0 1-.77-.63c-.04-.39.24-.74.63-.77.38-.05.73.24.77.63m-12.23 1.22c.04.39-.24.74-.63.77a.707.707 0 0 1-.77-.64c-.04-.39.24-.73.63-.77.38-.04.73.25.77.64m15.63 8.6c.02.17-.1.32-.27.33-.17.02-.31-.1-.33-.27a.29.29 0 0 1 .27-.33c.17-.02.31.1.33.27m23.26-12.58s-.13.01-.3.03c-.17.02-.3.03-.3.03s.13-.01.3-.03c.17-.02.3-.03.3-.03m8.44 9.62c.03.28-.17.53-.45.55a.504.504 0 0 1-.55-.45c-.03-.28.18-.53.45-.55.28-.03.53.17.55.45m17.67-19.95c.05.55-.35 1.05-.9 1.11-.55.06-1.05-.35-1.1-.91-.05-.56.35-1.05.9-1.11.55-.05 1.05.35 1.1.91m-10.33-4.15c.04.39-.24.74-.63.77a.707.707 0 0 1-.77-.64c-.04-.39.25-.73.63-.77.38-.03.73.25.77.64m-6.37 13.33s-.18.02-.4.04c-.22.02-.4.04-.4.04s.18-.02.4-.04l.4-.04m.21-20.34c.04.44-.28.84-.72.89a.8.8 0 0 1-.88-.72c-.04-.44.28-.84.72-.89.44-.04.84.28.88.72m.23-11.91a.9.9 0 0 1-.81.99c-.5.05-.94-.31-.99-.81s.32-.95.81-1c.5-.04.95.32.99.82m7.17-9.45c.05.5-.32.94-.81 1s-.94-.32-.99-.82a.91.91 0 0 1 .81-1c.49-.04.94.32.99.82m-51.66 36.61c0-.04-.04-.07-.07-.06-.04 0-.06.04-.06.07 0 .04.04.06.07.06.04 0 .06-.03.06-.07m-5.64-11.96c.02.22-.14.42-.36.44a.403.403 0 0 1-.44-.36c-.02-.22.14-.42.36-.44.22-.03.42.13.44.36m-2.62 6.29c0-.04-.04-.07-.07-.06-.04 0-.06.04-.06.07 0 .04.04.06.07.06.04 0 .07-.04.06-.07m-4.49-3.08c.03.33-.21.63-.54.66a.605.605 0 0 1-.66-.54c-.03-.33.21-.63.54-.66.33-.04.63.21.66.54m-.15 6.66a.202.202 0 0 0-.22-.18c-.11.01-.19.11-.18.22.01.11.11.19.22.18.11-.01.19-.11.18-.22m10.2 10.29c.01.15-.09.28-.24.3-.15.01-.28-.09-.29-.24-.01-.15.09-.28.24-.29.15-.03.28.08.29.23m-.38 7.08c.04.37-.23.7-.6.74-.37.04-.7-.24-.73-.61-.04-.37.23-.7.6-.74.37-.03.7.24.73.61m6.99-.36c.02.19-.12.35-.3.37a.343.343 0 0 1-.37-.3.337.337 0 0 1 .67-.07m13.91-4.03c.01.15-.09.28-.24.3-.15.01-.28-.09-.29-.24-.01-.15.09-.28.24-.29.14-.02.28.09.29.23m-11.69-8.92a.472.472 0 1 1-.52-.42c.27-.03.5.16.52.42m26.93 8.76c.01.15-.09.28-.24.29-.15.01-.28-.09-.29-.24-.01-.15.09-.28.24-.29.14-.02.28.09.29.24m2.14 9.27a.674.674 0 1 1-1.34.14.674.674 0 0 1 1.34-.14m-15.01-2.91a.74.74 0 0 1-.66.81.74.74 0 0 1-.81-.66.74.74 0 0 1 .66-.81c.41-.04.77.26.81.66m32.2-40.19a.74.74 0 0 1-.66.81.734.734 0 0 1-.81-.66.74.74 0 0 1 .66-.81c.4-.05.77.25.81.66m-24.97-14.98c.01.11-.07.21-.18.22a.202.202 0 0 1-.22-.18c-.01-.11.07-.21.18-.22.11-.02.21.07.22.18m28.09 42.44c.03.26-.16.49-.42.52a.457.457 0 0 1-.51-.42c-.03-.26.16-.49.42-.52.26-.03.49.16.51.42m-12.83-13.05c.02.17-.1.32-.27.33a.31.31 0 0 1-.33-.27c-.02-.17.11-.31.27-.33.16-.02.31.1.33.27m19.48-1.94c.02.17-.1.32-.27.33a.29.29 0 0 1-.33-.27c-.02-.17.11-.31.27-.33.17-.02.32.1.33.27m-17.89 18.04c.02.17-.11.32-.27.33-.17.02-.31-.1-.33-.27a.31.31 0 0 1 .27-.33c.17-.02.32.1.33.27m-3.19-32.19c.02.17-.1.32-.27.33a.29.29 0 0 1-.33-.27c-.02-.17.1-.32.27-.33s.32.1.33.27m-.99-16.13c.02.22-.14.42-.36.44a.403.403 0 0 1-.44-.36c-.02-.22.14-.42.36-.44.22-.02.42.14.44.36"/></g><path d="M106.87 150.85c8.54 15.97 33.03 21.29 54.69 11.88a55.18 55.18 0 0 0 7.01-3.66c-19.92 5.99-40.69.26-48.42-14.18-7.56-14.13-.09-31.86 16.75-42.27-2.11.63-4.2 1.4-6.28 2.3-21.66 9.4-32.29 29.96-23.75 45.93" opacity=".641" fill="#fff"/><path class="st1" d="M49.11 244.82c-2.69-5.93-3.88-6.99-6.9-9.24-3.02-2.24-18.93-3.03-18.93-3.03l-2.55 1.97s-9.21-2.43-11.42-2.41c-2.21.01-8.07 3.11-5.98 9.14-1.58 2.14-4.53 5.49-1.34 8.5-1.23 1.29-2.6 5.61-.69 8.13-.55.96-.96 3.12.97 4.93 1.38 1.29 4.35 2.27 7.49 3.08 6.16 1.58 7.14 1.03 7.14 1.03s14.36 4.39 17.27 3.79c2.91-.6 8.52-1.12 10.83-6.85 4.91-7.44 4.11-19.04 4.11-19.04"/><path class="st5" d="M.9 260.2c.4.38.72.83 1.09 1.09.38.27.8.46 1.24.63.89.33 1.87.54 2.84.77l5.92 1.29 1.49.36c.46.1.91.21 1.36.29.89.17 1.77.24 2.48.13.7-.11 1.26-.37 1.69-1.11.44-.73.62-1.76.72-2.85.63.91.98 2.03.87 3.3-.09.63-.32 1.31-.77 1.88-.46.56-1.08.98-1.7 1.25-2.54.98-4.96.35-6.89-.13-2.03-.52-4.05-1.16-6-2.12-.98-.46-1.93-1.04-2.81-1.79-.42-.41-.85-.83-1.11-1.39-.29-.53-.31-1.08-.42-1.6"/><path class="st5" d="M.45 253.12c.34 1.3.71 2.3 1.43 3.22.43.54 1.53.84 2.61 1.08 2.24.45 4.66.7 7.06 1.11 1.22.2 2.41.43 3.49.57 1.11.17 2.2.16 3.17.03.97-.18 1.76-.55 2.28-1.41.53-.86.68-2.1.64-3.36.7 1.06 1.1 2.4.83 3.88-.15.73-.54 1.46-1.09 2.04-.55.59-1.25.97-1.93 1.24-2.77 1.03-5.56.55-7.89.2-2.44-.38-4.87-.87-7.33-1.83-.62-.27-1.23-.55-1.84-.96-.58-.42-1.25-1.02-1.53-1.87-.19-.65-.29-1.34-.28-2.02-.02-.7.24-1.33.38-1.92m.55-8.24c-.26 1.28.11 2.51.87 3.18.72.67 1.91 1.03 3.01 1.37 2.28.63 4.71 1.04 7.14 1.48 2.47.4 4.81 1 6.89.71 1.01-.16 1.87-.49 2.41-1.36.57-.86.74-2.14.69-3.43.73 1.09 1.13 2.49.8 4.02-.19.75-.62 1.5-1.22 2.05-.6.56-1.32.92-2.03 1.18-2.89.94-5.66.42-8.12 0-2.53-.49-5.07-1.15-7.48-2.42-1.19-.64-2.39-1.41-3.24-2.76-.79-1.36-.55-3.03.28-4.02"/><path class="st5" d="M2.98 237.34c.25 1.2.75 2.37 1.39 3.1.6.53 1.75.93 2.81 1.29 2.2.7 4.54 1.32 6.82 2.11 1.17.42 2.24.77 3.28 1.1 1.03.28 2.1.49 3.01.42.9-.08 1.69-.38 2.24-1.25.6-.83.89-2.02 1.04-3.26.54 1.14.75 2.48.41 3.89-.17.71-.59 1.38-1.14 1.97-.59.55-1.31.9-2.03 1.13-2.92.76-5.64-.18-7.84-.92-2.29-.79-4.56-1.65-6.8-2.88-1.1-.66-2.27-1.3-3.12-2.76-.52-1.41-.49-2.72-.07-3.94"/><path class="st3" d="M16.68 236.53l6.63-3.21 2.72.23.25 4.88-9.6-1.9z"/><path class="st5" d="M27.34 252.4c4.79 2.45 11.53 3.74 15.6.83-3.28 6.12-16.39 7.69-24.84-1.91 6.76.89 9.24 1.08 9.24 1.08"/><path class="st1" d="M29.95 233.2c-4.56-.9-9.03-2.29-10.31 3.92-1.29 6.21-3.76 12.93-2.34 13.98 1.42 1.05 4.43 2.19 7.66 2.65 3.23.47 4.19-1.58 5.31-5.71 1.12-4.13 1.33-7.01 1.33-7.01"/><path class="st5" d="M29.95 233.2c-2.14-.05-4.38-.42-6.22.07-1.84.45-2.53 2.1-2.84 4.02-.3 2.15-.82 4.29-1.27 6.38l-.71 3.09c-.21 1-.41 2.05-.42 2.86-.01.22 0 .35.01.46 0 .06.01-.02-.01-.01-.01.01-.1-.22-.23-.25.25.2.69.46 1.09.66.85.43 1.79.77 2.74 1.08.95.32 1.93.57 2.92.76.93.18 1.56.16 2.07-.16.55-.33 1.04-1.18 1.45-2.08.43-.91.79-1.92 1.15-2.92.73-1.99 1.36-4.04 1.91-6.14.15 2.18-.06 4.36-.38 6.53-.19 1.08-.39 2.15-.7 3.26-.33 1.08-.73 2.3-1.88 3.33-.57.5-1.33.84-2.05.97-.72.14-1.41.08-2 .02-1.13-.13-2.24-.34-3.35-.62-1.11-.29-2.18-.68-3.27-1.18-.55-.27-1.06-.53-1.66-.98-.28-.24-.61-.64-.7-.89-.1-.25-.23-.57-.25-.77-.07-.43-.11-.82-.09-1.14.06-1.34.32-2.4.57-3.5.26-1.08.52-2.13.83-3.16l1.77-6.15c.33-1.13.77-2.32 1.63-3.32.85-1.01 2.18-1.65 3.4-1.72 2.46-.09 4.46.77 6.49 1.5"/><path class="st4" d="M253.78 198.64c9.15 13.83 8.81 30.21-.76 36.58-12.55 8.36-26.05-1.66-33.89-13.5-9.15-13.83-8.81-30.21.76-36.58 9.57-6.37 24.74-.33 33.89 13.5"/><path class="st6" d="M236.1 186.57c5.95 2.37 11.51 7.13 15.66 13.41s6.37 13.28 6.23 19.69c-.13 6.09-2.37 10.89-6.32 13.52-5 3.33-10.49 3.56-16.3.67-5.09-2.53-10.15-7.32-14.23-13.5-8.4-12.69-8.36-27.59.08-33.21 2.14-1.42 4.66-2.14 7.42-2.14 2.35.01 4.87.53 7.46 1.56zm18.26 50.67c5.31-3.53 8.32-9.74 8.48-17.46.15-7.4-2.35-15.38-7.04-22.48-4.69-7.1-11.05-12.51-17.91-15.24-7.16-2.85-14.02-2.48-19.33 1.06-10.66 7.1-11.31 25.02-1.44 39.94 4.55 6.87 10.27 12.26 16.12 15.16 3.38 1.68 6.74 2.51 10.02 2.51 3.86.01 7.61-1.16 11.1-3.49zM42.79 271.65c-.55 0-1.1-.19-1.55-.57a2.435 2.435 0 0 1-.3-3.42c1.38-1.65 2.35-4.7 4.38-12.44 1.89-7.21 2.04-12.36 2.04-13.77 0-1.34 1.08-2.43 2.42-2.43 1.34 0 2.42 1.09 2.42 2.43 0 1.99-.21 7.44-2.2 15-2.11 8.03-3.25 11.81-5.36 14.33a2.4 2.4 0 0 1-1.85.87"/><path class="st4" d="M310.62 229.6l-.65 1.91c-3.19 9.3-13.39 14.29-22.66 11.09l-59.07-20.42c-9.27-3.21-14.24-13.44-11.05-22.74l.66-1.91c3.19-9.3 13.39-14.29 22.66-11.09l59.07 20.42c9.27 3.21 14.24 13.44 11.04 22.74"/><path class="st4" d="M320.18 293.49c-8.06 2.63-16.8-1.84-19.42-9.93l-18.24-56.33c-2.62-8.09 1.83-16.86 9.89-19.49 8.06-2.63 16.8 1.84 19.42 9.93L330.07 274c2.62 8.1-1.83 16.86-9.89 19.49"/><path class="st4" d="M302.42 287.08c-2.56 4.85-6.82 15.11-7.1 17.11-.28 2 .85 7.98 5.68 5.99 4.83-2 5.11-3.71 7.39-2 2.27 1.71 1.7 7.13 1.14 10.83-.57 3.71 1.14 6.56 4.55 6.84.54.04 1.31-.02 2.24-.17 1.18.35 1.65.3 3.19.15 2.05-.2 3.12-1.38 3.99-2.05.87-.67 2.05-.44 3.07-.81 1.44-.54 1.88-1.35 2.28-1.72.77-.71 1.75-.64 2.46-1.14.79-.55 1.41-1.12 1.8-1.68 2.56-3.71 8.52-10.83 6.82-24.8-1.7-13.97-10.51-17.96-10.51-17.96l-27 11.41z"/><path class="st3" d="M330.65 276.57c3.44 2.11 6.18 5.34 8.14 8.98 1.99 3.65 3.01 7.84 3.09 12.02-.02 4.16-.68 8.37-2.36 12.12l-.56 1.43c-.23.46-.46.91-.71 1.35l-1.47 2.66c-.49.93-1.26 1.74-1.99 2.42-.75.69-1.56 1.32-2.45 1.79.68-.73 1.24-1.55 1.77-2.37.52-.85 1.02-1.61 1.25-2.54l.94-2.78.48-1.37.35-1.41c.23-.94.47-1.87.73-2.79l.45-2.82c.2-.93.22-1.88.29-2.82.07-.94.15-1.88.06-2.82-.01-3.75-.77-7.48-2.14-11.03-1.4-3.52-3.33-6.92-5.87-10.02"/><path class="st3" d="M332.41 302.79c.64 1.63.94 3.33 1.06 5.02.14 1.7.04 3.41-.21 5.11-.3 1.69-.74 3.38-1.53 4.97-.76 1.57-1.86 3.1-3.4 3.99l-.02.01c-.04.02-.09.01-.11-.03-.02-.03-.01-.07.01-.09 1.07-1.24 1.79-2.75 2.33-4.3.53-1.56.88-3.17 1.13-4.8.54-3.25.69-6.57.58-9.87 0-.04.03-.08.08-.08.03 0 .06.02.07.05l.01.02zm-5.8 1.47c.82 1.75 1.28 3.61 1.52 5.49.26 1.89.23 3.81-.01 5.73-.29 1.91-.79 3.83-1.76 5.58-.9 1.73-2.45 3.38-4.36 3.89l-.02.01c-.04.01-.09-.01-.1-.05-.01-.04.01-.07.03-.09 1.53-.99 2.6-2.56 3.28-4.25.69-1.69 1.09-3.49 1.33-5.31.53-3.63.39-7.34-.08-10.98-.01-.04.03-.08.07-.09.04 0 .07.01.08.05l.02.02zm-6.69 1.89c.65 1.76.98 3.57 1.15 5.38.18 1.82.13 3.66-.08 5.51-.27 1.83-.67 3.7-1.58 5.44-.46.87-1.03 1.71-1.82 2.38-.73.71-1.84 1.04-2.77.99h-.02c-.04 0-.08-.04-.08-.08s.03-.07.06-.07c1.75-.41 2.83-2.06 3.44-3.68.63-1.66.94-3.42 1.16-5.18.47-3.53.5-7.11.37-10.67 0-.04.03-.08.08-.08.04 0 .07.02.08.05l.01.01zm-23.95 1.62c.6.48 1.02 1.13 1.48 1.47.46.36.75.34 1.16.28.42-.09.96-.24 1.51-.5.56-.2 1.13-.51 1.71-.78.6-.26 1.16-.6 1.78-.86.65-.3 1.11-.54 1.99-.89.61-.24 1.19-.17 1.65-.01.46.17.85.4 1.16.7.62.59.97 1.35 1.04 2.1l-.15.07c-.3-.6-.75-1.14-1.32-1.5-.56-.35-1.28-.55-1.86-.27-1.15.72-2.34 1.47-3.58 2.1-1.25.58-2.57 1.19-4.01 1.13-.73-.03-1.42-.48-1.79-1.09-.39-.6-.6-1.27-.9-1.88l.13-.07z"/><path class="st5" d="M333.11 318.44c2.56-3.71 8.52-10.83 6.82-24.8-1.31-10.77-6.84-15.6-9.3-17.25-.12-.8-.29-1.59-.55-2.39l-18.24-56.32c-1.65-5.08-5.7-8.73-10.49-10.09-.57-.27-1.16-.51-1.77-.72l-59.07-20.42c-7.13-2.46-14.78-.07-19.4 5.38 2.67-1.51 6.49-2.82 11.12-2.01 9.27 1.62 66.1 23.05 66.1 23.05s6.45 3.91 10.08 13.61c3.63 9.71 15.32 52.57 15.32 52.57s12.37 6.3 14.11 16.31c1.27 7.35-4.14 17.07-6.5 24.74.76-.54 1.38-1.1 1.77-1.66"/><path class="st6" d="M301.47 287.48c-.84 0-1.66-.45-2.11-1.23-.66-1.17-.24-2.65.92-3.31 1.91-1.08 7.27-3.85 15.64-6.05 2.13-.56 3.93-1.07 5.49-1.51 5.05-1.42 7.84-2.2 11.11-1.84 1.33.14 2.29 1.34 2.14 2.67a2.431 2.431 0 0 1-2.67 2.15c-2.35-.26-4.67.39-9.29 1.69-1.58.44-3.41.95-5.57 1.52-8.04 2.12-13.12 4.81-14.49 5.58-.36.23-.76.33-1.17.33"/><path class="st5" d="M275.79 317.84c3.22 12.13-3.49 54.46-19.4 74.18-10.22 12.67-4.43 12.54 7.26 14.15 11.69 1.62 30.23 9.71 33.05 8.9 2.82-.81 3.88-5.7 3.88-5.7s1.96-7.65-15.57-11.69c-13.28-3.06-13.39-2.54-13.39-2.54s11.69-20.83 16.53-31.74c4.84-10.91-12.36-45.56-12.36-45.56"/><path class="st3" d="M233.21 468.69c2.19-.21 4.36-.65 6.32-1.54 1.96-.88 3.63-2.23 4.9-3.89 2.55-3.35 3.57-7.61 4.59-11.85.21-.87 1.08-1.41 1.94-1.2.87.2 1.4 1.08 1.2 1.95-.01.06-.04.13-.06.19-.77 2.09-1.57 4.2-2.58 6.26-1.01 2.05-2.25 4.05-3.88 5.72a13.99 13.99 0 0 1-5.82 3.58c-2.17.67-4.42.84-6.61.78"/><path class="st5" d="M323.04 439.63c-2.36-17.79.59-23.72-17.73-29.06l-4.73-1.19-3.88 5.7s2.55 1.48 8.87 7.55c6.31 6.07 9.27 32.49-1.21 50.15-8.61 14.51-16.32 16.85-20.91 16.85 2.97.82 6.63 1.07 11.22.41 16.55-2.37 32.51-14.24 28.37-50.41"/><path class="st3" d="M269.83 454.04c5.33.69 10.51-.25 14.69-2.63 4.16-2.46 7.35-6.24 9.7-10.63 2.44-4.35 4.08-9.24 5.58-14.22 1.45-5.01 2.61-10.16 4.01-15.39.61 5.38.49 10.81-.33 16.21-.82 5.38-2.28 10.79-5.04 15.75-2.64 4.94-6.86 9.5-12.31 11.69-5.39 2.19-11.56 1.86-16.3-.78"/><path class="st6" d="M298.99 403.56c.73.32 1.34.93 1.82 1.58.47.66.81 1.38 1.12 2.1.62 1.45.92 2.95 1.23 4.44.47 2.98.63 5.99.41 8.97-.36 6.11-2.12 11.89-4.81 17.39-1.42 2.7-3.14 5.27-5.08 7.67a40.969 40.969 0 0 1-3.27 3.32 23.178 23.178 0 0 1-3.72 2.87c-2.62 1.74-5.63 3.02-8.82 3.52-1.61.18-3.26.21-4.85-.17-.79-.2-1.55-.45-2.26-.83-.7-.38-1.32-.88-1.86-1.39l-.04-.04c-.1-.09-.1-.24-.01-.34.07-.08.19-.1.28-.05 2.44 1.28 5.38 1.13 7.96.27 2.62-.84 5.03-2.28 7.18-4.02 4.32-3.5 7.65-8.11 10.2-13.05 2.54-4.95 4.43-10.29 5.38-15.79.47-2.75.75-5.55.76-8.33.01-1.39-.06-2.79-.29-4.15-.24-1.33-.63-2.76-1.63-3.59a.25.25 0 0 1-.03-.34c.07-.08.19-.11.28-.07l.05.03z"/><path class="st5" d="M269.15 452.61c-12.24-4.15-24.72-7.57-36.74-11.87-5.96-2.23-11.88-4.59-17.01-7.98-2.56-1.68-4.93-3.57-6.87-5.8-1.63-1.84-2.57-4.85-3.27-7.79-1.41-6-1.9-12.41-2.23-18.78-.38-6.38-.38-12.81-.43-19.25.01-12.88.39-25.8.51-38.77a355.118 355.118 0 0 0-4.29 38.66c-.4 6.49-.48 13-.37 19.54.22 6.54.64 13.1 2.12 19.72.4 1.65.9 3.31 1.55 4.96.67 1.63 1.54 3.36 2.88 4.84 2.35 2.6 5.07 4.79 7.97 6.53 5.81 3.49 12.02 5.81 18.26 7.68 12.51 3.72 25.18 6.1 37.92 8.31m-42.53-115.89c-3.7 1.3-7.36 2.31-11.06 3.24-3.68.98-7.4 1.82-11.07 2.46-.92.16-1.84.25-2.73.35-.94.1-1.68.11-2.69.04-1.92-.11-3.84-.19-5.73-.37-3.8-.24-7.52-.98-11.32-1.95 3.36 1.97 7.14 3.35 11 4.14 1.93.37 3.86.69 5.79.94.9.12 2.1.24 3.1.21 1.04.01 2.04-.11 3.03-.24 1.99-.24 3.93-.65 5.83-1.17 1.92-.48 3.77-1.14 5.62-1.82 1.83-.73 3.63-1.52 5.36-2.48 1.72-.96 3.42-2 4.87-3.35"/></svg>