<svg id="Layer_1" xmlns="http://www.w3.org/2000/svg" viewBox="0 0 885 822"><style>.st0{fill:#0e123e;enable-background:new}</style><path class="st0" d="M608.41 612.89c-214.07 71.88-447.71 37.9-394.19-95.4C299.06 311 528.79 137.19 793.76 18.26c0 0-394.19 109.78-617.4 437.8-223.2 328.03 289.77 335.87 532.55 243.08 62.64-24.12 121.98-53.41 176.08-85.76V437.54c-65.07 71.53-169.35 140-276.58 175.35z"/><path class="st0" d="M561.42 322.77S759.7 169.99 885 217.57v-61.39c-135.19 26-268.67 102.85-323.58 166.59z"/><path class="st0" d="M772.88 244.35s-278.02 113.7-347.2 232.62C356.5 595.9 554.9 593.29 654.1 546.24c99.2-47.05 215.37-126.77 208.84-198.65-6.53-71.88-185.35-2.61-225.81 47.05-40.46 49.66-63.96 77.11-14.36 79.72 49.6 2.61 133.14-47.05 97.9-67.96 0 0 26.11-45.74 54.82-30.06 28.72 15.68-60.04 125.46-211.46 139.84-151.41 15.69-57.43-137.22 208.85-271.83zM885 129.23v-4.55c-17.43 5.38-35.65 11.28-54.7 17.73 0 .01 21.65-6.25 54.7-13.18z"/><path class="st0" d="M321.25 384.19S83.69 667.78 457 627.27c0 0-124-31.37-61.35-162.05 0 1.27-49.52-213.16 489.35-459.77V0C780.67 36.8 514.53 148.48 321.25 384.19z"/><path class="st0" d="M34.09 576.3s-73.1 98.02-5.22 186.88c67.43 87 514.96 97.88 856.13-109.62v-.47c-36.79 19.45-222.93 111.34-473.68 121.85C131.99 786.71-1.15 716.14 34.09 576.3z"/></svg>