<svg xmlns="http://www.w3.org/2000/svg" viewBox="0 0 376 189"><path d="M286.67 26.08c21.64-10.44 53.91-16.05 89.27-15.65l.11-9.99c-36.22-.41-70.19 5.29-93.73 16.64-11.78 5.68-21.33 12.97-27.06 22.01-5.85 9.23-7.46 19.93-3.88 31.59 6.16 20.08 6.6 36.41 2.4 47.77-4.04 10.92-12.54 17.84-26.31 19.27-7.41.77-17.11.68-28.11.42-2.12-.05-4.29-.11-6.49-.17-9.06-.24-18.68-.5-28.03-.38-11.61.15-23.12.89-33.03 3.05-9.8 2.14-18.79 5.83-24.54 12.51-3.81 4.42-11.15 8.51-21.11 12.04-9.79 3.47-21.41 6.16-33.05 8.2-23.3 4.09-46.01 5.48-52.82 5.48v9.99c7.44 0 30.73-1.44 54.55-5.63 11.92-2.09 24.15-4.9 34.66-8.63 10.34-3.66 19.77-8.46 25.35-14.93 3.64-4.23 10.07-7.29 19.1-9.27 8.92-1.95 19.64-2.67 31.02-2.82 9.13-.12 18.5.13 27.54.37 2.22.06 4.43.12 6.6.17 10.91.26 21.24.38 29.38-.47 17.32-1.8 29.22-11.03 34.66-25.74 5.27-14.27 4.25-33.07-2.22-54.16-2.74-8.93-1.48-16.6 2.77-23.31 4.38-6.9 12.16-13.14 22.97-18.36z" fill="#85879b"/></svg>