<svg version="1.1" id="Layer_1" xmlns="http://www.w3.org/2000/svg" x="0" y="0" viewBox="0 0 230 120" xml:space="preserve"><style>.st1{fill:#fff}.st7{fill:#4172da}</style><linearGradient id="SVGID_1_" gradientUnits="userSpaceOnUse" x1="67.683" y1="-45.721" x2="188.27" y2="133.42" gradientTransform="matrix(1 0 0 -1 0 121)"><stop offset="0" stop-color="#4172da"/><stop offset=".822" stop-color="#8becef"/></linearGradient><path d="M228.98 120c-.52-55.84-40.97-105-97.96-114.89C74.03-4.79 19.71 27.67 0 80.12L228.98 120z" fill="url(#SVGID_1_)"/><path class="st1" d="M141.08 75.7c1.28-4.08-3.44-9.2-10.54-11.43-7.11-2.23-13.91-.73-15.19 3.35-1.28 4.08 3.44 9.2 10.54 11.43 7.1 2.23 13.9.73 15.19-3.35z"/><linearGradient id="SVGID_2_" gradientUnits="userSpaceOnUse" x1="-21.155" y1="14.845" x2="100.689" y2="192.675" gradientTransform="matrix(1 0 0 -1 0 121)"><stop offset="0" stop-color="#4172da"/><stop offset=".822" stop-color="#8becef"/></linearGradient><path d="M33.86 35.13L13.69 61.81c-4.04-3.32-4.79-9.39-1.54-13.5l8.79-11.29c2.92-4.44 8.89-5.2 12.92-1.89z" fill="url(#SVGID_2_)"/><linearGradient id="SVGID_3_" gradientUnits="userSpaceOnUse" x1="139.377" y1="-88.183" x2="255.884" y2="86.352" gradientTransform="matrix(1 0 0 -1 0 121)"><stop offset="0" stop-color="#4172da"/><stop offset=".822" stop-color="#8becef"/></linearGradient><path d="M222.73 97.59l-4.97-23.75c4.92-1.05 9.9 2.13 10.97 7.34l1.07 5.53c1.06 4.88-2.15 9.83-7.07 10.88z" fill="url(#SVGID_3_)"/><linearGradient id="SVGID_4_" gradientUnits="userSpaceOnUse" x1="-3.786" y1="-.651" x2="123.913" y2="178.619" gradientTransform="matrix(1 0 0 -1 0 121)"><stop offset="0" stop-color="#4172da"/><stop offset=".822" stop-color="#8becef"/></linearGradient><path d="M90.54 8.59L59.67 20.6c-1.73-5.22.82-10.85 5.75-12.67l13.14-5.1c4.6-1.81 9.93.9 11.98 5.76z" fill="url(#SVGID_4_)"/><linearGradient id="SVGID_5_" gradientUnits="userSpaceOnUse" x1="97.033" y1="-69.225" x2="223.705" y2="111.317" gradientTransform="matrix(1 0 0 -1 0 121)"><stop offset="0" stop-color="#4172da"/><stop offset=".822" stop-color="#8becef"/></linearGradient><path d="M208.43 60.32L185.6 34.84c3.96-3.9 9.99-3.64 13.4.49l9.88 11.02c3.41 3.79 3.51 10.07-.45 13.97z" fill="url(#SVGID_5_)"/><linearGradient id="SVGID_6_" gradientUnits="userSpaceOnUse" x1="51.2" y1="-25.992" x2="162.664" y2="149.039" gradientTransform="matrix(1 0 0 -1 0 121)"><stop offset="0" stop-color="#4172da"/><stop offset=".822" stop-color="#8becef"/></linearGradient><path d="M155.04 13.14l-32.96-5.53c.93-4.78 5.91-8.35 10.96-7.47l14.12 2.32c5.38.87 8.81 5.58 7.88 10.68z" fill="url(#SVGID_6_)"/><path class="st1" d="M72.92 42.19c9.98-3.04 16.96-9.11 15.6-13.56-1.36-4.45-10.55-5.58-20.53-2.54s-16.96 9.11-15.6 13.56c1.37 4.44 10.56 5.58 20.53 2.54z"/><path class="st7" d="M68.15 30.32c8.87-2.84 17.13-1.95 19.5 1.39.31-1.02.3-1.69-.04-2.7-1.39-4.37-10.32-5.58-20.17-2.39-9.85 3.19-16.7 9.04-15.3 13.74.01.34.34.67.68 1.34 1.25-4.41 7.45-8.89 15.33-11.38z"/><path class="st1" d="M198.39 62.37c2.12-2.35-.43-8.09-5.7-12.81-5.26-4.72-11.25-6.65-13.36-4.3-2.12 2.35.44 8.09 5.7 12.81 5.26 4.72 11.25 6.65 13.36 4.3z"/><path class="st7" d="M189.76 51.05c4.77 4.46 7.2 9.65 6.24 12.45.67-.01 1-.36 1.33-.72 1.98-2.47-.46-8.36-5.58-13.16s-11.19-6.8-13.17-4.33c-.33.35-.33.35-.33.7 2.69-.73 7.42 1.29 11.51 5.06zM130.7 64.25c-7-2.43-13.61-.88-14.87 3.49.01.36.01.72-.32 1.09 2.27-3.29 8.23-4.11 14.23-2.03 6.33 2.07 11.05 7.07 10.45 11.06.33-.37.32-.73.64-1.46 1.59-4.36-3.13-9.72-10.13-12.15z"/></svg>