<svg id="Layer_1" xmlns="http://www.w3.org/2000/svg" viewBox="0 0 638 520"><style>.st1{fill:#fff}</style><path d="M464.45 103.22c-35.46-16.21-54.57-50.43-42.68-76.44 11.89-26 50.28-33.94 85.75-17.73 35.46 16.21 54.57 50.43 42.68 76.44-11.89 26.01-50.28 33.94-85.75 17.73z" fill="#1d1f33"/><path class="st1" d="M421.77 26.73c-3.35 7.38-4.32 15.62-3 23.6 1.32 7.97 4.4 15.57 8.75 22.42 4.34 6.85 9.82 12.93 15.98 18.29 6.19 5.23 13.08 9.74 20.44 13.23 14.7 7.1 31.3 10.76 47.97 8.82 8.2-1 16.51-3.38 23.83-7.91 7.29-4.4 13.43-10.97 16.99-18.74 3.58-7.9 4.55-16.85 3.01-25.14-1.38-8.4-4.98-16.24-9.6-23.14-9.37-13.83-23.08-23.97-38.04-30.41-7.55-3.23-15.41-5.55-23.48-6.77-8.06-1.22-16.2-1.34-24.31-.04-7.95 1.18-15.89 3.78-22.74 8.11-6.82 4.19-12.46 10.3-15.8 17.68zm0 0c3.34-7.38 9.12-13.46 16.06-17.51 6.83-4.2 14.71-6.52 22.61-7.43 15.94-1.8 32.14 1.79 46.45 8.67 7.09 3.43 13.87 7.79 19.79 12.96 5.92 5.18 11.28 11.09 15.41 17.62 4.12 6.53 7.12 13.83 8.38 21.37s.25 15.21-2.86 22.08c-3.11 6.86-8.4 12.62-14.91 16.6-6.51 3.98-13.87 6.54-21.66 7.61-7.65 1.1-15.65 1.01-23.47-.03-7.79-1.17-15.52-3.46-22.82-6.51-14.55-6.36-27.9-16.16-36.94-29.5-4.39-6.58-7.77-14.09-9.23-22.09-1-8.19-.16-16.46 3.19-23.84z"/><path d="M635.84 181.85c14.97-32.74-49.57-94.36-144.37-137.76C396.68.7 307.88-7.73 292.91 25.01l342.93 156.84z" fill="#797cac"/><path d="M488.89 42.91c.9.45 1.83.76 2.59 1.19 94.68 43.23 159.36 104.88 144.37 137.75l-87.16-39.86c-.23-8.61-3.6-68.08-59.8-99.08z" fill="#9a9dc1"/><path d="M443.8 148.21c-95.15-43.5-163.46-98.04-152.58-121.82 10.88-23.78 96.83-7.8 191.98 35.69 95.15 43.5 163.46 98.04 152.58 121.82s-96.83 7.8-191.98-35.69z" fill="#414471"/><path class="st1" d="M634.93 184.49c.92-1.93 1.46-4.08 1.44-6.19-.03-2.11-.46-4.3-1.06-6.38-1.33-4.18-3.44-7.94-5.73-11.46-4.7-7.2-10.55-13.49-16.76-19.42-12.27-11.84-25.93-22.25-39.87-31.88-14.08-9.65-28.61-18.4-43.52-26.66-14.9-8.26-30.1-15.73-45.61-22.98-15.56-6.98-31.21-13.55-47.11-19.47-15.93-5.78-32.2-11.21-48.71-15.41-16.48-4.34-33.27-7.76-50.26-9.38-8.44-.73-17.11-.95-25.61.13-4.19.62-8.57 1.49-12.4 3.16-1.99.89-3.88 1.95-5.54 3.32-1.66 1.37-2.97 3.1-3.75 5.06.92-1.93 2.48-3.47 4.11-4.71 1.64-1.24 3.63-2.13 5.57-2.75 3.91-1.38 8.1-2 12.22-2.21 8.39-.54 16.7.17 25.06 1.31 8.36 1.14 16.62 2.82 24.72 4.61 8.21 1.95 16.39 4.04 24.37 6.51 16.11 4.83 32.11 10.21 47.83 16.37a770.602 770.602 0 0 1 46.65 19.66c15.29 6.93 30.49 14.4 45.3 22.36 14.84 7.83 29.4 16.44 43.61 25.41 7.02 4.54 14.02 9.22 20.81 14.28 6.81 4.92 13.44 10.09 19.72 15.62 6.28 5.53 12.34 11.43 17.44 18 2.48 3.27 4.78 6.79 6.29 10.72.76 1.97 1.38 3.91 1.54 6.05.3 2.18.03 4.37-.75 6.33z"/><path d="M482.46 63.76c85.74 39.18 149.7 87.35 153.46 113.89-28.06 9.51-101.32-7.68-181.11-44.06-85.74-39.17-149.7-87.35-153.46-113.89 28.06-9.51 101.32 7.68 181.11 44.06z" fill="#575b97"/><linearGradient id="SVGID_1_" gradientUnits="userSpaceOnUse" x1="339.691" y1="459.331" x2="263.004" y2="48.544" gradientTransform="matrix(1 0 0 -1 0 521)"><stop offset="0" stop-color="#fdeab8"/><stop offset="1" stop-color="#1d1f33" stop-opacity="0"/></linearGradient><path d="M545.71 142.84L526.61 520 0 421.69 382.84 68.06l162.87 74.78z" opacity=".35" fill="url(#SVGID_1_)"/><path d="M455.79 121.98c-44.97-20.55-77.99-44.75-73.74-54.04s44.16-.16 89.13 20.39 77.99 44.75 73.74 54.04c-4.25 9.3-44.15.17-89.13-20.39z" fill="#fdeab8"/></svg>