<svg id="Layer_1" xmlns="http://www.w3.org/2000/svg" viewBox="0 0 1920 908"><style>.st1{fill:#0e123e}</style><path d="M1696.73 561.37c-114.29-97.18-221.57-206.14-354.91-274.77-133.35-68.63-303.79-89.67-429.11-7.01-85.47 56.61-142.37 155.29-238.62 190.36-74.19 27.05-157.15 10.02-230.34-19.04-73.19-29.05-141.62-70.13-216.81-93.17C153.52 335.18 75.29 332.27 0 346.27v129.07c27.59-5.02 56.34-5.2 84.37-1.95 88.94 10.24 171.21 50.18 254.76 82.18 83.56 32 175.05 56.84 261.94 35.33 90.99-22.53 161.98-91.91 241.95-141.07 174.8-107.53 406.5-115.98 588.47-20.99 92.01 47.88 169.42 118.79 247.33 186.9 74.33 65.03 151.22 129.29 241.18 169.49v-71.62c-80.59-38.57-154.89-94.1-223.27-152.24z" fill="none"/><path class="st1" d="M1431.49 428.85c-181.97-94.98-413.67-86.54-588.47 20.99C763.06 499 692.06 568.38 601.08 590.91c-86.89 21.51-178.38-3.33-261.94-35.33-83.55-32-165.83-71.94-254.76-82.18-28.03-3.25-56.79-3.07-84.37 1.95v172.78C135.22 638.91 273.82 676.3 384 755.54c59.72 43.01 111.75 97.8 178.39 129.8 66.38 32 155.83 34.31 205.04-20.48 28.71-31.75 38.19-76.04 57.16-114.44 54.08-109.32 185.05-163.85 307.05-159.76 122 3.84 236.82 55.81 344.72 112.39 107.91 56.58 214.78 119.56 333.19 148.49 36.14 8.96 73.31 14.34 110.47 16.64v-82.95c-89.96-40.2-166.85-104.46-241.18-169.49-77.93-68.1-155.34-139.02-247.35-186.89z"/><path class="st1" d="M226.94 357.74c75.19 23.04 143.62 64.12 216.81 93.17 73.19 29.05 156.15 46.09 230.34 19.03 96.25-35.07 153.15-133.75 238.62-190.36 125.32-82.65 295.76-61.62 429.11 7.01 133.34 68.63 240.62 177.58 354.91 274.77 68.38 58.14 142.68 113.67 223.27 152.24v-26.33c-83.42-53.78-155.79-125.34-226.53-202.05-114.54-124.23-212.55-263.49-331.6-383.97-43.36-43.83-92.74-86.66-153.15-98.18-68.93-13.02-138.86 17.28-198.76 54.1-86.98 53.6-164.18 122.98-226.84 203.38-35.09 45.08-67.92 95.43-119.06 120.48-50.38 24.55-110.78 19.54-163.42.25-52.39-19.29-98.76-52.1-145.13-83.41C249.28 226.46 124.24 158 0 179.55v166.72c75.29-14 153.52-11.09 226.94 11.47zm1464.3 20.62c-42.42-59.07-77.36-123.96-103.15-192.45 23.57 69.33 56.85 135.33 97.61 196.33 41.03 61.01 89.56 117.02 144.46 166.38 28.32 25.59 58.36 49.37 89.84 71.19v-20.88a891.264 891.264 0 0 1-80.97-60.85c-55.45-46.86-105.36-100.38-147.79-159.72z"/></svg>