<svg id="Layer_1" xmlns="http://www.w3.org/2000/svg" viewBox="0 0 1502 459"><style>.st0,.st1{fill:#fff}.st1{opacity:.6;enable-background:new}</style><path class="st0" d="M1406.53 5.16c3.38 0 3.38-5.16 0-5.16-3.37 0-3.37 5.16 0 5.16z"/><path class="st1" d="M500 354c5.33 0 5.33-8 0-8s-5.33 8 0 8z"/><path class="st0" d="M1242.07 404.32c6.93 0 6.93-10.32 0-10.32-6.76 0-6.76 10.32 0 10.32zM1496.07 213.32c6.93 0 6.93-10.32 0-10.32-6.76 0-6.76 10.32 0 10.32zM219.9 451.8c.3 0 .6-.3.6-.6s-.3-.6-.6-.6c-.6 0-5.5-.2-5.5-6-.1-.3-.3-.6-.7-.6-.3 0-.6.3-.6.6 0 5.8-5 6-5.5 6-.4 0-.6.3-.6.6s.3.6.6.6c.6 0 5.5.2 5.5 6 0 .3.3.6.6.6s.6-.2.6-.6c0-5.8 5-6 5.6-6z"/><path class="st1" d="M3.87 83.74c5.16 0 5.16-7.74 0-7.74s-5.16 7.74 0 7.74zM900 404c5.33 0 5.33-8 0-8s-5.33 8 0 8z"/></svg>