<svg id="Layer_1" xmlns="http://www.w3.org/2000/svg" viewBox="0 0 1498 531">
    <style>
        .st0,.st1{fill:#fff}
        .st1{opacity:.56;enable-background:new}
    </style>
    <path class="st0" d="M1423.9 74.26c6.72 1.75 9.32-8.24 2.61-9.98-6.54-1.71-9.15 8.28-2.61 9.98z"/>
    <path class="st0" d="M777.9 222.8c.3 0 .6-.3.6-.6s-.3-.6-.6-.6c-.6 0-5.5-.2-5.5-6-.1-.3-.3-.6-.7-.6-.3 0-.6.3-.6.6 0 5.8-5 6-5.5 6-.4 0-.6.3-.6.6s.3.6.6.6c.6 0 5.5.2 5.5 6 0 .3.3.6.6.6s.6-.2.6-.6c0-5.8 5-6 5.6-6z"/>
    <path class="st0" d="M120.9 33.8c.3 0 .6-.3.6-.6s-.3-.6-.6-.6c-.6 0-5.5-.2-5.5-6-.1-.3-.3-.6-.7-.6-.3 0-.6.3-.6.6 0 5.8-5 6-5.5 6-.4 0-.6.3-.6.6s.3.6.6.6c.6 0 5.5.2 5.5 6 0 .3.3.6.6.6s.6-.2.6-.6c0-5.8 5-6 5.6-6z"/>
    <path class="st0" d="M25.53 355.16c3.38 0 3.38-5.16 0-5.16-3.37 0-3.37 5.16 0 5.16z"/>
    <path class="st0" d="M698.07 530.32c6.94 0 6.94-10.32 0-10.32-6.76 0-6.76 10.32 0 10.32z"/>
    <path class="st0" d="M884.53 300.16c3.38 0 3.38-5.16 0-5.16-3.37 0-3.37 5.16 0 5.16z"/>
    <path class="st1" d="M544.87 475.74c5.16 0 5.16-7.74 0-7.74s-5.16 7.74 0 7.74z"/>
    <path class="st1" d="M448.87 8.74c5.16 0 5.16-7.74 0-7.74s-5.16 7.74 0 7.74z"/>
    <path class="st0" d="M5.07 110.32c6.94 0 6.94-10.32 0-10.32-6.76 0-6.76 10.32 0 10.32z"/>
    <path class="st0" d="M1069.58 425.67c3.27.85 4.57-4.14 1.3-4.99-3.44-.9-4.74 4.09-1.3 4.99z"/>
    <path class="st0" d="M1496.9 333.8c.3 0 .6-.3.6-.6s-.3-.6-.6-.6c-.6 0-5.5-.2-5.5-6-.1-.3-.3-.6-.7-.6-.3 0-.6.3-.6.6 0 5.8-5 6-5.5 6-.4 0-.6.3-.6.6s.3.6.6.6c.6 0 5.5.2 5.5 6 0 .3.3.6.6.6s.6-.2.6-.6c0-5.8 5-6 5.6-6z"/>
    <path class="st0" d="M881.24 9.75c.38 0 .76-.38.76-.75s-.38-.75-.76-.75c-.76 0-6.93-.25-6.93-7.5-.12-.37-.37-.75-.87-.75-.38 0-.76.38-.76.75 0 7.25-6.3 7.5-6.93 7.5-.5 0-.76.38-.76.75s.38.75.76.75c.76 0 6.93.25 6.93 7.5 0 .38.38.75.76.75s.76-.25.76-.75c-.01-7.25 6.29-7.5 7.04-7.5z"/>
</svg>
