<svg id="Layer_1" xmlns="http://www.w3.org/2000/svg" viewBox="0 0 1130 114"><style>.st0,.st1{fill:#fff}.st1{opacity:.6;enable-background:new}</style><path class="st0" d="M1124.07 35.32c6.93 0 6.93-10.32 0-10.32-6.76 0-6.76 10.32 0 10.32zM16.24 9.75c.38 0 .76-.37.76-.75s-.38-.75-.76-.75c-.76 0-6.93-.25-6.93-7.5C9.19.38 8.94 0 8.44 0c-.38 0-.76.38-.76.75 0 7.25-6.3 7.5-6.93 7.5-.5 0-.75.38-.75.75s.38.75.76.75c.76 0 6.93.25 6.93 7.5 0 .38.38.75.76.75s.76-.25.76-.75c-.02-7.25 6.28-7.5 7.03-7.5z"/><path class="st1" d="M380 80c5.33 0 5.33-8 0-8s-5.33 8 0 8zM995 114c5.33 0 5.33-8 0-8s-5.33 8 0 8z"/></svg>