<svg id="Layer_1" xmlns="http://www.w3.org/2000/svg" viewBox="0 0 1458 1165"><style>.st0,.st1{fill:#fff}.st1{opacity:.3;enable-background:new}</style><path class="st0" d="M288.9 717.8c.3 0 .6-.3.6-.6s-.3-.6-.6-.6c-.6 0-5.5-.2-5.5-6-.1-.3-.3-.6-.7-.6-.3 0-.6.3-.6.6 0 5.8-5 6-5.5 6-.4 0-.6.3-.6.6s.3.6.6.6c.6 0 5.5.2 5.5 6 0 .3.3.6.6.6s.6-.2.6-.6c0-5.8 5-6 5.6-6zM1456.9 923.8c.3 0 .6-.3.6-.6s-.3-.6-.6-.6c-.6 0-5.5-.2-5.5-6-.1-.3-.3-.6-.7-.6-.3 0-.6.3-.6.6 0 5.8-5 6-5.5 6-.4 0-.6.3-.6.6s.3.6.6.6c.6 0 5.5.2 5.5 6 0 .3.3.6.6.6s.6-.2.6-.6c0-5.8 5-6 5.6-6z"/><path class="st1" d="M229.53 1034.16c3.38 0 3.38-5.16 0-5.16s-3.38 5.16 0 5.16zM1357.53 1104.16c3.38 0 3.38-5.16 0-5.16-3.37 0-3.37 5.16 0 5.16z"/><path class="st0" d="M5.07 910.32c6.94 0 6.94-10.32 0-10.32-6.76 0-6.76 10.32 0 10.32zM1320.07 144.32c6.93 0 6.93-10.32 0-10.32-6.76 0-6.76 10.32 0 10.32z"/><path d="M987.07 39.32c6.94 0 6.94-10.32 0-10.32-6.76 0-6.76 10.32 0 10.32z" fill="#fff" fill-opacity=".5"/><path class="st0" d="M1256.53 770.16c3.38 0 3.38-5.16 0-5.16-3.37 0-3.37 5.16 0 5.16zM1027.53 170.16c3.38 0 3.38-5.16 0-5.16-3.37 0-3.37 5.16 0 5.16zM887.9 1157.8c.3 0 .6-.3.6-.6s-.3-.6-.6-.6c-.6 0-5.5-.2-5.5-6-.1-.3-.3-.6-.7-.6-.3 0-.6.3-.6.6 0 5.8-5 6-5.5 6-.4 0-.6.3-.6.6s.3.6.6.6c.6 0 5.5.2 5.5 6 0 .3.3.6.6.6s.6-.2.6-.6c0-5.8 5-6 5.6-6zM649.24 91.75c.38 0 .76-.38.76-.75s-.38-.75-.76-.75c-.76 0-6.93-.25-6.93-7.5-.13-.38-.38-.75-.88-.75-.38 0-.76.38-.76.75 0 7.25-6.3 7.5-6.93 7.5-.5 0-.76.38-.76.75s.38.75.76.75c.76 0 6.93.25 6.93 7.5 0 .38.38.75.76.75s.76-.25.76-.75c0-7.25 6.3-7.5 7.05-7.5z"/><path d="M67 8c5.33 0 5.33-8 0-8s-5.33 8 0 8z" opacity=".6" fill="#fff"/></svg>