<svg id="Layer_1" xmlns="http://www.w3.org/2000/svg" viewBox="0 0 1590 678"><style>.st0{fill:#fff}</style><path class="st0" d="M101.9 74.8c.3 0 .6-.3.6-.6s-.3-.6-.6-.6c-.6 0-5.5-.2-5.5-6-.1-.3-.3-.6-.7-.6-.3 0-.6.3-.6.6 0 5.8-5 6-5.5 6-.4 0-.6.3-.6.6s.3.6.6.6c.6 0 5.5.2 5.5 6 0 .3.3.6.6.6s.6-.2.6-.6c0-5.8 5-6 5.6-6zM1025.21 579c-6.93 0-6.93 10.32 0 10.32 6.76 0 6.76-10.32 0-10.32z"/><path d="M1186.87 384c-5.16 0-5.16 7.74 0 7.74s5.16-7.74 0-7.74z" opacity=".56" fill="#fff"/><path class="st0" d="M1522.15 546.42c-6.94 0-6.94 10.32 0 10.32 6.76 0 6.76-10.32 0-10.32zM3.77 473.11c-3.27-.85-4.57 4.14-1.3 4.99 3.27.85 4.57-4.14 1.3-4.99zM83.65 313.31c-6.71-1.75-9.31 8.24-2.6 9.98 6.53 1.71 9.14-8.27 2.6-9.98zM684.91 7.8c.3 0 .6-.3.6-.6s-.3-.6-.6-.6c-.6 0-5.5-.2-5.5-6-.1-.3-.3-.6-.7-.6-.3 0-.6.3-.6.6 0 5.8-5 6-5.5 6-.4 0-.6.3-.6.6s.3.6.6.6c.6 0 5.5.2 5.5 6 0 .3.3.6.6.6s.6-.2.6-.6c0-5.8 5-6 5.6-6zM852.26 411.75c.38 0 .76-.38.76-.75s-.38-.75-.76-.75c-.76 0-6.93-.25-6.93-7.5-.13-.38-.38-.75-.88-.75-.38 0-.76.38-.76.75 0 7.25-6.3 7.5-6.93 7.5-.5 0-.76.38-.76.75s.38.75.76.75c.76 0 6.93.25 6.93 7.5 0 .38.38.75.76.75s.76-.25.76-.75c-.01-7.25 6.29-7.5 7.05-7.5z"/><path d="M781.53 677.16c3.38 0 3.38-5.16 0-5.16-3.37 0-3.37 5.16 0 5.16z" opacity=".3" fill="#fff"/><path class="st0" d="M1586.53 38.16c3.38 0 3.38-5.16 0-5.16-3.37 0-3.37 5.16 0 5.16zM1501.68 301.58c-3.37 0-3.37 5.16 0 5.16 3.38 0 3.38-5.16 0-5.16z"/></svg>
