<svg xmlns="http://www.w3.org/2000/svg" viewBox="0 0 266.81 124"><defs><style>.cls-1{fill:#1d1f33;}.cls-2{fill:#fff;}.cls-3{fill:#797cac;}.cls-4{fill:#9a9dc1;}.cls-5{fill:#414471;}.cls-6{fill:#575b97;}.cls-7{fill:#fdeab8;}</style></defs><title>Asset 3</title><g id="Layer_2" data-name="Layer 2"><g id="Layer_1-2" data-name="Layer 1"><ellipse class="cls-1" cx="123.83" cy="39.06" rx="51.09" ry="37.46" transform="translate(-5.77 31.12) rotate(-14)"/><path class="cls-2" d="M173.4,26.7a29.71,29.71,0,0,1-1,17.23,42.74,42.74,0,0,1-9.2,14.81,59.54,59.54,0,0,1-13.77,10.89,70,70,0,0,1-16.32,6.75c-11.39,3.05-23.74,3.48-35.3-.08A43.64,43.64,0,0,1,82,67.54a31.67,31.67,0,0,1-9.64-15.63,31.58,31.58,0,0,1,1.17-18.34,43.36,43.36,0,0,1,9.9-15.18C91.92,9.8,103,4.39,114.52,1.74A69.85,69.85,0,0,1,132.1,0a59.59,59.59,0,0,1,17.27,3.15A42.71,42.71,0,0,1,164.45,12,29.79,29.79,0,0,1,173.4,26.7Zm0,0a29.76,29.76,0,0,0-9.05-14.64A41.54,41.54,0,0,0,149.2,3.73C138.08.3,126.08.71,115,3.69a67.88,67.88,0,0,0-15.84,6.56A57.85,57.85,0,0,0,85.88,20.77a40.82,40.82,0,0,0-8.76,14.1A27.12,27.12,0,0,0,84.55,64.7,40.82,40.82,0,0,0,98.91,73a57.64,57.64,0,0,0,16.68,3,67.71,67.71,0,0,0,17.06-1.65c11.17-2.56,22-7.83,30.17-16.08a41.54,41.54,0,0,0,9.46-14.48A29.72,29.72,0,0,0,173.4,26.7Z"/><path class="cls-3" d="M.52,108.65C-5.8,83.32,48.36,48,121.49,29.77S259,17.29,265.34,42.62Z"/><path class="cls-4" d="M123.52,29.27l-2,.5C48.36,48-5.8,83.32.52,108.65L67.84,91.86C69.12,85.76,79.44,43.94,123.52,29.27Z"/><ellipse class="cls-5" cx="133.28" cy="76.99" rx="137.09" ry="34.33" transform="translate(-14.67 34.53) rotate(-14)"/><path class="cls-2" d="M.76,110.66a10.2,10.2,0,0,1-.16-4.6,16.64,16.64,0,0,1,1.61-4.37,33.94,33.94,0,0,1,5.63-7.42A89.63,89.63,0,0,1,22.29,82.65,225.32,225.32,0,0,1,54.92,65.26C66.18,60.24,77.74,56,89.41,52S113,44.79,124.87,41.75s24-5.51,36.14-7.58,24.37-3.66,36.67-4.51a224.81,224.81,0,0,1,37,0,89.9,89.9,0,0,1,18.22,3.47,34.32,34.32,0,0,1,8.45,3.91,16.07,16.07,0,0,1,3.47,3.11,10.14,10.14,0,0,1,2,4.14,10,10,0,0,0-2.3-3.89,15.88,15.88,0,0,0-3.59-2.72,33.35,33.35,0,0,0-8.43-3.21,91.62,91.62,0,0,0-18-2.36c-6.07-.3-12.16-.24-18.24,0s-12.15.73-18.21,1.36c-12.12,1.3-24.2,3-36.18,5.28s-23.93,4.79-35.76,7.77-23.59,6.23-35.21,9.92S67.75,64.3,56.44,68.84Q48,72.27,39.72,76.2c-5.5,2.6-10.91,5.41-16.13,8.52A92,92,0,0,0,8.79,95.26a33.69,33.69,0,0,0-5.93,6.8A15.36,15.36,0,0,0,1,106.15,10,10,0,0,0,.76,110.66Z"/><path class="cls-6" d="M125.31,45C59.11,61.52,7.23,87.32,1,105.72c18.68,10.46,73.1,8,134.69-7.33C201.88,81.88,253.76,56.08,260,37.68,241.32,27.22,186.9,29.66,125.31,45Z"/><ellipse class="cls-7" cx="133.28" cy="76.99" rx="64.8" ry="13.38" transform="translate(-14.67 34.53) rotate(-14)"/></g></g></svg>