<svg width="155" height="218" fill="none" xmlns="http://www.w3.org/2000/svg"><path d="M154.417 218H4.429v-32.471l69.089-72.618c17.026-19.384 25.539-34.783 25.539-46.197 0-9.25-2.018-16.285-6.053-21.107-4.035-4.821-9.89-7.232-17.567-7.232-7.578 0-13.73 3.247-18.453 9.742-4.724 6.395-7.087 14.415-7.087 24.058H0c0-13.186 3.297-25.338 9.89-36.457 6.595-11.217 15.748-19.974 27.46-26.272C49.06 3.15 62.15 0 76.617 0c23.226 0 41.089 5.363 53.588 16.088 12.597 10.725 18.896 26.125 18.896 46.198 0 8.462-1.575 16.727-4.724 24.796-3.149 7.97-8.07 16.383-14.762 25.239-6.594 8.757-17.273 20.516-32.035 35.275l-27.754 32.029h84.59V218z" fill="url(#paint0_linear)"/><defs><linearGradient id="paint0_linear" x1="77.208" x2="77.208" y2="218" gradientUnits="userSpaceOnUse"><stop stop-color="#262D74"/><stop offset="1" stop-color="#262D74" stop-opacity="0"/></linearGradient></defs></svg>