<svg width="155" height="218" fill="none" xmlns="http://www.w3.org/2000/svg"><path d="M50.969 88.54h23.154c18.349 0 27.523-8.98 27.523-26.94 0-6.99-2.184-12.67-6.553-17.039-4.369-4.466-10.534-6.699-18.495-6.699-6.504 0-12.183 1.893-17.038 5.68-4.757 3.786-7.135 8.494-7.135 14.125H3.349c0-11.164 3.107-21.115 9.32-29.853 6.214-8.737 14.805-15.533 25.776-20.387C49.512 2.476 61.648 0 74.85 0c23.591 0 42.134 5.388 55.629 16.164 13.494 10.776 20.241 25.582 20.241 44.416 0 9.126-2.815 17.766-8.446 25.921-5.534 8.058-13.64 14.611-24.319 19.659 11.262 4.078 20.096 10.291 26.504 18.64 6.407 8.252 9.611 18.495 9.611 30.727 0 18.931-7.281 34.076-21.844 45.435C117.665 212.321 98.539 218 74.851 218c-13.883 0-26.795-2.621-38.736-7.864-11.844-5.339-20.824-12.669-26.94-21.989C3.057 178.73 0 168.051 0 156.11h49.367c0 6.504 2.621 12.135 7.864 16.892 5.242 4.757 11.698 7.136 19.367 7.136 8.64 0 15.534-2.379 20.68-7.136 5.145-4.854 7.717-11.019 7.717-18.494 0-10.679-2.669-18.252-8.009-22.718-5.34-4.466-12.718-6.698-22.135-6.698H50.969V88.54z" fill="url(#paint0_linear)"/><defs><linearGradient id="paint0_linear" x1="77.035" x2="77.035" y2="218" gradientUnits="userSpaceOnUse"><stop stop-color="#262D74"/><stop offset="1" stop-color="#262D74" stop-opacity="0"/></linearGradient></defs></svg>