<svg width="151" height="218" fill="none" xmlns="http://www.w3.org/2000/svg"><path d="M4.138 109.886L17.283 0h125.689v38.697h-85.22L52.876 81.38c3.545-2.068 8.173-3.89 13.884-5.465 5.81-1.575 11.471-2.363 16.985-2.363 21.367 0 37.761 6.35 49.183 19.053 11.52 12.603 17.28 30.327 17.28 53.17 0 13.785-3.101 26.29-9.304 37.515-6.105 11.127-14.721 19.693-25.847 25.7C103.931 214.997 90.786 218 75.623 218c-13.49 0-26.143-2.757-37.958-8.271-11.816-5.612-21.072-13.243-27.767-22.893C3.202 177.088-.096 166.109.002 153.9h49.922c.492 7.877 3.003 14.129 7.532 18.757 4.53 4.628 10.486 6.942 17.871 6.942 16.74 0 25.109-12.407 25.109-37.22 0-22.942-10.24-34.413-30.721-34.413-11.619 0-20.284 3.742-25.995 11.225l-39.582-9.305z" fill="url(#paint0_linear)"/><defs><linearGradient id="paint0_linear" x1="75.105" x2="75.105" y2="218" gradientUnits="userSpaceOnUse"><stop stop-color="#262D74"/><stop offset="1" stop-color="#262D74" stop-opacity="0"/></linearGradient></defs></svg>