<svg version="1.1" id="Layer_1" xmlns="http://www.w3.org/2000/svg" x="0" y="0" viewBox="0 0 50 50" xml:space="preserve"><style>.st0{fill:#f5b810}.st1{fill:#fff}</style><circle class="st0" cx="46.25" cy="23.75" r="2.5"/><circle class="st0" cx="13.13" cy="43.13" r="3.13"/><circle class="st0" cx="6.88" cy="6.88" r="3.13"/><circle class="st0" cx="25" cy="25" r="3.75"/><path class="st1" d="M49.17 18.1c-1.13-4.22-7.21-5.29-11.58-5.45.05-7.17-1.75-11.59-5.1-12.49-3.41-.92-7.75 2.11-11.7 8.12-4.13-2.35-7.77-3.52-10.39-3.34-.72-1-1.9-1.61-3.16-1.61-2.15 0-3.91 1.75-3.91 3.91 0 1.26.62 2.43 1.61 3.15-.19 2.63.99 6.26 3.34 10.39-6.01 3.95-9.04 8.29-8.13 11.7.85 3.18 4.95 4.98 11.59 5.09-.01.57-.01 1.1.02 1.61a3.879 3.879 0 0 0-2.58 3.67 3.916 3.916 0 0 0 4.59 3.85c.97 1.66 2.25 2.73 3.74 3.13 4.46 1.2 9.2-4.31 11.73-8.16 4.09 2.28 10.88 5.06 14.18 1.76 3.31-3.31.51-10.12-1.78-14.21 1.09-.71 2.09-1.44 2.96-2.16a3.916 3.916 0 0 0 5.39-3.62c0-.9-.31-1.77-.87-2.45.28-1.01.29-1.97.05-2.89zm-1.89.51c.1.36.13.75.1 1.14-.41-.15-.84-.21-1.28-.21-2.15 0-3.91 1.75-3.91 3.91 0 .89.3 1.73.83 2.4-.7.56-1.48 1.12-2.34 1.69a52.046 52.046 0 0 0-3.99-5.59c.46-2.56.74-5.02.86-7.33 5.49.18 9.11 1.64 9.73 3.99zM28.61 39.02c-1.38-.85-2.76-1.81-4.14-2.85 1.1-.24 2.22-.51 3.32-.8 1.06-.28 2.13-.62 3.19-.98-.72 1.63-1.51 3.17-2.37 4.63zM11.13 6.88c2.17.05 5.22 1.12 8.63 3.07a47.264 47.264 0 0 0-3.22 6.58c-2.34.94-4.55 2.02-6.58 3.22-1.93-3.42-3.01-6.45-3.07-8.62 2.42.21 4.45-1.81 4.24-4.25zm14.45 6.95c-1.11.23-2.24.5-3.34.8-1.06.28-2.13.62-3.18.97.72-1.64 1.52-3.19 2.39-4.66 1.36.87 2.75 1.84 4.13 2.89zm9.44 6.15a59.03 59.03 0 0 0-2.42-2.58c-.81-.81-1.66-1.61-2.53-2.38 1.91-.26 3.76-.41 5.51-.44-.08 1.73-.26 3.54-.56 5.4zm-7.74 13.5c-1.59.43-3.2.8-4.8 1.1a58.846 58.846 0 0 1-3.69-3.38 62.6 62.6 0 0 1-3.47-3.79c.33-1.4.71-2.9 1.19-4.69.42-1.58.94-3.15 1.52-4.69 1.53-.59 3.12-1.09 4.69-1.52 1.61-.43 3.22-.79 4.83-1.08 1.27 1.07 2.5 2.2 3.66 3.36a56.41 56.41 0 0 1 3.38 3.69c-.3 1.59-.67 3.2-1.1 4.79-.42 1.57-.93 3.13-1.51 4.67-1.57.61-3.14 1.13-4.7 1.54zM15.6 19.04c-.36 1.05-.68 2.12-.97 3.18-.32 1.2-.61 2.28-.85 3.28a50.843 50.843 0 0 1-2.84-4.07 44.31 44.31 0 0 1 4.66-2.39zm-.81 10.75A58.318 58.318 0 0 0 20 35.01c-2.14.32-4.23.53-6.15.6.15-1.67.46-3.59.94-5.82zm20.6-2.02c.29-1.1.57-2.22.8-3.32 1.04 1.36 1.98 2.73 2.83 4.1-1.45.85-2.99 1.65-4.59 2.36.35-1.03.67-2.08.96-3.14zM27.43 3.63c1.22-.95 3-2 4.56-1.58 2.34.62 3.68 4.56 3.65 10.58-2.36.04-4.89.27-7.53.72a56 56 0 0 0-5.64-4.06c1.6-2.42 3.3-4.36 4.96-5.66zM7.24 5.29c1.06 0 1.95.86 1.95 1.95 0 1.07-.88 1.95-1.95 1.95-1.08 0-1.95-.89-1.95-1.95 0-1.07.88-1.95 1.95-1.95zM2.05 31.98c-.42-1.56.63-3.34 1.58-4.56 1.29-1.65 3.23-3.36 5.66-4.96a52.67 52.67 0 0 0 3.92 5.45c-.69 3.03-1.13 5.57-1.33 7.71-5.59-.08-9.24-1.42-9.83-3.64zm9.1 10.88c0-1.08.87-1.95 1.95-1.95 1.07 0 1.95.88 1.95 1.95 0 1.08-.89 1.95-1.95 1.95a1.959 1.959 0 0 1-1.95-1.95zm11.45 3.5c-1.22.96-3.01 2.01-4.57 1.59-.95-.25-1.78-.95-2.46-2.07.9-.73 1.44-1.84 1.44-3.03 0-1.94-1.43-3.55-3.28-3.86-.02-.45-.03-.93-.01-1.45 2.57-.08 5.33-.37 8.24-.89 1.86 1.5 3.74 2.85 5.63 4-1.63 2.45-3.33 4.41-4.99 5.71zm19.46-4.32c-1.77 1.77-6.34.97-11.77-2.03 1.2-2.03 2.28-4.24 3.2-6.56 2.27-.92 4.48-2.01 6.51-3.2 3.02 5.43 3.84 10.01 2.06 11.79zm4.03-16.65c-1.06 0-1.95-.86-1.95-1.95 0-1.07.88-1.95 1.95-1.95s1.95.88 1.95 1.95a1.94 1.94 0 0 1-1.95 1.95z"/><path class="st1" d="M25.01 20.12A4.88 4.88 0 0 0 20.13 25c0 2.69 2.19 4.88 4.88 4.88 2.7 0 4.88-2.19 4.88-4.88.01-2.69-2.19-4.88-4.88-4.88zm0 7.8a2.94 2.94 0 0 1-2.93-2.93c0-1.61 1.31-2.93 2.93-2.93s2.93 1.31 2.93 2.93-1.32 2.93-2.93 2.93z"/></svg>