<svg id="Layer_1" xmlns="http://www.w3.org/2000/svg" viewBox="0 0 50 50"><style>.st0{fill:#fff}</style><path class="st0" d="M17.02 11.79a3.566 3.566 0 1 0-5.11 4.97 15.645 15.645 0 0 0-2.35 8.21c0 8.6 6.94 15.54 15.48 15.48 2.99 0 5.99-.83 8.53-2.48 7.13-4.71 9.11-14.33 4.39-21.47-4.6-6.97-13.86-9-20.94-4.71zm-2.56.18c1.27.06 2.29 1.08 2.29 2.29 0 1.27-1.02 2.29-2.29 2.29s-2.29-1.02-2.29-2.29 1.02-2.29 2.29-2.29zm10.57 27.14c-7.83 0-14.2-6.37-14.2-14.2 0-2.59.77-5.17 2.14-7.41.46.21.96.34 1.49.34 1.97 0 3.57-1.59 3.57-3.57 0-.5-.1-.98-.29-1.41 2.22-1.32 4.7-2.03 7.29-2.03 7.83 0 14.2 6.24 14.2 14.08.01 7.83-6.36 14.2-14.2 14.2z"/><path class="st0" d="M50 24.97C50 11.15 38.79 0 24.97 0S0 11.21 0 25.03 11.21 50 25.03 50c5.5 0 10.8-1.81 15.07-5.11.59.44 1.33.72 2.13.72 1.97 0 3.57-1.59 3.57-3.57 0-.82-.29-1.57-.76-2.18A24.9 24.9 0 0 0 50 24.97zm-7.77 19.36c-1.27 0-2.29-1.02-2.29-2.29s1.02-2.29 2.29-2.29 2.29 1.08 2.29 2.29c0 1.27-1.02 2.29-2.29 2.29zm1.86-5.32c-.54-.33-1.17-.53-1.86-.53a3.566 3.566 0 0 0-3.01 5.48c-4.05 3.11-9.06 4.77-14.19 4.77-13.12 0-23.76-10.57-23.76-23.69 0-13.12 10.64-23.76 23.69-23.76 13.12 0 23.76 10.64 23.76 23.76.01 4.99-1.64 9.92-4.63 13.97z"/><path d="M32.23 24.33h-1.31a5.816 5.816 0 0 0-1.25-3.04l.84-.84c.25-.25.25-.64 0-.89a.622.622 0 0 0-.89 0l-.83.83c-.87-.7-1.94-1.17-3.11-1.3v-1.25c0-.38-.25-.64-.64-.64-.38 0-.64.25-.64.64v1.24c-1.19.11-2.26.59-3.13 1.3l-.82-.82-.06-.06c-.25-.25-.64-.19-.89.06s-.19.64.06.89l.82.82c-.69.86-1.15 1.9-1.29 3.06h-1.25c-.38 0-.64.25-.64.64s.25.64.64.64h1.24c.11 1.21.59 2.3 1.31 3.18l-.83.83c-.25.25-.25.64 0 .89.13.13.25.19.45.19.13.06.32-.06.45-.19l.84-.84a6.06 6.06 0 0 0 3.1 1.26v1.24c0 .38.25.64.64.64.38 0 .64-.25.64-.64v-1.25c1.17-.13 2.24-.6 3.11-1.32l.91.91c.13.13.25.19.45.19s.32-.06.45-.19c.25-.25.25-.64 0-.89l-.92-.92a6.04 6.04 0 0 0 1.27-3.09h1.31c.32 0 .64-.25.64-.64s-.29-.64-.67-.64z" fill="#f9cb4c"/></svg>