<svg id="Layer_1" xmlns="http://www.w3.org/2000/svg" viewBox="0 0 22 46"><style>.st0{fill:#fff}</style><path class="st0" d="M11.1 0l-.4.2c-.3.1-6.6 3.4-6.7 13v5.1c-2.3.6-4 3.2-4 6.4V30l5.9-3.5c.8.2 1.5.4 2.3.5.1.7.2 1.4.4 2.1.6 2 1.6 2.4 2.3 2.4.5 0 1-.2 1.3-.6.9-1.1 1.4-2.5 1.6-3.9.8-.1 1.6-.3 2.3-.5L22 30v-5.3c0-3.1-1.7-5.8-4-6.4v-5.2C18 3.5 11.6.2 11.3.1l-.2-.1zm0 2.3c1.2.8 2.2 1.9 2.9 3.1-1.8 1-4 1-6 0 .9-1.3 1.9-2.3 3.1-3.1zM2 24.8c-.1-1.7.7-3.2 2-4.2v4.8l-2 1.2v-1.8zm8.1 0c0-2.6.6-4.1 1-4.4.4.4 1 1.9 1 4.4.1 1.6-.3 3.3-1.1 4.7-.7-1.5-1-3.1-.9-4.7zm10.1 0v1.7l-2-1.2v-4.8c1.3 1 2.1 2.7 2 4.3zm-4.1-11.6v11.4c-.7.2-1.3.3-2 .4v-.2c0-1.4-.2-2.9-.6-4.2-.7-1.9-1.7-2.3-2.4-2.3s-1.7.4-2.4 2.3c-.4 1.4-.7 2.8-.6 4.2v.2c-.7-.1-1.3-.3-2-.4V13.2c0-2 .3-4.1 1.1-6 2.4 1.3 5.3 1.3 7.8 0 .7 1.9 1.1 4 1.1 6zm-7.9 22c-.7 1.1-1.1 2.5-1 3.8 0 3.5 3.7 6.9 3.7 6.9s4-3.9 4-6.9c.1-1.4-.3-2.7-1-3.8-1.2-1.6-3.5-1.8-5.1-.6l-.6.6zm4 1.2c.5.8.7 1.7.6 2.7-.1 1.6-.8 3-1.8 4.2-1-1.2-1.7-2.6-1.8-4.2-.1-.9.1-1.9.6-2.7l.2-.2c.3-.3.7-.4 1-.4.5 0 1 .2 1.2.6z"/><path class="st0" d="M10.9 9.4c-2.2 0-4 1.8-4 4s1.8 4 4 4 4-1.8 4-4c0-1.1-.4-2.1-1.2-2.8-.8-.8-1.8-1.2-2.8-1.2zm2 4c0 1.1-.9 2-2 2s-2-.9-2-2 .9-2 2-2 2 .9 2 2z"/></svg>