<svg xmlns="http://www.w3.org/2000/svg" viewBox="0 0 99.52 100"><g opacity=".2"><linearGradient id="a" gradientUnits="userSpaceOnUse" x1="4.069" y1="32.463" x2="95.244" y2="71.45" gradientTransform="matrix(1 0 0 -1 0 102)"><stop offset="0" stop-color="#f68aff"/><stop offset="1" stop-color="#c84fcf"/><stop offset="1" stop-color="#81079f"/></linearGradient><path d="M69.43 96.01c25.23-10.79 36.88-40.14 26.02-65.55C84.58 5.05 55.32-6.8 30.08 3.99S-6.8 44.13 4.07 69.54C14.93 94.95 44.2 106.8 69.43 96.01z" opacity=".5" fill="url(#a)"/></g><linearGradient id="b" gradientUnits="userSpaceOnUse" x1="17.489" y1="38.201" x2="81.764" y2="65.685" gradientTransform="matrix(1 0 0 -1 0 102)"><stop offset="0" stop-color="#f68aff"/><stop offset="1" stop-color="#81079f"/></linearGradient><path d="M63.66 82.5c17.82-7.62 26.05-28.35 18.37-46.3-7.67-17.95-28.34-26.32-46.17-18.7-17.82 7.62-26.05 28.35-18.37 46.3s28.34 26.32 46.17 18.7z" fill="url(#b)"/><path d="M86.4 23.89c-2.74.13-6.35.92-10.6 2.36l-1.25-1.51c4.33-1.47 8.75-2.73 11.75-2.87 2.92-.14 5.45.39 6.71 2.16l.02.03.02.03c1.2 1.92.65 4.46-.72 7.06-1.4 2.67-3.83 5.77-7.06 9.1-6.47 6.66-16.29 14.4-27.97 21.69-11.68 7.29-22.93 12.77-31.75 15.73-4.4 1.47-8.25 2.33-11.26 2.45-2.93.11-5.47-.48-6.67-2.41l-.01-.01-.01-.02c-.59-1.01-.41-2.2-.01-3.28.41-1.11 1.15-2.35 2.06-3.63 1.83-2.57 4.52-5.55 7.26-8.43l.73 2.2c-2.74 2.88-4.61 4.95-6.35 7.39-.87 1.23-1.49 2.29-1.81 3.16-.33.88-.27 1.34-.15 1.56.59.92 2.08 1.55 4.88 1.45 2.74-.1 6.38-.9 10.7-2.34 8.62-2.89 19.73-8.29 31.32-15.53C67.82 53 77.5 45.36 83.83 38.85c3.17-3.26 5.45-6.2 6.72-8.63 1.3-2.48 1.38-4.09.81-5.03-.63-.85-2.16-1.43-4.96-1.3z" fill="#fff"/></svg>