<svg width="291" height="143" viewBox="0 0 291 143" fill="none" xmlns="http://www.w3.org/2000/svg">
<path opacity="0.7" d="M217.803 70.846C217.667 73.3429 217.451 75.8191 217.077 78.2542C241.777 93.5048 256.23 107.624 252.887 115.621C247.415 128.892 194.822 119.931 135.486 95.6374C76.1694 71.2649 32.4541 40.7995 37.9468 27.4502C41.1696 19.5906 61.0606 19.5869 89.0109 25.8877C90.4807 23.8202 91.9892 21.9316 93.5773 20.0636C50.5801 8.18302 18.7095 6.52306 14.1288 17.6606C7.46026 33.913 60.7282 71.1535 133.277 100.89C205.746 130.605 269.977 141.564 276.646 125.311C281.326 114.115 257.104 92.7426 217.803 70.846Z" fill="#8BECEF"/>
<path d="M217.237 77.8704C216.923 80.0712 216.449 82.2308 215.875 84.449C229.123 94.0456 236.292 102.492 234.102 107.673C229.557 118.669 186.236 111.268 137.352 91.1862C88.4682 71.1048 52.4719 45.9047 56.9959 34.9883C59.1065 29.7868 69.9109 28.7778 85.7227 31.0925C86.8338 29.0978 88.0041 27.203 89.2337 25.408C60.8161 18.9032 40.5778 18.909 37.3311 26.8594C31.8122 40.3076 75.735 71.0232 135.467 95.5162C195.199 120.009 248.129 129.051 253.648 115.602C257.054 107.693 242.38 93.4174 217.237 77.8704Z" fill="#8BECEF"/>
</svg>
